<?xml version="1.0" encoding="utf-8"?>
<!-- Generator: Adobe Illustrator 25.3.1, SVG Export Plug-In . SVG Version: 6.00 Build 0)  -->
<svg version="1.1" id="Layer_2" xmlns="http://www.w3.org/2000/svg" xmlns:xlink="http://www.w3.org/1999/xlink" x="0px" y="0px"
	 viewBox="0 0 595.3 595.3" style="enable-background:new 0 0 595.3 595.3;" xml:space="preserve">
<style type="text/css">
	.st0{fill:#FFFFFF;}
</style>
<path class="st0" d="M121.1,233.7c-52.4,0-95-42.6-95-95s42.6-95,95-95s95,42.6,95,95S173.5,233.7,121.1,233.7z M121.1,44.1
	c-52.1,0-94.5,42.4-94.5,94.5s42.4,94.5,94.5,94.5s94.5-42.4,94.5-94.5S173.2,44.1,121.1,44.1z"/>
<path class="st0" d="M306.6,457.2c-47.1,0-85.4-38.3-85.4-85.4c0-47.1,38.3-85.4,85.4-85.4c47.1,0,85.4,38.3,85.4,85.4
	C392,418.9,353.7,457.2,306.6,457.2z M306.6,286.9c-46.8,0-84.9,38.1-84.9,84.9c0,46.8,38.1,84.9,84.9,84.9
	c46.8,0,84.9-38.1,84.9-84.9C391.5,325,353.4,286.9,306.6,286.9z"/>
<path class="st0" d="M306.6,413.9c-23.2,0-42.1-18.9-42.1-42.1s18.9-42.1,42.1-42.1c23.2,0,42.1,18.9,42.1,42.1
	S329.8,413.9,306.6,413.9z M306.6,330.2c-22.9,0-41.6,18.7-41.6,41.6s18.7,41.6,41.6,41.6c22.9,0,41.6-18.7,41.6-41.6
	S329.5,330.2,306.6,330.2z"/>
<path class="st0" d="M595.3,342.2c-6.1,1.4-12.4,2.1-18.8,2.1c-46.8,0-84.9-38.1-84.9-84.9c0-46.8,38.1-84.9,84.9-84.9
	c6.5,0,12.8,0.8,18.8,2.1v-0.5c-6.1-1.4-12.4-2.1-18.8-2.1c-47.1,0-85.4,38.3-85.4,85.4c0,47.1,38.3,85.4,85.4,85.4
	c6.5,0,12.8-0.7,18.8-2.1V342.2z"/>
<path class="st0" d="M595.3,296.5c-5.7,2.9-12.1,4.5-18.8,4.5c-22.9,0-41.6-18.7-41.6-41.6c0-22.9,18.7-41.6,41.6-41.6
	c6.8,0,13.2,1.6,18.8,4.5v-0.6c-5.7-2.9-12.1-4.5-18.8-4.5c-23.2,0-42.1,18.9-42.1,42.1s18.9,42.1,42.1,42.1
	c6.8,0,13.2-1.6,18.8-4.5V296.5z"/>
<polygon class="st0" points="595.3,81 551.2,74.1 550.9,74.1 517.7,155.5 431.1,142.1 430.9,142 397.7,223.4 298.3,208 303.4,175.6 
	376.9,187 377.1,187 410.3,105.6 496.9,119.1 497.2,119.1 530.3,37.7 595.3,47.8 595.3,47.2 530.2,37.1 530,37.1 496.8,118.5 
	410.2,105 409.9,105 376.7,186.4 302.9,174.9 297.6,208.5 397.8,224 398.1,224.1 431.3,142.7 517.9,156.1 518.1,156.2 551.3,74.8 
	595.3,81.6 "/>
<polygon class="st0" points="595.3,538.8 538.7,528.1 534.6,440.6 534.5,440.3 448.2,424.1 443.5,323.6 476.2,322.1 479.7,396.4 
	479.7,396.6 566.1,412.9 570.2,500.5 570.2,500.7 595.3,505.5 595.3,504.8 570.8,500.2 566.7,412.7 566.7,412.4 480.3,396.1 
	476.8,321.7 476.8,321.4 442.8,323 447.6,424.3 447.6,424.6 534,440.8 538.1,528.4 538.1,528.6 595.3,539.4 "/>
<polygon class="st0" points="180.8,450.9 180.6,450.8 122.1,516.4 45,474.8 44.7,474.7 0,525 0,525.9 44.9,475.5 122,517.1 
	122.3,517.2 180.7,451.5 269.2,499.2 253.7,528.1 188.2,492.8 188,492.7 129.5,558.3 52.3,516.7 52.1,516.6 0,575.2 0,576.1 
	52.3,517.4 129.4,559 129.6,559.1 188.1,493.4 253.7,528.8 253.9,528.9 269.9,499.2 270,499 "/>
<g>
	<path class="st0" d="M0,53.2C16.9,29.3,40.8,10.6,68.6,0h-1.6C48,7.4,30.7,18.7,15.9,33.5C10,39.3,4.7,45.6,0,52.2V53.2z"/>
	<path class="st0" d="M226.3,33.5C211.5,18.7,194.2,7.4,175.2,0h-1.6c55.9,21.3,95.8,75.4,95.8,138.7c0,81.8-66.5,148.3-148.3,148.3
		C71.1,287,26.9,262.2,0,224.2v1c4.7,6.6,10,12.8,15.9,18.7C44,272,81.3,287.5,121.1,287.5c39.7,0,77.1-15.5,105.2-43.6
		c28.1-28.1,43.6-65.5,43.6-105.2S254.4,61.6,226.3,33.5z"/>
</g>
</svg>
