<?xml version="1.0" encoding="utf-8"?>
<!-- Generator: Adobe Illustrator 25.3.1, SVG Export Plug-In . SVG Version: 6.00 Build 0)  -->
<svg version="1.1" id="Layer_2" xmlns="http://www.w3.org/2000/svg" xmlns:xlink="http://www.w3.org/1999/xlink" x="0px" y="0px"
	 viewBox="0 0 595.3 595.3" style="enable-background:new 0 0 595.3 595.3;" xml:space="preserve">
<style type="text/css">
	.st0{fill:#FFFFFF;}
</style>
<path class="st0" d="M31.5,21.1c-0.1,0-0.1,0-0.2,0c-0.8,0-1.6-0.4-2.1-1c-0.5-0.6-0.8-1.4-0.8-2.2c0-0.8,0.4-1.6,1-2.1
	c0.6-0.5,1.4-0.8,2.2-0.8c0.8,0,1.6,0.4,2.1,1c0.5,0.6,0.8,1.4,0.8,2.2c0,0.8-0.4,1.6-1,2.1C33,20.9,32.3,21.1,31.5,21.1z
	 M31.5,15.5c-0.6,0-1.2,0.2-1.7,0.6c-0.5,0.5-0.8,1.1-0.9,1.8c0,0.7,0.2,1.3,0.6,1.8c0.5,0.5,1.1,0.8,1.8,0.9c0.7,0,1.3-0.2,1.8-0.6
	c0.5-0.5,0.8-1.1,0.9-1.8s-0.2-1.3-0.6-1.8c-0.5-0.5-1.1-0.8-1.8-0.9C31.6,15.5,31.6,15.5,31.5,15.5z"/>
<path class="st0" d="M262.5,262.6c-0.1-4.5,1.5-8.7,4.6-11.7c2.9-2.9,6.9-4.5,11.1-4.4l0,0.5c-4.1-0.1-7.8,1.4-10.7,4.3
	c-3,3-4.6,7-4.5,11.4L262.5,262.6z"/>
<path class="st0" d="M481.6,235.8l-0.4-0.3c2.6-3.2,3.8-7.2,3.2-11.1c-0.6-4.1-2.9-7.8-6.6-10.3l0.3-0.4c3.8,2.6,6.2,6.4,6.8,10.6
	C485.6,228.4,484.4,232.5,481.6,235.8z"/>
<path class="st0" d="M388.5,232.4c-4-2-7-5.4-8.3-9.5c-1.2-4-0.8-8.2,1.2-11.8l0.4,0.2c-1.9,3.5-2.4,7.6-1.1,11.4
	c1.3,4,4.1,7.3,8,9.2L388.5,232.4z"/>
<path class="st0" d="M69.9,62.1l-0.5-0.1c1.3-4.4,4.2-7.8,8.1-9.6c3.8-1.8,8-1.9,12-0.3l-0.2,0.5c-3.9-1.6-8-1.5-11.6,0.3
	C73.9,54.5,71.2,57.8,69.9,62.1z"/>
<path class="st0" d="M211.8,188c-1.8-4.2-1.8-8.7,0-12.6c1.7-3.8,4.9-6.6,9-7.9l0.2,0.5c-4,1.3-7.1,4-8.7,7.7
	c-1.7,3.8-1.7,8.1,0,12.2L211.8,188z"/>
<path class="st0" d="M512.7,147.4c-1.8,0-3.5-0.3-5.2-0.9c-3.9-1.5-6.9-4.5-8.5-8.4l0.5-0.2c1.6,3.9,4.5,6.8,8.2,8.2
	c3.9,1.5,8.2,1.2,12.2-0.8l0.2,0.4C517.7,146.8,515.2,147.4,512.7,147.4z"/>
<path class="st0" d="M538.6,62.4c-2.9-3.5-4.1-7.9-3.5-12.1c0.6-4.1,2.9-7.7,6.5-10.1l0.3,0.4c-3.5,2.3-5.7,5.8-6.3,9.8
	c-0.6,4.1,0.6,8.3,3.4,11.7L538.6,62.4z"/>
<path class="st0" d="M473.8,30.5c-4,0-7.6-1.4-10.5-4c-3.1-2.8-4.8-6.7-4.7-11l0.5,0c0,4.2,1.6,7.9,4.6,10.7
	c3.1,2.8,7.2,4.2,11.6,3.8l0,0.5C474.8,30.4,474.3,30.5,473.8,30.5z"/>
<path class="st0" d="M109.8,91.7c-0.1,0-0.1,0-0.2,0c-0.8,0-1.6-0.4-2.1-1c-0.5-0.6-0.8-1.4-0.8-2.2c0.1-1.7,1.5-3,3.2-2.9
	c0.8,0,1.6,0.4,2.1,1c0.5,0.6,0.8,1.4,0.8,2.2c0,0.8-0.4,1.6-1,2.1C111.2,91.5,110.5,91.7,109.8,91.7z M109.8,86.1
	c-1.3,0-2.5,1-2.5,2.4c0,0.7,0.2,1.3,0.6,1.8s1.1,0.8,1.8,0.9c0.7,0,1.3-0.2,1.8-0.6s0.8-1.1,0.9-1.8c0-0.7-0.2-1.3-0.6-1.8
	s-1.1-0.8-1.8-0.9C109.9,86.1,109.8,86.1,109.8,86.1z"/>
<path class="st0" d="M550.9,244.1c-0.1,0-0.1,0-0.2,0c-0.8,0-1.6-0.4-2.1-1c-0.5-0.6-0.8-1.4-0.8-2.2c0.1-1.7,1.6-3,3.2-2.9l0,0
	c1.7,0.1,3,1.6,2.9,3.2c-0.1,0.8-0.4,1.6-1,2.1C552.3,243.8,551.6,244.1,550.9,244.1z M550.8,238.5c-1.3,0-2.5,1-2.5,2.4
	c0,0.7,0.2,1.3,0.6,1.8s1.1,0.8,1.8,0.9c0.7,0,1.3-0.2,1.8-0.6c0.5-0.5,0.8-1.1,0.9-1.8c0.1-1.4-1-2.6-2.4-2.7
	C550.9,238.5,550.9,238.5,550.8,238.5z"/>
<path class="st0" d="M577.9,37.1c-0.1,0-0.1,0-0.2,0c-0.8,0-1.6-0.4-2.1-1c-0.5-0.6-0.8-1.4-0.8-2.2c0.1-1.7,1.6-3,3.2-2.9l0,0
	c1.7,0.1,3,1.6,2.9,3.2c-0.1,0.8-0.4,1.6-1,2.1C579.3,36.9,578.6,37.1,577.9,37.1z M577.9,31.5c-1.3,0-2.5,1-2.5,2.4
	c0,0.7,0.2,1.3,0.6,1.8c0.5,0.5,1.1,0.8,1.8,0.9c0.7,0,1.3-0.2,1.8-0.6c0.5-0.5,0.8-1.1,0.9-1.8c0.1-1.4-1-2.6-2.4-2.7
	C578,31.5,577.9,31.5,577.9,31.5z"/>
<path class="st0" d="M261.5,47.2c-0.1,0-0.1,0-0.2,0c-0.8,0-1.6-0.4-2.1-1c-0.5-0.6-0.8-1.4-0.8-2.2c0.1-1.7,1.5-3,3.2-2.9
	c0.8,0,1.6,0.4,2.1,1s0.8,1.4,0.8,2.2c0,0.8-0.4,1.6-1,2.1C263,47,262.3,47.2,261.5,47.2z M261.5,41.6c-1.3,0-2.5,1-2.5,2.4
	c0,0.7,0.2,1.3,0.6,1.8s1.1,0.8,1.8,0.9c0.7,0,1.3-0.2,1.8-0.6c0.5-0.5,0.8-1.1,0.9-1.8s-0.2-1.3-0.6-1.8s-1.1-0.8-1.8-0.9
	C261.6,41.6,261.6,41.6,261.5,41.6z"/>
<path class="st0" d="M477.9,158.5c-0.1,0-0.1,0-0.2,0c-0.8,0-1.6-0.4-2.1-1s-0.8-1.4-0.8-2.2c0.1-1.7,1.6-3,3.2-2.9s3,1.6,2.9,3.2
	c-0.1,0.8-0.4,1.6-1,2.1C479.4,158.2,478.7,158.5,477.9,158.5z M477.9,152.9c-1.3,0-2.5,1-2.5,2.4c0,0.7,0.2,1.3,0.6,1.8
	c0.5,0.5,1.1,0.8,1.8,0.9c0.7,0,1.3-0.2,1.8-0.6c0.5-0.5,0.8-1.1,0.9-1.8c0.1-1.4-1-2.6-2.4-2.7C478,152.9,478,152.9,477.9,152.9z"
	/>
<path class="st0" d="M408,53.9c-0.1,0-0.1,0-0.2,0c-0.8,0-1.6-0.4-2.1-1c-0.5-0.6-0.8-1.4-0.8-2.2c0.1-1.7,1.5-3,3.2-2.9l0,0
	c1.7,0.1,3,1.6,2.9,3.2c-0.1,0.8-0.4,1.6-1,2.1C409.4,53.6,408.7,53.9,408,53.9z M407.9,48.3c-1.3,0-2.5,1-2.5,2.4
	c0,0.7,0.2,1.3,0.6,1.8c0.5,0.5,1.1,0.8,1.8,0.9c0.7,0,1.3-0.2,1.8-0.6s0.8-1.1,0.9-1.8c0.1-1.4-1-2.6-2.4-2.7
	C408.1,48.3,408,48.3,407.9,48.3z"/>
<path class="st0" d="M111.2,232.4c-0.1,0-0.1,0-0.2,0c-0.8,0-1.6-0.4-2.1-1c-0.5-0.6-0.8-1.4-0.8-2.2c0-0.8,0.4-1.6,1-2.1
	c0.6-0.5,1.4-0.8,2.2-0.8c0.8,0,1.6,0.4,2.1,1s0.8,1.4,0.8,2.2c0,0.8-0.4,1.6-1,2.1C112.6,232.1,111.9,232.4,111.2,232.4z
	 M111.2,226.8c-1.3,0-2.5,1-2.5,2.4c0,0.7,0.2,1.3,0.6,1.8s1.1,0.8,1.8,0.9c0.7,0,1.3-0.2,1.8-0.6c0.5-0.5,0.8-1.1,0.9-1.8
	s-0.2-1.3-0.6-1.8s-1.1-0.8-1.8-0.9C111.3,226.8,111.2,226.8,111.2,226.8z"/>
<path class="st0" d="M255.3,226.7c-0.1,0-0.1,0-0.2,0c-0.8,0-1.6-0.4-2.1-1c-0.5-0.6-0.8-1.4-0.8-2.2c0-0.8,0.4-1.6,1-2.1
	c0.6-0.5,1.4-0.8,2.2-0.8c0.8,0,1.6,0.4,2.1,1c0.5,0.6,0.8,1.4,0.8,2.2c0,0.8-0.4,1.6-1,2.1C256.8,226.4,256,226.7,255.3,226.7z
	 M255.3,221.1c-1.3,0-2.5,1-2.5,2.4c0,0.7,0.2,1.3,0.6,1.8s1.1,0.8,1.8,0.9c0.7,0,1.3-0.2,1.8-0.6c0.5-0.5,0.8-1.1,0.9-1.8
	c0-0.7-0.2-1.3-0.6-1.8s-1.1-0.8-1.8-0.9C255.4,221.1,255.4,221.1,255.3,221.1z"/>
<path class="st0" d="M99,155.4c-1,0-2-0.1-3-0.3l0.1-0.5c4,0.8,8,0,11.3-2.3c3.4-2.4,5.7-6.1,6.4-10.4l0.5,0.1
	c-0.7,4.4-3,8.3-6.6,10.8C105.1,154.4,102.1,155.4,99,155.4z"/>
<path class="st0" d="M29.1,125.4c-1.9,0-3.7-0.3-5.5-1c-3.9-1.5-6.9-4.4-8.6-8.2l0.5-0.2c1.6,3.7,4.6,6.5,8.3,8
	c3.9,1.5,8.3,1.2,12.2-0.7l0.2,0.5C33.9,124.8,31.5,125.4,29.1,125.4z"/>
<path class="st0" d="M366.3,85.5l-0.2-0.5c3.7-1.7,6.4-4.7,7.7-8.5c1.4-4,1-8.3-1-12.2l0.4-0.2c2.1,4,2.4,8.5,1,12.6
	C372.9,80.6,370.1,83.8,366.3,85.5z"/>
<path class="st0" d="M123.9,247.4l-0.1-0.5c4-0.5,7.6-2.5,10-5.7c2.5-3.4,3.5-7.6,2.8-11.9l0.5-0.1c0.7,4.4-0.3,8.8-2.9,12.3
	C131.7,244.8,128,246.9,123.9,247.4z"/>
<path class="st0" d="M28.1,268c-3.5,0-6.8-1.2-9.6-3.4l0.3-0.4c3.1,2.6,7.1,3.7,11,3.2c4.2-0.5,7.9-2.7,10.5-6.2l0.4,0.3
	c-2.7,3.6-6.5,5.9-10.9,6.4C29.4,268,28.7,268,28.1,268z"/>
<path class="st0" d="M564.1,575.8c-0.1,0-0.1,0-0.2,0l0,0c-1.7-0.1-3-1.6-2.9-3.2c0.1-0.8,0.4-1.6,1-2.1c0.6-0.5,1.4-0.8,2.2-0.8
	c0.8,0.1,1.6,0.4,2.1,1c0.5,0.6,0.8,1.4,0.8,2.2C567,574.6,565.7,575.8,564.1,575.8z M564.1,570.2c-0.6,0-1.2,0.2-1.7,0.6
	c-0.5,0.5-0.8,1.1-0.9,1.8c-0.1,1.4,1,2.6,2.4,2.7l0,0c1.4,0.1,2.6-1,2.7-2.4c0-0.7-0.2-1.3-0.6-1.8c-0.5-0.5-1.1-0.8-1.8-0.9
	C564.2,570.2,564.1,570.2,564.1,570.2z"/>
<path class="st0" d="M388.6,480.6c-0.1,0-0.1,0-0.2,0l0,0c-1.7-0.1-3-1.6-2.9-3.2c0.1-0.8,0.4-1.6,1-2.1c0.6-0.5,1.4-0.8,2.2-0.8
	c0.8,0.1,1.6,0.4,2.1,1s0.8,1.4,0.8,2.2C391.5,479.3,390.2,480.6,388.6,480.6z M388.4,480.1c1.4,0.1,2.6-1,2.7-2.4
	c0-0.7-0.2-1.3-0.6-1.8c-0.5-0.5-1.1-0.8-1.8-0.9c-0.7-0.1-1.3,0.2-1.8,0.6c-0.5,0.5-0.8,1.1-0.9,1.8C386,478.8,387,480,388.4,480.1
	L388.4,480.1z"/>
<path class="st0" d="M367.3,311.4c-0.1,0-0.2,0-0.3,0l0-0.5c4,0.1,7.8-1.4,10.7-4.3c3-3,4.6-7,4.5-11.4l0.5,0
	c0.1,4.5-1.5,8.7-4.6,11.7C375.2,309.9,371.4,311.4,367.3,311.4z"/>
<path class="st0" d="M117.4,377.1c-3.8-2.6-6.2-6.4-6.8-10.6c-0.6-4.1,0.6-8.2,3.4-11.5l0.4,0.3c-2.6,3.2-3.8,7.2-3.2,11.1
	c0.6,4.1,2.9,7.8,6.6,10.3L117.4,377.1z"/>
<path class="st0" d="M214.2,379.8l-0.4-0.2c1.9-3.5,2.4-7.6,1.1-11.4c-1.3-4-4.1-7.3-8-9.2l0.2-0.4c4,2,7,5.4,8.3,9.5
	C216.6,371.9,216.2,376.1,214.2,379.8z"/>
<path class="st0" d="M511.8,540c-1.9,0-3.9-0.4-5.8-1.1l0.2-0.5c3.9,1.6,8,1.5,11.6-0.3c3.8-1.8,6.5-5.1,7.8-9.3l0.5,0.1
	c-1.3,4.4-4.2,7.8-8.1,9.6C516.1,539.5,514,540,511.8,540z"/>
<path class="st0" d="M374.8,423.3l-0.2-0.5c4-1.3,7.1-4,8.7-7.7c1.7-3.8,1.7-8.1,0-12.2l0.5-0.2c1.8,4.2,1.8,8.7,0,12.6
	C382.1,419.2,378.9,422,374.8,423.3z"/>
<path class="st0" d="M96.1,453c-1.6-3.9-4.5-6.8-8.2-8.2c-3.9-1.5-8.2-1.2-12.2,0.8l-0.2-0.4c4.1-2.1,8.5-2.4,12.6-0.9
	c3.9,1.5,6.9,4.5,8.5,8.4L96.1,453z"/>
<path class="st0" d="M53.9,550.6l-0.3-0.4c3.5-2.3,5.7-5.8,6.3-9.8c0.6-4.1-0.6-8.3-3.4-11.7l0.4-0.3c2.9,3.5,4.1,7.9,3.5,12.1
	C59.8,544.6,57.5,548.2,53.9,550.6z"/>
<path class="st0" d="M137,575.3h-0.5c0-4.2-1.6-7.9-4.6-10.7c-3.1-2.8-7.2-4.2-11.6-3.8l0-0.5c4.6-0.4,8.8,1,12,3.9
	C135.4,567.1,137,571,137,575.3z"/>
<path class="st0" d="M485.8,505.2c-0.1,0-0.1,0-0.2,0l0,0c-1.7-0.1-3-1.6-2.9-3.2c0.1-0.8,0.4-1.6,1-2.1c0.6-0.5,1.4-0.8,2.2-0.8
	c0.8,0.1,1.6,0.4,2.1,1c0.5,0.6,0.8,1.4,0.8,2.2C488.8,503.9,487.4,505.2,485.8,505.2z M485.7,504.7c1.4,0.1,2.6-1,2.7-2.4
	c0-0.7-0.2-1.3-0.6-1.8c-0.5-0.5-1.1-0.8-1.8-0.9c-0.7-0.1-1.3,0.2-1.8,0.6c-0.5,0.5-0.8,1.1-0.9,1.8
	C483.2,503.4,484.3,504.6,485.7,504.7L485.7,504.7z"/>
<path class="st0" d="M44.7,352.8c-0.1,0-0.1,0-0.2,0c-0.8,0-1.6-0.4-2.1-1c-0.5-0.6-0.8-1.4-0.8-2.2c0-0.8,0.4-1.6,1-2.1
	c0.6-0.5,1.4-0.8,2.2-0.8c0.8,0,1.6,0.4,2.1,1c0.5,0.6,0.8,1.4,0.8,2.2C47.7,351.6,46.3,352.8,44.7,352.8z M44.7,347.2
	c-0.6,0-1.2,0.2-1.7,0.6c-0.5,0.5-0.8,1.1-0.9,1.8c0,0.7,0.2,1.3,0.6,1.8s1.1,0.8,1.8,0.9c1.4,0.1,2.6-1,2.7-2.4
	c0-0.7-0.2-1.3-0.6-1.8s-1.1-0.8-1.8-0.9C44.8,347.2,44.8,347.2,44.7,347.2z"/>
<path class="st0" d="M334.1,549.7c-0.1,0-0.1,0-0.2,0l0,0c-0.8,0-1.6-0.4-2.1-1c-0.5-0.6-0.8-1.4-0.8-2.2c0.1-0.8,0.4-1.6,1-2.1
	s1.4-0.8,2.2-0.8c0.8,0,1.6,0.4,2.1,1s0.8,1.4,0.8,2.2C337,548.5,335.7,549.7,334.1,549.7z M334.1,544.1c-0.6,0-1.2,0.2-1.7,0.6
	c-0.5,0.5-0.8,1.1-0.9,1.8c0,0.7,0.2,1.3,0.6,1.8c0.5,0.5,1.1,0.8,1.8,0.9l0,0c1.4,0.1,2.6-1,2.7-2.4c0-0.7-0.2-1.3-0.6-1.8
	c-0.5-0.5-1.1-0.8-1.8-0.9C334.2,544.1,334.1,544.1,334.1,544.1z"/>
<path class="st0" d="M117.7,438.4c-0.1,0-0.1,0-0.2,0l0,0c-0.8,0-1.6-0.4-2.1-1s-0.8-1.4-0.8-2.2s0.4-1.6,1-2.1
	c0.6-0.5,1.4-0.8,2.2-0.8c0.8,0,1.6,0.4,2.1,1c0.5,0.6,0.8,1.4,0.8,2.2c0,0.8-0.4,1.6-1,2.1C119.1,438.2,118.4,438.4,117.7,438.4z
	 M117.7,432.8c-0.6,0-1.2,0.2-1.7,0.6c-0.5,0.5-0.8,1.1-0.9,1.8c0,0.7,0.2,1.3,0.6,1.8c0.5,0.5,1.1,0.8,1.8,0.9l0,0
	c0.7,0.1,1.3-0.2,1.8-0.6s0.8-1.1,0.9-1.8c0-0.7-0.2-1.3-0.6-1.8c-0.5-0.5-1.1-0.8-1.8-0.9C117.8,432.8,117.7,432.8,117.7,432.8z"/>
<path class="st0" d="M187.6,543.1c-0.1,0-0.1,0-0.2,0l0,0c-1.7-0.1-3-1.6-2.9-3.2c0-0.8,0.4-1.6,1-2.1c0.6-0.5,1.4-0.8,2.2-0.8
	c0.8,0.1,1.6,0.4,2.1,1c0.5,0.6,0.8,1.4,0.8,2.2C190.6,541.8,189.2,543.1,187.6,543.1z M187.5,542.6c1.4,0.1,2.6-1,2.7-2.4
	c0-0.7-0.2-1.3-0.6-1.8c-0.5-0.5-1.1-0.8-1.8-0.9c-0.7-0.1-1.3,0.2-1.8,0.6s-0.8,1.1-0.9,1.8C185,541.3,186.1,542.5,187.5,542.6
	L187.5,542.6z"/>
<path class="st0" d="M484.4,364.5c-0.1,0-0.1,0-0.2,0l0,0c-1.7-0.1-3-1.6-2.9-3.2c0.1-0.8,0.4-1.6,1-2.1s1.4-0.8,2.2-0.8
	c0.8,0,1.6,0.4,2.1,1c0.5,0.6,0.8,1.4,0.8,2.2C487.3,363.3,486,364.5,484.4,364.5z M484.2,364c1.4,0.1,2.6-1,2.7-2.4
	c0-0.7-0.2-1.3-0.6-1.8s-1.1-0.8-1.8-0.9c-0.7,0-1.3,0.2-1.8,0.6c-0.5,0.5-0.8,1.1-0.9,1.8C481.8,362.7,482.8,363.9,484.2,364
	L484.2,364z"/>
<path class="st0" d="M340.3,370.2c-0.1,0-0.1,0-0.2,0c-0.8,0-1.6-0.4-2.1-1c-0.5-0.6-0.8-1.4-0.8-2.2c0-0.8,0.4-1.6,1-2.1
	c0.6-0.5,1.4-0.8,2.2-0.8c0.8,0,1.6,0.4,2.1,1c0.5,0.6,0.8,1.4,0.8,2.2c0,0.8-0.4,1.6-1,2.1C341.7,370,341,370.2,340.3,370.2z
	 M340.3,364.6c-0.6,0-1.2,0.2-1.7,0.6c-0.5,0.5-0.8,1.1-0.9,1.8c0,0.7,0.2,1.3,0.6,1.8c0.5,0.5,1.1,0.8,1.8,0.9l0,0
	c0.7,0,1.3-0.2,1.8-0.6c0.5-0.5,0.8-1.1,0.9-1.8c0-0.7-0.2-1.3-0.6-1.8c-0.5-0.5-1.1-0.8-1.8-0.9
	C340.4,364.6,340.3,364.6,340.3,364.6z"/>
<path class="st0" d="M481.8,449l-0.5-0.1c0.7-4.4,3-8.3,6.6-10.8c3.4-2.4,7.5-3.2,11.7-2.4l-0.1,0.5c-4-0.8-8,0-11.3,2.3
	C484.8,441,482.5,444.7,481.8,449z"/>
<path class="st0" d="M580.1,474.8c-1.6-3.7-4.6-6.5-8.3-8c-3.9-1.5-8.3-1.2-12.2,0.7l-0.2-0.5c4.1-2,8.5-2.2,12.6-0.7
	c3.9,1.5,6.9,4.4,8.6,8.2L580.1,474.8z"/>
<path class="st0" d="M222.3,526.7c-2.1-4-2.4-8.5-1-12.6c1.4-3.9,4.2-7.1,8-8.8l0.2,0.5c-3.7,1.7-6.4,4.7-7.7,8.5
	c-1.4,4-1,8.3,1,12.2L222.3,526.7z"/>
<path class="st0" d="M458.5,361.6c-0.7-4.4,0.3-8.8,2.9-12.3c2.5-3.3,6.2-5.4,10.3-5.9l0.1,0.5c-4,0.5-7.6,2.5-10,5.7
	c-2.5,3.4-3.5,7.6-2.8,11.9L458.5,361.6z"/>
<path class="st0" d="M142.2,303.5c-0.1,0-0.1,0-0.2,0c-0.8,0-1.6-0.4-2.1-1c-0.5-0.6-0.8-1.4-0.8-2.2c0-0.8,0.4-1.6,1-2.1
	c0.6-0.5,1.4-0.8,2.2-0.8c0.8,0,1.6,0.4,2.1,1s0.8,1.4,0.8,2.2C145.2,302.2,143.8,303.5,142.2,303.5z M142.2,297.9
	c-0.6,0-1.2,0.2-1.7,0.6c-0.5,0.5-0.8,1.1-0.9,1.8s0.2,1.3,0.6,1.8c0.5,0.5,1.1,0.8,1.8,0.9c1.4,0.1,2.6-1,2.7-2.4
	c0-0.7-0.2-1.3-0.6-1.8c-0.5-0.5-1.1-0.8-1.8-0.9C142.3,297.9,142.3,297.9,142.2,297.9z"/>
<path class="st0" d="M259.2,445.8c-4,0-7.6-1.4-10.5-4c-3.1-2.8-4.8-6.7-4.7-11h0.5c0,4.2,1.6,7.9,4.6,10.7
	c3.1,2.8,7.2,4.2,11.6,3.8l0,0.5C260.2,445.8,259.7,445.8,259.2,445.8z"/>
<path class="st0" d="M155.3,0c0,3.4-1,6.6-3,9.3c-2.4,3.2-6,5.2-10,5.7l0.1,0.5c4.2-0.5,7.8-2.6,10.3-5.9c2.1-2.8,3.2-6.1,3.1-9.6
	H155.3z"/>
<path class="st0" d="M595.3,292.7c-2.1-0.7-4.4-1-6.7-0.7c-4.3,0.5-8.2,2.8-10.9,6.4l0.4,0.3c2.6-3.5,6.3-5.7,10.5-6.2
	c2.3-0.3,4.6,0,6.7,0.8V292.7z"/>
<path class="st0" d="M416.6,595.3c0.5-1,1-2,1.7-3c2.4-3.2,6-5.2,10-5.7l-0.1-0.5c-4.2,0.5-7.8,2.6-10.3,5.9c-0.8,1-1.4,2.1-1.9,3.3
	H416.6z"/>
<path class="st0" d="M2.3,558.6c-0.5-0.6-1.3-1-2.1-1c-0.1,0-0.1,0-0.2,0v0.5c0.1,0,0.1,0,0.2,0c0.7,0,1.3,0.3,1.8,0.9
	c0.5,0.5,0.7,1.2,0.6,1.8c0,0.7-0.3,1.3-0.9,1.8c-0.5,0.4-1.1,0.6-1.7,0.6v0.5c0,0,0,0,0,0c0.7,0,1.5-0.3,2-0.8c0.6-0.5,1-1.3,1-2.1
	C3.1,560,2.8,559.2,2.3,558.6z"/>
</svg>
