<?xml version="1.0" encoding="utf-8"?>
<!-- Generator: Adobe Illustrator 25.3.1, SVG Export Plug-In . SVG Version: 6.00 Build 0)  -->
<svg version="1.1" id="Layer_2" xmlns="http://www.w3.org/2000/svg" xmlns:xlink="http://www.w3.org/1999/xlink" x="0px" y="0px"
	 viewBox="0 0 595.3 595.3" style="enable-background:new 0 0 595.3 595.3;" xml:space="preserve">
<style type="text/css">
	.st0{fill:#FFFFFF;}
</style>
<rect x="129.6" y="178.2" transform="matrix(0.6332 -0.774 0.774 0.6332 -88.4378 170.2903)" class="st0" width="11.6" height="0.5"/>
<rect x="560.5" y="159.8" transform="matrix(0.6332 -0.774 0.774 0.6332 83.8021 497.0162)" class="st0" width="11.6" height="0.5"/>
<rect x="125.6" y="69.7" transform="matrix(0.4271 -0.9042 0.9042 0.4271 3.8233 157.0589)" class="st0" width="0.5" height="11.6"/>
<rect x="83.6" y="127.8" transform="matrix(0.1268 -0.9919 0.9919 0.1268 -59.358 199.8345)" class="st0" width="0.5" height="11.6"/>
<rect x="250.5" y="19.3" transform="matrix(0.877 -0.4805 0.4805 0.877 22.1378 125.5616)" class="st0" width="11.6" height="0.5"/>
<rect x="469.3" y="139.9" transform="matrix(0.877 -0.4805 0.4805 0.877 -8.9124 245.5513)" class="st0" width="11.6" height="0.5"/>
<polygon class="st0" points="532.6,194.3 524.9,185.6 525.3,185.3 533,194 "/>
<rect x="38.7" y="177.3" transform="matrix(0.7522 -0.659 0.659 0.7522 -111.0509 71.0483)" class="st0" width="0.5" height="11.6"/>
<polygon class="st0" points="504.6,84.8 496.9,76 497.3,75.7 505,84.5 "/>
<rect x="452.9" y="222.7" transform="matrix(0.8812 -0.4728 0.4728 0.8812 -50.9211 243.3844)" class="st0" width="11.6" height="0.5"/>
<rect x="443.5" y="151.3" transform="matrix(0.5117 -0.8592 0.8592 0.5117 81.6822 457.9366)" class="st0" width="0.5" height="11.6"/>
<polygon class="st0" points="384.1,183 384.1,182.5 395.7,181.5 395.7,182 "/>
<rect x="142.5" y="30.5" transform="matrix(0.3714 -0.9285 0.9285 0.3714 64.6826 157.0925)" class="st0" width="11.6" height="0.5"/>
<rect x="282.1" y="41.1" transform="matrix(0.3868 -0.9221 0.9221 0.3868 138.4114 290.8333)" class="st0" width="11.6" height="0.5"/>
<g>
	
		<rect x="194.4" y="235.4" transform="matrix(0.9857 -0.1688 0.1688 0.9857 -37.9245 36.3021)" class="st0" width="0.5" height="11.6"/>
</g>
<rect x="556.9" y="69.7" transform="matrix(0.9897 -0.1429 0.1429 0.9897 -5.0726 80.3878)" class="st0" width="0.5" height="11.6"/>
<rect x="200.7" y="97.2" transform="matrix(0.9897 -0.1429 0.1429 0.9897 -12.6522 29.7763)" class="st0" width="0.5" height="11.6"/>
<rect x="229.5" y="184" transform="matrix(1 -3.815486e-03 3.815486e-03 1 -0.7225 0.8781)" class="st0" width="0.5" height="11.6"/>
<rect x="513.2" y="32.8" transform="matrix(0.7642 -0.645 0.645 0.7642 101.0733 342.5565)" class="st0" width="11.6" height="0.5"/>
<rect x="70.8" y="223.9" transform="matrix(0.9651 -0.2618 0.2618 0.9651 -56.0057 27.8681)" class="st0" width="11.6" height="0.5"/>
<rect x="434.4" y="91.8" transform="matrix(0.9224 -0.3862 0.3862 0.9224 -3.9673 175.4719)" class="st0" width="0.5" height="11.6"/>
<rect x="144.6" y="131.3" transform="matrix(0.5117 -0.8592 0.8592 0.5117 -47.0455 191.3866)" class="st0" width="0.5" height="11.6"/>
<rect x="40.1" y="64" transform="matrix(0.9651 -0.2618 0.2618 0.9651 -15.2201 14.2611)" class="st0" width="11.6" height="0.5"/>
<polygon class="st0" points="371.6,152.6 364.3,143.6 364.7,143.2 372,152.3 "/>
<polygon class="st0" points="371.6,583.1 364.3,574.1 364.7,573.7 372,582.8 "/>
<rect x="325.2" y="216.6" transform="matrix(0.6331 -0.7741 0.7741 0.6331 -52.7583 333.5632)" class="st0" width="0.5" height="11.6"/>
<rect x="467.3" y="35.3" transform="matrix(0.1777 -0.9841 0.9841 0.1777 354.0279 494.8102)" class="st0" width="11.6" height="0.5"/>
<rect x="233.3" y="522.5" transform="matrix(0.8774 -0.4797 0.4797 0.8774 -221.441 178.7406)" class="st0" width="11.6" height="0.5"/>
<g>
	
		<rect x="18.9" y="501.3" transform="matrix(0.919 -0.3943 0.3943 0.919 -198.3999 48.6174)" class="st0" width="0.5" height="11.6"/>
</g>
<rect x="125.3" y="533.7" transform="matrix(0.3714 -0.9285 0.9285 0.3714 -413.3557 457.3984)" class="st0" width="11.6" height="0.5"/>
<rect x="264.8" y="544.3" transform="matrix(0.3868 -0.9221 0.9221 0.3868 -336.1768 583.4774)" class="st0" width="11.6" height="0.5"/>
<rect x="417.2" y="501.4" transform="matrix(0.8269 -0.5624 0.5624 0.8269 -212.9601 322.5801)" class="st0" width="0.5" height="11.6"/>
<rect x="496" y="536" transform="matrix(0.7634 -0.6459 0.6459 0.7634 -227.6476 451.0112)" class="st0" width="11.6" height="0.5"/>
<polygon class="st0" points="455.1,544.5 454.6,544.4 456.6,533 457.1,533.1 "/>
<rect x="407.2" y="51.7" transform="matrix(0.9549 -0.2968 0.2968 0.9549 3.1942 124.9342)" class="st0" width="11.6" height="0.5"/>
<rect x="441.2" y="316.2" transform="matrix(0.6332 -0.774 0.774 0.6332 -80.9313 462.0366)" class="st0" width="11.6" height="0.5"/>
<rect x="10.4" y="334.5" transform="matrix(0.6332 -0.774 0.774 0.6332 -253.1714 135.3108)" class="st0" width="11.6" height="0.5"/>
<rect x="456.4" y="413.5" transform="matrix(0.427 -0.9042 0.9042 0.427 -117.5457 653.2114)" class="st0" width="0.5" height="11.6"/>
<polygon class="st0" points="504.4,362.2 492.9,360.7 492.9,360.3 504.5,361.7 "/>
<polygon class="st0" points="582.7,280.8 571.2,279.3 571.3,278.8 582.8,280.3 "/>
<rect x="320.4" y="475.1" transform="matrix(0.8774 -0.4797 0.4797 0.8774 -188.0268 214.7121)" class="st0" width="11.6" height="0.5"/>
<rect x="101.5" y="354.4" transform="matrix(0.877 -0.4805 0.4805 0.877 -157.2207 95.2043)" class="st0" width="11.6" height="0.5"/>
<rect x="53.3" y="299.2" transform="matrix(0.7522 -0.659 0.659 0.7522 -187.7589 110.8964)" class="st0" width="0.5" height="11.6"/>
<polygon class="st0" points="547.2,316.2 539.5,307.5 539.9,307.2 547.6,315.9 "/>
<rect x="81.3" y="408.8" transform="matrix(0.7522 -0.659 0.659 0.7522 -253.0169 156.4962)" class="st0" width="0.5" height="11.6"/>
<rect x="118" y="271.6" transform="matrix(0.8812 -0.4728 0.4728 0.8812 -113.8378 90.8406)" class="st0" width="11.6" height="0.5"/>
<rect x="138.5" y="331.9" transform="matrix(0.5117 -0.8592 0.8592 0.5117 -222.4259 284.1579)" class="st0" width="0.5" height="11.6"/>
<rect x="186.8" y="312.4" transform="matrix(0.9958 -9.176800e-02 9.176800e-02 0.9958 -27.8769 18.9936)" class="st0" width="11.6" height="0.5"/>
<g>
	
		<rect x="545.9" y="485.1" transform="matrix(0.919 -0.3944 0.3944 0.919 -149.3526 255.1726)" class="st0" width="0.5" height="11.6"/>
</g>
<rect x="428.3" y="463.8" transform="matrix(0.3707 -0.9287 0.9287 0.3707 -157.8265 695.2504)" class="st0" width="11.6" height="0.5"/>
<rect x="288.8" y="453.3" transform="matrix(0.3868 -0.9221 0.9221 0.3868 -237.587 549.7529)" class="st0" width="11.6" height="0.5"/>
<rect x="147.6" y="485.1" transform="matrix(0.8269 -0.5624 0.5624 0.8269 -250.4703 168.1032)" class="st0" width="0.5" height="11.6"/>
<g>
	
		<rect x="387.6" y="247.8" transform="matrix(0.9856 -0.1688 0.1688 0.9856 -37.2435 69.1171)" class="st0" width="0.5" height="11.6"/>
</g>
<rect x="25.1" y="413.5" transform="matrix(0.9897 -0.1429 0.1429 0.9897 -59.6565 7.9213)" class="st0" width="0.5" height="11.6"/>
<rect x="381.3" y="386.1" transform="matrix(0.9897 -0.1429 0.1429 0.9897 -52.0818 58.5338)" class="st0" width="0.5" height="11.6"/>
<rect x="352.5" y="299.2" transform="matrix(1 -3.773400e-03 3.773400e-03 1 -1.1486 1.3331)" class="st0" width="0.5" height="11.6"/>
<polygon class="st0" points="59.2,465.8 58.9,465.4 67.7,457.9 68.1,458.3 "/>
<rect x="500.1" y="270.5" transform="matrix(0.9651 -0.2618 0.2618 0.9651 -53.2328 141.8857)" class="st0" width="11.6" height="0.5"/>
<rect x="147.6" y="391.4" transform="matrix(0.9224 -0.3863 0.3863 0.9224 -141.9873 87.9375)" class="st0" width="0.5" height="11.6"/>
<rect x="437.4" y="352" transform="matrix(0.5117 -0.8591 0.8591 0.5117 -93.7049 550.6887)" class="st0" width="0.5" height="11.6"/>
<rect x="530.8" y="430.4" transform="matrix(0.9651 -0.2618 0.2618 0.9651 -94.0184 155.4928)" class="st0" width="11.6" height="0.5"/>
<rect x="214.1" y="341.1" transform="matrix(0.7747 -0.6323 0.6323 0.7747 -171.0967 213.6998)" class="st0" width="0.5" height="11.6"/>
<rect x="256.8" y="266.6" transform="matrix(0.6331 -0.774 0.774 0.6331 -116.5851 298.8847)" class="st0" width="0.5" height="11.6"/>
<polygon class="st0" points="108.6,465.1 108.1,465 110.2,453.5 110.7,453.6 "/>
<rect x="163.7" y="442.7" transform="matrix(0.9551 -0.2963 0.2963 0.9551 -123.6171 70.1017)" class="st0" width="11.6" height="0.5"/>
<polygon class="st0" points="431.7,0 437.8,8.9 438.2,8.7 432.3,0 "/>
<polygon class="st0" points="34.4,0 38.4,9.4 38.9,9.2 34.9,0 "/>
<polygon class="st0" points="0,214.5 0,215 8.2,216.1 8.2,215.6 "/>
<polygon class="st0" points="97.8,595.3 98.1,591.5 97.6,591.4 97.3,595.3 "/>
<polygon class="st0" points="595.3,562.1 593,562.7 593.1,563.2 595.3,562.6 "/>
</svg>
