<?xml version="1.0" encoding="utf-8"?>
<!-- Generator: Adobe Illustrator 25.3.1, SVG Export Plug-In . SVG Version: 6.00 Build 0)  -->
<svg version="1.1" id="Layer_2" xmlns="http://www.w3.org/2000/svg" xmlns:xlink="http://www.w3.org/1999/xlink" x="0px" y="0px"
	 viewBox="0 0 595.3 595.3" style="enable-background:new 0 0 595.3 595.3;" xml:space="preserve">
<style type="text/css">
	.st0{fill:#FFFFFF;}
</style>
<rect x="93.5" y="270.5" transform="matrix(0.919 -0.3942 0.3942 0.919 -102.2051 59.5289)" class="st0" width="0.5" height="16.1"/>
<g>
	<path class="st0" d="M324.8,109.5c-0.3,0-0.5,0-0.8,0c-2.4-0.2-4.6-1.4-6.2-3.2c-3.2-3.9-2.7-9.6,1.1-12.9c3.7-3.1,4.6-3.8,4.7-3.8
		c3.6-3,4.1-8.5,1-12.2c-1.5-1.8-3.6-2.9-5.9-3.1c-2.3-0.2-4.5,0.5-6.3,2l-0.3-0.4c1.9-1.6,4.2-2.3,6.7-2.1s4.6,1.4,6.2,3.2
		c3.2,3.9,2.7,9.6-1.1,12.9c0,0-1,0.7-4.7,3.8c-3.6,3.1-4.1,8.5-1,12.2c1.5,1.8,3.6,2.9,5.9,3.1c2.3,0.2,4.5-0.5,6.3-2l0.3,0.4
		C329,108.7,326.9,109.5,324.8,109.5z"/>
	<path class="st0" d="M170.3,260.7c-2.2-1.1-3.8-3-4.5-5.3c-0.8-2.3-0.6-4.8,0.6-7c2.3-4.5,7.8-6.3,12.3-4c0,0,1,0.6,5.3,2.8
		c4.2,2.2,9.4,0.5,11.6-3.8c1.1-2.1,1.2-4.4,0.5-6.6c-0.7-2.2-2.2-4-4.3-5l0.2-0.4c2.2,1.1,3.8,3,4.5,5.3c0.8,2.3,0.6,4.8-0.6,7
		c-2.3,4.5-7.8,6.3-12.3,4c-4.3-2.2-5.3-2.8-5.4-2.8c-4.2-2.1-9.4-0.4-11.6,3.8c-1.1,2.1-1.2,4.4-0.5,6.6c0.7,2.2,2.2,4,4.3,5
		L170.3,260.7z"/>
	<path class="st0" d="M249.5,135c-0.2,0-0.4,0-0.7,0c-5-0.4-8.8-4.7-8.5-9.7c0.3-4.8,0.5-6,0.5-6c0.3-4.7-3.3-8.9-8-9.2
		c-2.3-0.2-4.5,0.6-6.3,2.1c-1.7,1.5-2.8,3.6-2.9,5.9l-0.5,0c0.2-2.4,1.3-4.6,3.1-6.2c1.8-1.6,4.2-2.4,6.6-2.2
		c5,0.4,8.8,4.7,8.5,9.7c0,0-0.2,1.2-0.5,6c-0.3,4.7,3.3,8.9,8,9.2c2.3,0.2,4.5-0.6,6.3-2.1c1.7-1.5,2.8-3.6,2.9-5.9l0.5,0
		c-0.2,2.4-1.3,4.6-3.1,6.2C253.8,134.2,251.7,135,249.5,135z"/>
	<path class="st0" d="M36,105.7c-2.3,0-4.5-0.9-6.2-2.5c-3.7-3.4-3.9-9.2-0.5-12.9c3.3-3.6,4.1-4.3,4.2-4.4c3.2-3.5,3-8.9-0.5-12.2
		c-1.7-1.6-3.9-2.4-6.2-2.3c-2.3,0.1-4.4,1.1-6,2.7l-0.4-0.3c1.7-1.8,3.9-2.8,6.3-2.9c2.4-0.1,4.8,0.8,6.6,2.5
		c3.7,3.4,3.9,9.2,0.5,12.9c0,0-0.9,0.8-4.2,4.4c-3.2,3.5-3,9,0.4,12.2c1.7,1.6,3.9,2.4,6.2,2.3c2.3-0.1,4.4-1,6-2.7l0.4,0.3
		c-1.7,1.8-3.9,2.8-6.4,2.9C36.2,105.7,36.1,105.7,36,105.7z"/>
	<path class="st0" d="M463.4,250.8c-2.2-1.1-3.7-3-4.5-5.3c-0.7-2.3-0.5-4.8,0.6-7c2.3-4.5,7.9-6.2,12.3-3.9
		c4.3,2.2,5.3,2.8,5.3,2.9c4.2,2.2,9.4,0.5,11.6-3.7c1.1-2.1,1.3-4.4,0.6-6.6c-0.7-2.2-2.2-4-4.2-5l0.2-0.4c2.2,1.1,3.7,3,4.5,5.3
		c0.7,2.3,0.5,4.8-0.6,7c-2.3,4.5-7.9,6.2-12.3,3.9c0,0-1-0.6-5.3-2.9c-4.2-2.2-9.4-0.5-11.6,3.7c-1.1,2.1-1.3,4.4-0.6,6.6
		c0.7,2.2,2.2,4,4.2,5L463.4,250.8z"/>
</g>
<g>
	
		<rect x="571.3" y="266.5" transform="matrix(0.8697 -0.4935 0.4935 0.8697 -65.4279 318.986)" class="st0" width="0.5" height="33.9"/>
	
		<rect x="5" y="246.7" transform="matrix(0.7478 -0.6639 0.6639 0.7478 -158.4193 76.8697)" class="st0" width="33.9" height="0.5"/>
</g>
<rect x="162.2" y="5.2" transform="matrix(0.7124 -0.7018 0.7018 0.7124 31.1366 120.3654)" class="st0" width="0.5" height="33.9"/>
<rect x="204.4" y="164.1" transform="matrix(0.4135 -0.9105 0.9105 0.4135 -44.8587 292.4838)" class="st0" width="0.5" height="33.9"/>
<rect x="303.2" y="242.3" transform="matrix(0.7478 -0.6639 0.6639 0.7478 -80.3164 273.7441)" class="st0" width="33.9" height="0.5"/>
<rect x="415.7" y="254" transform="matrix(0.6485 -0.7612 0.7612 0.6485 -60.0979 411.8727)" class="st0" width="0.5" height="33.9"/>
<rect x="213.5" y="56.8" transform="matrix(0.5937 -0.8047 0.8047 0.5937 47.7468 208.6338)" class="st0" width="33.9" height="0.5"/>
<rect x="137.7" y="21.7" transform="matrix(0.9968 -7.973779e-02 7.973779e-02 0.9968 -2.641 11.1248)" class="st0" width="0.5" height="33.9"/>
<g>
	<path class="st0" d="M187.8,145.6c-0.4,0-0.8-0.1-1.2-0.2c-1.8-0.7-2.7-2.7-2-4.5c0.7-1.8,2.7-2.7,4.5-2c1.8,0.7,2.7,2.7,2,4.5
		C190.5,144.8,189.2,145.6,187.8,145.6z M187.8,139.2c-1.2,0-2.3,0.7-2.8,1.9c-0.6,1.5,0.2,3.2,1.7,3.8c1.5,0.6,3.2-0.2,3.8-1.7v0
		c0.6-1.5-0.2-3.2-1.7-3.8C188.5,139.3,188.1,139.2,187.8,139.2z"/>
	<path class="st0" d="M36,181c-0.4,0-0.8-0.1-1.2-0.2c-0.9-0.3-1.5-1-1.9-1.8c-0.4-0.8-0.4-1.8-0.1-2.6c0.7-1.8,2.7-2.7,4.5-2
		c1.8,0.7,2.7,2.7,2,4.5l0,0C38.7,180.2,37.4,181,36,181z M36.1,174.6c-1.2,0-2.3,0.7-2.8,1.9c-0.3,0.7-0.3,1.5,0.1,2.3
		c0.3,0.7,0.9,1.3,1.6,1.6c0.7,0.3,1.5,0.3,2.3-0.1c0.7-0.3,1.3-0.9,1.6-1.6l0,0c0.6-1.5-0.2-3.2-1.7-3.8
		C36.8,174.7,36.4,174.6,36.1,174.6z"/>
	<path class="st0" d="M365.9,239.6c-0.4,0-0.8-0.1-1.2-0.2c-0.9-0.3-1.5-1-1.9-1.8c-0.4-0.8-0.4-1.8-0.1-2.6c0.7-1.8,2.7-2.7,4.5-2
		c1.8,0.7,2.7,2.7,2,4.5c-0.3,0.9-1,1.5-1.8,1.9C366.8,239.5,366.3,239.6,365.9,239.6z M365.9,233.2c-1.2,0-2.3,0.7-2.8,1.9
		c-0.3,0.7-0.3,1.5,0.1,2.3c0.3,0.7,0.9,1.3,1.6,1.6c0.7,0.3,1.5,0.3,2.3-0.1c0.7-0.3,1.3-0.9,1.6-1.6c0.6-1.5-0.2-3.2-1.7-3.8
		C366.6,233.3,366.2,233.2,365.9,233.2z"/>
	<path class="st0" d="M540.7,257.6c-0.4,0-0.8-0.1-1.2-0.2c-0.9-0.3-1.5-1-1.9-1.8c-0.4-0.8-0.4-1.8-0.1-2.6c0.7-1.8,2.7-2.7,4.5-2
		c1.8,0.7,2.7,2.7,2,4.5l0,0c-0.3,0.9-1,1.5-1.8,1.9C541.7,257.5,541.2,257.6,540.7,257.6z M540.7,251.2c-1.2,0-2.3,0.7-2.8,1.9
		c-0.3,0.7-0.3,1.5,0.1,2.3c0.3,0.7,0.9,1.3,1.6,1.6c0.7,0.3,1.5,0.3,2.3-0.1c0.7-0.3,1.3-0.9,1.6-1.6c0.6-1.5-0.2-3.2-1.7-3.8
		C541.4,251.2,541.1,251.2,540.7,251.2z"/>
	<path class="st0" d="M540.7,51.5c-0.4,0-0.8-0.1-1.2-0.2c-1.8-0.7-2.7-2.7-2-4.5c0.7-1.8,2.7-2.7,4.5-2c1.8,0.7,2.7,2.7,2,4.5
		c-0.3,0.9-1,1.5-1.8,1.9C541.7,51.4,541.2,51.5,540.7,51.5z M540.7,45.1c-1.2,0-2.3,0.7-2.8,1.9c-0.6,1.5,0.2,3.2,1.7,3.8
		c0.7,0.3,1.5,0.3,2.3-0.1c0.7-0.3,1.3-0.9,1.6-1.6c0.6-1.5-0.2-3.2-1.7-3.8C541.4,45.2,541.1,45.1,540.7,45.1z"/>
	<path class="st0" d="M216.1,49c-0.4,0-0.8-0.1-1.2-0.2c-1.8-0.7-2.7-2.7-2-4.5c0.7-1.8,2.7-2.7,4.5-2c1.8,0.7,2.7,2.7,2,4.5v0
		C218.8,48.1,217.5,49,216.1,49z M216.1,42.6c-1.2,0-2.3,0.7-2.8,1.9c-0.6,1.5,0.2,3.2,1.7,3.8c1.5,0.6,3.2-0.2,3.8-1.7
		c0.6-1.5-0.2-3.2-1.7-3.8C216.8,42.6,216.5,42.6,216.1,42.6z"/>
	<path class="st0" d="M347.6,54c-0.4,0-0.8-0.1-1.2-0.2c-1.8-0.7-2.7-2.7-2-4.5c0.7-1.8,2.7-2.7,4.5-2c1.8,0.7,2.7,2.7,2,4.5l0,0
		c-0.3,0.9-1,1.5-1.8,1.9C348.6,53.9,348.1,54,347.6,54z M347.6,47.6c-1.2,0-2.3,0.7-2.8,1.9c-0.6,1.5,0.2,3.2,1.7,3.8
		c0.7,0.3,1.5,0.3,2.3-0.1c0.7-0.3,1.3-0.9,1.6-1.6l0,0c0.6-1.5-0.2-3.2-1.7-3.8C348.3,47.7,348,47.6,347.6,47.6z"/>
	<path class="st0" d="M490.1,78.9c-0.4,0-0.8-0.1-1.2-0.2c-1.8-0.7-2.7-2.7-2-4.5c0.7-1.8,2.7-2.7,4.5-2c1.8,0.7,2.7,2.7,2,4.5
		c-0.3,0.9-1,1.5-1.8,1.9C491,78.8,490.6,78.9,490.1,78.9z M490.1,72.5c-1.2,0-2.3,0.7-2.8,1.9c-0.6,1.5,0.2,3.2,1.7,3.8
		c0.7,0.3,1.5,0.3,2.3-0.1c0.7-0.3,1.3-0.9,1.6-1.6c0.6-1.5-0.2-3.2-1.7-3.8C490.8,72.6,490.4,72.5,490.1,72.5z"/>
</g>
<rect x="495.8" y="315.3" transform="matrix(0.919 -0.3943 0.3943 0.919 -87.3237 221.7482)" class="st0" width="0.5" height="16.1"/>
<g>
	<path class="st0" d="M271.8,528.2c-0.3,0-0.5,0-0.8,0c-2.4-0.2-4.6-1.4-6.2-3.2c-3.2-3.9-2.7-9.6,1.1-12.9c0,0,1-0.7,4.7-3.8
		c3.6-3.1,4.1-8.5,1-12.2c-1.5-1.8-3.6-2.9-5.9-3.1c-2.3-0.2-4.5,0.5-6.3,2l-0.3-0.4c1.9-1.6,4.2-2.3,6.6-2.1
		c2.4,0.2,4.6,1.4,6.2,3.2c3.2,3.9,2.7,9.6-1.1,12.9c-3.7,3.1-4.6,3.8-4.7,3.8c-3.6,3-4.1,8.5-1,12.2c1.5,1.8,3.6,2.9,5.9,3.1
		c2.3,0.2,4.5-0.5,6.3-2l0.3,0.4C276,527.4,274,528.2,271.8,528.2z"/>
	<path class="st0" d="M541.7,152.6c-0.3,0-0.5,0-0.8,0c-2.4-0.2-4.6-1.4-6.2-3.2c-3.2-3.9-2.7-9.6,1.1-12.9c0,0,1-0.7,4.7-3.8
		c3.6-3.1,4.1-8.5,1-12.2c-1.5-1.8-3.6-2.9-5.9-3.1c-2.3-0.2-4.5,0.5-6.3,2L529,119c1.9-1.6,4.2-2.3,6.6-2.1
		c2.4,0.2,4.6,1.4,6.2,3.2c3.2,3.9,2.7,9.6-1.1,12.9c-3.7,3.1-4.6,3.8-4.7,3.8c-3.6,3-4.1,8.5-1,12.2c1.5,1.8,3.6,2.9,5.9,3.1
		c2.3,0.2,4.5-0.5,6.3-2l0.3,0.4C545.9,151.9,543.8,152.6,541.7,152.6z"/>
	<path class="st0" d="M397.8,370.6c-2.2-1.1-3.8-3-4.5-5.3c-0.8-2.3-0.6-4.8,0.6-7c2.3-4.5,7.8-6.3,12.3-4c4.3,2.2,5.3,2.8,5.4,2.8
		c4.2,2.1,9.4,0.4,11.6-3.8c1.1-2.1,1.2-4.4,0.5-6.6c-0.7-2.2-2.2-4-4.3-5l0.2-0.4c2.2,1.1,3.8,3,4.5,5.3c0.8,2.3,0.6,4.8-0.6,7
		c-2.3,4.5-7.8,6.3-12.3,4c0,0-1-0.6-5.3-2.8c-4.2-2.2-9.4-0.5-11.6,3.8c-1.1,2.1-1.2,4.4-0.5,6.6c0.7,2.2,2.2,4,4.3,5L397.8,370.6z
		"/>
	<path class="st0" d="M357.6,492.4c-0.2,0-0.4,0-0.7,0c-5-0.4-8.8-4.7-8.5-9.7c0,0,0.2-1.2,0.5-6c0.3-4.7-3.3-8.9-8-9.2
		c-2.3-0.2-4.5,0.6-6.3,2.1c-1.7,1.5-2.8,3.6-2.9,5.9l-0.5,0c0.2-2.4,1.3-4.6,3.1-6.2c1.8-1.6,4.2-2.4,6.6-2.2
		c5,0.4,8.8,4.7,8.5,9.7c-0.3,4.8-0.5,6-0.5,6c-0.3,4.7,3.3,8.9,8,9.2c2.3,0.2,4.5-0.6,6.3-2.1c1.7-1.5,2.8-3.6,2.9-5.9l0.5,0
		c-0.2,2.4-1.3,4.6-3.1,6.2C361.9,491.6,359.8,492.4,357.6,492.4z"/>
	<path class="st0" d="M562.7,531c-2.3,0-4.5-0.9-6.2-2.5c-3.7-3.4-3.9-9.2-0.5-12.9c0,0,0.9-0.8,4.2-4.4c3.2-3.5,3-9-0.4-12.2
		c-1.7-1.6-3.9-2.4-6.2-2.3c-2.3,0.1-4.4,1-6,2.7l-0.4-0.3c1.7-1.8,3.9-2.8,6.4-2.9c2.4-0.1,4.8,0.8,6.5,2.5
		c3.7,3.4,3.9,9.2,0.5,12.9c-3.3,3.6-4.1,4.3-4.2,4.4c-3.2,3.5-3,8.9,0.5,12.2c1.7,1.6,3.9,2.4,6.2,2.3c2.3-0.1,4.4-1,6-2.7l0.4,0.3
		c-1.7,1.8-3.9,2.8-6.3,2.9C562.9,531,562.8,531,562.7,531z"/>
	<path class="st0" d="M98.4,435.4c-2.2-1.1-3.7-3-4.5-5.3c-0.7-2.3-0.5-4.8,0.6-7c2.3-4.5,7.9-6.2,12.3-3.9c0,0,1,0.6,5.3,2.9
		c4.2,2.2,9.4,0.5,11.6-3.7c1.1-2.1,1.3-4.4,0.6-6.6c-0.7-2.2-2.2-4-4.2-5l0.2-0.4c2.2,1.1,3.7,3,4.5,5.3c0.7,2.3,0.5,4.8-0.6,7
		c-2.3,4.5-7.9,6.2-12.3,3.9c-4.3-2.2-5.3-2.8-5.3-2.9c-4.2-2.2-9.4-0.5-11.6,3.7c-1.1,2.1-1.3,4.4-0.6,6.6c0.7,2.2,2.2,4,4.2,5
		L98.4,435.4z"/>
</g>
<g>
	
		<rect x="18" y="301.5" transform="matrix(0.8697 -0.4935 0.4935 0.8697 -154.8058 50.5129)" class="st0" width="0.5" height="33.9"/>
	
		<rect x="550.8" y="354.7" transform="matrix(0.7478 -0.6639 0.6639 0.7478 -92.4588 466.4557)" class="st0" width="33.9" height="0.5"/>
</g>
<polygon class="st0" points="439.1,592 415.3,567.8 415.6,567.5 439.5,591.6 "/>
<rect x="384.9" y="403.9" transform="matrix(0.4135 -0.9105 0.9105 0.4135 -157.287 597.517)" class="st0" width="0.5" height="33.9"/>
<rect x="308.3" y="314.3" transform="matrix(0.7478 -0.6639 0.6639 0.7478 -126.8204 295.289)" class="st0" width="33.9" height="0.5"/>
<rect x="173.6" y="313.9" transform="matrix(0.6485 -0.7612 0.7612 0.6485 -190.7741 248.6867)" class="st0" width="0.5" height="33.9"/>
<rect x="342.3" y="544.6" transform="matrix(0.5937 -0.8047 0.8047 0.5937 -292.4742 510.4843)" class="st0" width="33.9" height="0.5"/>
<g>
	<path class="st0" d="M402,463.2c-0.4,0-0.8-0.1-1.2-0.2c-1.8-0.7-2.7-2.7-2-4.5c0.7-1.8,2.7-2.7,4.5-2c0.9,0.3,1.5,1,1.9,1.8
		c0.4,0.8,0.4,1.8,0.1,2.6C404.7,462.4,403.4,463.2,402,463.2z M402,456.8c-0.4,0-0.8,0.1-1.2,0.3c-0.7,0.3-1.3,0.9-1.6,1.6
		c-0.6,1.5,0.2,3.2,1.7,3.8c1.5,0.6,3.2-0.2,3.8-1.7c0.3-0.7,0.3-1.5-0.1-2.3c-0.3-0.7-0.9-1.3-1.6-1.6
		C402.7,456.9,402.4,456.8,402,456.8z"/>
	<path class="st0" d="M553.7,427.8c-0.4,0-0.8-0.1-1.2-0.2c-1.8-0.7-2.7-2.7-2-4.5c0.3-0.9,1-1.5,1.8-1.9c0.8-0.4,1.8-0.4,2.6-0.1
		c1.8,0.7,2.7,2.7,2,4.5C556.4,427,555.1,427.8,553.7,427.8z M553.7,421.4c-0.4,0-0.8,0.1-1.2,0.3c-0.7,0.3-1.3,0.9-1.6,1.6
		c-0.6,1.5,0.2,3.2,1.7,3.8c1.5,0.6,3.2-0.2,3.8-1.7c0.6-1.5-0.2-3.2-1.7-3.8C554.5,421.5,554.1,421.4,553.7,421.4z"/>
	<path class="st0" d="M223.9,369.2c-0.4,0-0.8-0.1-1.2-0.2c-1.8-0.7-2.7-2.7-2-4.5c0.3-0.9,1-1.5,1.8-1.9c0.8-0.4,1.8-0.4,2.6-0.1
		c1.8,0.7,2.7,2.7,2,4.5C226.6,368.3,225.3,369.2,223.9,369.2z M223.9,362.8c-0.4,0-0.8,0.1-1.2,0.3c-0.7,0.3-1.3,0.9-1.6,1.6v0
		c-0.6,1.5,0.2,3.2,1.7,3.8c1.5,0.6,3.2-0.2,3.8-1.7c0.6-1.5-0.2-3.2-1.7-3.8C224.6,362.8,224.3,362.8,223.9,362.8z"/>
	<path class="st0" d="M49.1,351.2c-0.4,0-0.8-0.1-1.2-0.2c-1.8-0.7-2.7-2.7-2-4.5c0.3-0.9,1-1.5,1.8-1.9c0.8-0.4,1.8-0.4,2.6-0.1
		c1.8,0.7,2.7,2.7,2,4.5C51.8,350.4,50.5,351.2,49.1,351.2z M49.1,344.8c-0.4,0-0.8,0.1-1.2,0.3c-0.7,0.3-1.3,0.9-1.6,1.6v0
		c-0.6,1.5,0.2,3.2,1.7,3.8c1.5,0.6,3.2-0.2,3.8-1.7c0.6-1.5-0.2-3.2-1.7-3.8C49.8,344.9,49.4,344.8,49.1,344.8z"/>
	<path class="st0" d="M49.1,557.3c-0.4,0-0.8-0.1-1.2-0.2c-1.8-0.7-2.7-2.7-2-4.5c0.7-1.8,2.7-2.7,4.5-2c0.9,0.3,1.5,1,1.9,1.8
		c0.4,0.8,0.4,1.8,0.1,2.6C51.8,556.4,50.5,557.3,49.1,557.3z M49.1,550.9c-1.2,0-2.3,0.7-2.8,1.9l0,0c-0.6,1.5,0.2,3.2,1.7,3.8
		c1.5,0.6,3.2-0.2,3.8-1.7c0.3-0.7,0.3-1.5-0.1-2.3c-0.3-0.7-0.9-1.3-1.6-1.6C49.8,551,49.4,550.9,49.1,550.9z"/>
	<path class="st0" d="M373.6,559.8c-0.4,0-0.8-0.1-1.2-0.2c-1.8-0.7-2.7-2.7-2-4.5l0,0c0.3-0.9,1-1.5,1.8-1.9
		c0.8-0.4,1.8-0.4,2.6-0.1c0.9,0.3,1.5,1,1.9,1.8c0.4,0.8,0.4,1.8,0.1,2.6C376.3,559,375,559.8,373.6,559.8z M373.6,553.4
		c-0.4,0-0.8,0.1-1.2,0.3c-0.7,0.3-1.3,0.9-1.6,1.6l0,0c-0.6,1.5,0.2,3.2,1.7,3.8c1.5,0.6,3.2-0.2,3.8-1.7c0.3-0.7,0.3-1.5-0.1-2.3
		c-0.3-0.7-0.9-1.3-1.6-1.6C374.4,553.5,374,553.4,373.6,553.4z"/>
	<path class="st0" d="M242.1,554.8c-0.4,0-0.8-0.1-1.2-0.2c-1.8-0.7-2.7-2.7-2-4.5l0,0c0.7-1.8,2.7-2.7,4.5-2c1.8,0.7,2.7,2.7,2,4.5
		C244.8,553.9,243.5,554.8,242.1,554.8z M239.4,550.3c-0.6,1.5,0.2,3.2,1.7,3.8c1.5,0.6,3.2-0.2,3.8-1.7c0.6-1.5-0.2-3.2-1.7-3.8
		C241.7,548,240,548.8,239.4,550.3L239.4,550.3z"/>
	<path class="st0" d="M99.7,529.9c-0.4,0-0.8-0.1-1.2-0.2c-1.8-0.7-2.7-2.7-2-4.5c0.3-0.9,1-1.5,1.8-1.9c0.8-0.4,1.8-0.4,2.6-0.1
		c0.9,0.3,1.5,1,1.9,1.8c0.4,0.8,0.4,1.8,0.1,2.6C102.4,529,101.1,529.9,99.7,529.9z M99.7,523.5c-0.4,0-0.8,0.1-1.2,0.3
		c-0.7,0.3-1.3,0.9-1.6,1.6c-0.6,1.5,0.2,3.2,1.7,3.8c1.5,0.6,3.2-0.2,3.8-1.7c0.3-0.7,0.3-1.5-0.1-2.3c-0.3-0.7-0.9-1.3-1.6-1.6
		C100.4,523.6,100.1,523.5,99.7,523.5z"/>
</g>
<rect x="395.6" y="124.4" transform="matrix(0.6485 -0.7612 0.7612 0.6485 31.5282 351.0178)" class="st0" width="0.5" height="33.9"/>
<rect x="186.8" y="432.1" transform="matrix(0.4135 -0.9105 0.9105 0.4135 -299.1453 433.6844)" class="st0" width="0.5" height="33.9"/>
<polygon class="st0" points="481.1,484.4 478.4,450.6 478.9,450.6 481.6,484.4 "/>
<polygon class="st0" points="595.3,238.8 573.5,228.9 573.3,229.4 595.3,239.4 "/>
<polygon class="st0" points="410.2,0 418.1,26.4 418.6,26.3 410.7,0 "/>
<polygon class="st0" points="0,341.2 0,341.7 15.3,348.7 15.6,348.2 "/>
<polygon class="st0" points="167.5,595.3 161,573.3 160.5,573.5 167,595.3 "/>
</svg>
