<?xml version="1.0" encoding="utf-8"?>
<!-- Generator: Adobe Illustrator 25.3.1, SVG Export Plug-In . SVG Version: 6.00 Build 0)  -->
<svg version="1.1" id="Layer_2" xmlns="http://www.w3.org/2000/svg" xmlns:xlink="http://www.w3.org/1999/xlink" x="0px" y="0px"
	 viewBox="0 0 595.3 595.3" style="enable-background:new 0 0 595.3 595.3;" xml:space="preserve">
<style type="text/css">
	.st0{fill:#FFFFFF;}
</style>
<polygon class="st0" points="59.1,369.4 49.2,361.6 39.3,369.4 29.4,361.6 19.5,369.4 9.4,361.5 9.8,361 19.5,368.7 29.4,360.9 
	39.3,368.7 49.2,360.9 59.1,368.7 69,360.9 78.9,368.7 88.8,360.9 98.8,368.8 98.5,369.3 88.8,361.6 78.9,369.4 69,361.6 "/>
<polygon class="st0" points="79.6,355 69.7,347.2 59.8,355 49.9,347.2 40,355 29.9,347 30.3,346.6 40,354.2 49.9,346.4 59.8,354.2 
	69.7,346.4 79.6,354.2 89.5,346.4 99.4,354.2 109.3,346.4 119.4,354.4 119,354.9 109.3,347.2 99.4,355 89.5,347.2 "/>
<polygon class="st0" points="56.7,340.6 46.8,332.8 36.9,340.6 27.1,332.8 17.2,340.6 7.1,332.6 7.5,332.1 17.2,339.8 27.1,332 
	36.9,339.8 46.8,332 56.7,339.8 66.6,332 76.5,339.8 86.4,332 96.5,340 96.1,340.4 86.4,332.8 76.5,340.6 66.6,332.8 "/>
<polygon class="st0" points="56.7,398.3 46.8,390.5 36.9,398.3 27.1,390.5 17.2,398.3 7.1,390.4 7.5,389.9 17.2,397.6 27.1,389.7 
	36.9,397.6 46.8,389.7 56.7,397.6 66.6,389.7 76.5,397.6 86.4,389.7 96.5,397.7 96.1,398.2 86.4,390.5 76.5,398.3 66.6,390.5 "/>
<polygon class="st0" points="79.6,383.9 69.7,376.1 59.8,383.9 49.9,376.1 40,383.9 29.9,375.9 30.3,375.4 40,383.1 49.9,375.3 
	59.8,383.1 69.7,375.3 79.6,383.1 89.5,375.3 99.4,383.1 109.3,375.3 119.4,383.3 119,383.7 109.3,376.1 99.4,383.9 89.5,376.1 "/>
<polygon class="st0" points="515.7,555.8 505.8,547.9 495.9,555.8 486,547.9 476.1,555.8 466.2,547.9 456.3,555.8 446.2,547.8 
	446.6,547.3 456.3,555 466.2,547.2 476.1,555 486,547.2 495.9,555 505.8,547.2 515.7,555 525.6,547.2 535.6,555.1 535.3,555.6 
	525.6,547.9 "/>
<polygon class="st0" points="434.6,541.3 424.5,533.3 424.9,532.9 434.6,540.5 444.5,532.7 454.4,540.5 464.3,532.7 474.2,540.5 
	484,532.7 493.9,540.5 503.8,532.7 513.9,540.7 513.5,541.2 503.8,533.5 493.9,541.3 484,533.5 474.2,541.3 464.3,533.5 
	454.4,541.3 444.5,533.5 "/>
<polygon class="st0" points="471.1,526.9 461.2,519.1 451.3,526.9 441.4,519.1 431.5,526.9 421.6,519.1 411.7,526.9 401.6,518.9 
	402,518.4 411.7,526.1 421.6,518.3 431.5,526.1 441.4,518.3 451.3,526.1 461.2,518.3 471.1,526.1 481,518.3 491.1,526.3 
	490.7,526.7 481,519.1 "/>
<polygon class="st0" points="471.1,584.6 461.2,576.8 451.3,584.6 441.4,576.8 431.5,584.6 421.6,576.8 411.7,584.6 401.6,576.7 
	402,576.2 411.7,583.9 421.6,576 431.5,583.9 441.4,576 451.3,583.9 461.2,576 471.1,583.9 481,576 491.1,584 490.7,584.5 
	481,576.8 "/>
<polygon class="st0" points="450.7,512.4 440.8,504.6 430.9,512.4 421,504.6 411.1,512.4 401.3,504.6 391.4,512.4 381.3,504.5 
	381.6,504 391.4,511.7 401.3,503.9 411.1,511.7 421,503.9 430.9,511.7 440.8,503.9 450.7,511.7 460.6,503.9 470.7,511.8 
	470.3,512.3 460.6,504.6 "/>
<polygon class="st0" points="434.6,570.2 424.5,562.2 424.9,561.7 434.6,569.4 444.5,561.6 454.4,569.4 464.3,561.6 474.2,569.4 
	484,561.6 493.9,569.4 503.8,561.6 513.9,569.6 513.5,570 503.8,562.4 493.9,570.2 484,562.4 474.2,570.2 464.3,562.4 454.4,570.2 
	444.5,562.4 "/>
<polygon class="st0" points="126.2,217.5 116.3,209.7 106.5,217.5 96.4,209.5 96.7,209 106.5,216.7 116.3,208.9 126.2,216.7 
	136.1,208.9 146.2,216.9 145.8,217.3 136.1,209.7 "/>
<polygon class="st0" points="293.3,205.4 283.4,197.6 273.5,205.4 263.6,197.6 253.8,205.4 243.7,197.5 244,197 253.8,204.7 
	263.6,196.8 273.5,204.7 283.4,196.8 293.3,204.7 303.2,196.8 313.1,204.7 323,196.8 333.1,204.8 332.7,205.3 323,197.6 
	313.1,205.4 303.2,197.6 "/>
<polygon class="st0" points="270.5,191 260.6,183.2 250.7,191 240.8,183.2 230.9,191 220.8,183 221.2,182.6 230.9,190.2 
	240.8,182.4 250.7,190.2 260.6,182.4 270.5,190.2 280.4,182.4 290.3,190.2 300.2,182.4 310.2,190.4 309.9,190.8 300.2,183.2 
	290.3,191 280.4,183.2 "/>
<polygon class="st0" points="293.3,176.6 283.4,168.7 273.5,176.6 263.6,168.7 253.8,176.6 243.7,168.6 244,168.1 253.8,175.8 
	263.6,168 273.5,175.8 283.4,168 293.3,175.8 303.2,168 313.1,175.8 323,168 333.1,175.9 332.7,176.4 323,168.7 313.1,176.6 
	303.2,168.7 "/>
<polygon class="st0" points="425.9,358.4 415.8,350.4 416.2,350 425.9,357.6 435.8,349.8 445.7,357.6 455.6,349.8 465.5,357.6 
	475.4,349.8 485.3,357.6 495.2,349.8 505.2,357.8 504.9,358.2 495.2,350.6 485.3,358.4 475.4,350.6 465.5,358.4 455.6,350.6 
	445.7,358.4 435.8,350.6 "/>
<polygon class="st0" points="442.6,344 432.7,336.1 422.8,344 412.9,336.1 403.1,344 393,336 393.3,335.5 403.1,343.2 412.9,335.4 
	422.8,343.2 432.7,335.4 442.6,343.2 452.5,335.4 462.4,343.2 472.3,335.4 482.4,343.3 482,343.8 472.3,336.1 462.4,344 
	452.5,336.1 "/>
<polygon class="st0" points="465.5,329.5 455.6,321.7 445.7,329.5 435.8,321.7 425.9,329.5 415.8,321.6 416.2,321.1 425.9,328.8 
	435.8,320.9 445.7,328.8 455.6,320.9 465.5,328.8 475.4,320.9 485.3,328.8 495.2,320.9 505.2,328.9 504.9,329.4 495.2,321.7 
	485.3,329.5 475.4,321.7 "/>
<polygon class="st0" points="542.3,388.2 532.4,380.4 522.5,388.2 512.7,380.4 502.8,388.2 492.7,380.2 493.1,379.7 502.8,387.4 
	512.7,379.6 522.5,387.4 532.4,379.6 542.3,387.4 552.2,379.6 562.1,387.4 572,379.6 582.1,387.6 581.7,388 572,380.4 562.1,388.2 
	552.2,380.4 "/>
<polygon class="st0" points="64.4,162.3 54.5,154.5 44.6,162.3 34.7,154.5 24.8,162.3 14.7,154.4 15.1,153.9 24.8,161.6 34.7,153.7 
	44.6,161.6 54.5,153.7 64.4,161.6 74.3,153.7 84.2,161.6 94.1,153.7 104.1,161.7 103.8,162.2 94.1,154.5 84.2,162.3 74.3,154.5 "/>
<polygon class="st0" points="64.4,133.4 54.5,125.6 44.6,133.4 34.7,125.6 24.8,133.4 14.7,125.5 15.1,125 24.8,132.7 34.7,124.9 
	44.6,132.7 54.5,124.9 64.4,132.7 74.3,124.9 84.2,132.7 94.1,124.9 104.1,132.8 103.8,133.3 94.1,125.6 84.2,133.4 74.3,125.6 "/>
<polygon class="st0" points="445.4,52 435.5,44.1 425.6,52 415.7,44.1 405.8,52 395.8,44 396.1,43.5 405.8,51.2 415.7,43.4 
	425.6,51.2 435.5,43.4 445.4,51.2 455.3,43.4 465.2,51.2 475.1,43.4 485.2,51.4 484.8,51.8 475.1,44.1 465.2,52 455.3,44.1 "/>
<polygon class="st0" points="422.6,37.5 412.7,29.7 402.8,37.5 392.9,29.7 383,37.5 372.9,29.6 373.3,29.1 383,36.8 392.9,28.9 
	402.8,36.8 412.7,28.9 422.6,36.8 432.5,28.9 442.4,36.8 452.3,28.9 462.3,36.9 462,37.4 452.3,29.7 442.4,37.5 432.5,29.7 "/>
<polygon class="st0" points="445.4,23.1 435.5,15.3 425.6,23.1 415.7,15.3 405.8,23.1 395.8,15.1 396.1,14.7 405.8,22.3 415.7,14.5 
	425.6,22.3 435.5,14.5 445.4,22.3 455.3,14.5 465.2,22.3 475.1,14.5 485.2,22.5 484.8,23 475.1,15.3 465.2,23.1 455.3,15.3 "/>
<polygon class="st0" points="127.1,530.8 117.2,523 107.3,530.8 97.3,522.8 97.6,522.4 107.3,530 117.2,522.2 127.1,530 137,522.2 
	146.9,530 156.8,522.2 166.7,530 176.6,522.2 186.7,530.2 186.3,530.6 176.6,523 166.7,530.8 156.8,523 146.9,530.8 137,523 "/>
<polygon class="st0" points="124.1,516.4 114.2,508.5 104.3,516.4 94.4,508.5 84.5,516.4 74.4,508.4 74.8,507.9 84.5,515.6 
	94.4,507.8 104.3,515.6 114.2,507.8 124.1,515.6 133.9,507.8 143.8,515.6 153.7,507.8 163.8,515.7 163.4,516.2 153.7,508.5 
	143.8,516.4 133.9,508.5 "/>
<g>
	<polygon class="st0" points="146.9,501.9 137,494.1 127.1,501.9 117.2,494.1 107.3,501.9 97.3,494 97.6,493.5 107.3,501.2 
		117.2,493.3 127.1,501.2 137,493.3 146.9,501.2 156.8,493.3 166.7,501.2 176.6,493.3 186.7,501.3 186.3,501.8 176.6,494.1 
		166.7,501.9 156.8,494.1 	"/>
</g>
<polygon class="st0" points="467.6,98.7 457.7,90.8 447.8,98.7 437.9,90.8 428,98.7 417.9,90.7 418.3,90.2 428,97.9 437.9,90.1 
	447.8,97.9 457.7,90.1 467.6,97.9 477.5,90.1 487.4,97.9 497.2,90.1 507.3,98 507,98.5 497.2,90.8 487.4,98.7 477.5,90.8 "/>
<polygon class="st0" points="426.9,84.2 417,76.4 407.1,84.2 397.1,76.3 397.4,75.8 407.1,83.5 417,75.6 426.9,83.5 436.8,75.6 
	446.7,83.5 456.6,75.6 466.5,83.5 476.4,75.6 486.5,83.6 486.1,84.1 476.4,76.4 466.5,84.2 456.6,76.4 446.7,84.2 436.8,76.4 "/>
<polygon class="st0" points="467.6,67.8 457.7,60 447.8,67.8 437.9,60 428,67.8 417.9,59.8 418.3,59.3 428,67 437.9,59.2 447.8,67 
	457.7,59.2 467.6,67 477.5,59.2 487.4,67 497.2,59.2 507.3,67.2 507,67.6 497.2,60 487.4,67.8 477.5,60 "/>
<polygon class="st0" points="124.6,47.3 114.8,39.5 104.9,47.3 95,39.5 85.1,47.3 75,39.3 75.4,38.8 85.1,46.5 95,38.7 104.9,46.5 
	114.8,38.7 124.6,46.5 134.5,38.7 144.4,46.5 154.3,38.7 164.4,46.7 164,47.1 154.3,39.5 144.4,47.3 134.5,39.5 "/>
<polygon class="st0" points="104.8,33.8 94.9,26 85,33.8 75.1,26 65.2,33.8 55.1,25.9 55.5,25.4 65.2,33.1 75.1,25.3 85,33.1 
	94.9,25.3 104.8,33.1 114.7,25.3 124.6,33.1 134.5,25.3 144.6,33.2 144.2,33.7 134.5,26 124.6,33.8 114.7,26 "/>
<polygon class="st0" points="124.6,19.4 114.8,11.6 104.9,19.4 95,11.6 85.1,19.4 75,11.4 75.4,11 85.1,18.6 95,10.8 104.9,18.6 
	114.8,10.8 124.6,18.6 134.5,10.8 144.4,18.6 154.3,10.8 164.4,18.8 164,19.3 154.3,11.6 144.4,19.4 134.5,11.6 "/>
<polygon class="st0" points="209.6,445 199.7,437.1 189.8,445 179.8,437 180.1,436.5 189.8,444.2 199.7,436.4 209.6,444.2 
	219.5,436.4 229.6,444.3 229.2,444.8 219.5,437.1 "/>
<polygon class="st0" points="210.2,431.7 200.1,423.8 200.5,423.3 210.2,431 220.1,423.1 230,431 239.9,423.1 250,431.1 
	249.6,431.6 239.9,423.9 230,431.7 220.1,423.9 "/>
<polygon class="st0" points="186.3,360.9 176.4,353.1 166.5,360.9 156.4,352.9 156.8,352.5 166.5,360.1 176.4,352.3 186.3,360.1 
	196.2,352.3 206.3,360.3 205.9,360.8 196.2,353.1 "/>
<polygon class="st0" points="206.7,347.7 196.8,339.8 186.9,347.7 176.8,339.7 177.2,339.2 186.9,346.9 196.8,339.1 206.7,346.9 
	216.6,339.1 226.6,347.1 226.3,347.5 216.6,339.8 "/>
<polygon class="st0" points="508.2,212.2 498.3,204.3 488.4,212.2 478.3,204.2 478.7,203.7 488.4,211.4 498.3,203.6 508.2,211.4 
	518.1,203.6 528.2,211.6 527.8,212 518.1,204.3 "/>
<polygon class="st0" points="527.6,201.2 517.7,193.4 507.8,201.2 497.7,193.2 498.1,192.8 507.8,200.4 517.7,192.6 527.6,200.4 
	537.5,192.6 547.5,200.6 547.2,201.1 537.5,193.4 "/>
<polygon class="st0" points="485.7,188.2 475.8,180.4 465.9,188.2 455.8,180.3 456.2,179.8 465.9,187.5 475.8,179.7 485.7,187.5 
	495.6,179.7 505.6,187.6 505.3,188.1 495.6,180.4 "/>
<polygon class="st0" points="486.3,175 476.2,167 476.5,166.6 486.3,174.2 496.1,166.4 506,174.2 515.9,166.4 526,174.4 
	525.6,174.9 515.9,167.2 506,175 496.1,167.2 "/>
<g>
	<polygon class="st0" points="89.2,0.3 84.7,3.8 80.3,0.3 79.3,0.3 84.7,4.6 90.1,0.3 	"/>
	<polygon class="st0" points="69.4,0.3 64.9,3.8 60.5,0.3 59.5,0.3 64.9,4.6 70.4,0.3 	"/>
	<polygon class="st0" points="128.8,0.3 124.3,3.8 119.8,0.3 118.9,0.3 124.3,4.6 129.7,0.3 	"/>
	<polygon class="st0" points="138.7,0.3 143.9,4.5 144.3,4 139.6,0.3 	"/>
	<polygon class="st0" points="109,0.3 104.5,3.8 100,0.3 99.1,0.3 104.5,4.6 109.9,0.3 	"/>
</g>
<polygon class="st0" points="595.3,365.5 594.9,365.2 585,373 575.1,365.2 565.2,373 555.3,365.2 545.4,373 535.5,365.2 525.6,373 
	515.9,365.3 515.5,365.8 525.6,373.7 535.5,365.9 545.4,373.7 555.3,365.9 565.2,373.7 575.1,365.9 585,373.7 594.9,365.9 
	595.3,366.2 "/>
<polygon class="st0" points="595.3,394.3 594.9,394 585,401.8 575.1,394 565.2,401.8 555.3,394 545.4,401.8 535.5,394 525.6,401.8 
	515.9,394.2 515.5,394.6 525.6,402.6 535.5,394.8 545.4,402.6 555.3,394.8 565.2,402.6 575.1,394.8 585,402.6 594.9,394.8 
	595.3,395.1 "/>
<polygon class="st0" points="66.1,317.6 56.2,325.4 46.3,317.6 36.4,325.4 26.5,317.6 16.6,325.4 6.7,317.6 0,322.8 0,323.6 
	6.7,318.3 16.6,326.1 26.5,318.3 36.4,326.1 46.3,318.3 56.2,326.1 66.1,318.3 75.8,326 76.1,325.5 "/>
<polygon class="st0" points="64.7,404.2 54.8,412 44.9,404.2 35,412 25.1,404.2 15.2,412 5.3,404.2 0,408.4 0,409.1 5.3,404.9 
	15.2,412.8 25.1,404.9 35,412.8 44.9,404.9 54.8,412.8 64.7,404.9 74.4,412.6 74.8,412.1 "/>
<polygon class="st0" points="55.2,139.3 45.3,147.1 35.4,139.3 25.5,147.1 15.6,139.3 5.7,147.1 0,142.6 0,143.4 5.7,147.9 
	15.6,140.1 25.5,147.9 35.4,140.1 45.3,147.9 55.2,140.1 64.9,147.7 65.3,147.3 "/>
<g>
	<polygon class="st0" points="435,594.8 439.5,591.2 443.9,594.8 444.9,594.8 439.5,590.5 434,594.8 	"/>
	<polygon class="st0" points="454.8,594.8 459.2,591.2 463.7,594.8 464.7,594.8 459.2,590.5 453.8,594.8 	"/>
	<polygon class="st0" points="415.2,594.8 419.7,591.2 424.1,594.8 425.1,594.8 419.7,590.5 414.2,594.8 	"/>
	<polygon class="st0" points="395.4,594.8 399.9,591.2 404.3,594.8 405.3,594.8 399.9,590.5 394.5,594.8 	"/>
	<polygon class="st0" points="385.5,594.8 380.3,590.6 379.9,591.1 384.6,594.8 	"/>
</g>
</svg>
