<?xml version="1.0" encoding="utf-8"?>
<!-- Generator: Adobe Illustrator 25.3.1, SVG Export Plug-In . SVG Version: 6.00 Build 0)  -->
<svg version="1.1" id="Layer_2" xmlns="http://www.w3.org/2000/svg" xmlns:xlink="http://www.w3.org/1999/xlink" x="0px" y="0px"
	 viewBox="0 0 595.3 595.3" style="enable-background:new 0 0 595.3 595.3;" xml:space="preserve">
<style type="text/css">
	.st0{fill:#FFFFFF;}
</style>
<path class="st0" d="M182,99.3l0.1-0.4l7.6-48.3l38.3,31L182,99.3z M190,51.5l-7.4,47L227,81.4L190,51.5z"/>
<path class="st0" d="M306.3,238.3L265.9,210l44.7-20.8l0,0.4L306.3,238.3z M266.9,210.1l39,27.3L310,190L266.9,210.1z"/>
<path class="st0" d="M78.7,336.7c-6.4-13.7-22.7-19.6-36.3-13.2l-0.2-0.5c13.9-6.5,30.5-0.4,37,13.5L78.7,336.7z"/>
<path class="st0" d="M490.6,576.8c-6.3,0-12.5-2.2-17.5-6.2c-5.8-4.7-9.4-11.3-10.2-18.7l0.5-0.1c0.8,7.3,4.3,13.8,10,18.4
	s12.8,6.7,20.1,5.9l0.1,0.5C492.6,576.7,491.6,576.8,490.6,576.8z"/>
<path class="st0" d="M383.4,545.5l0.1-0.4l7.6-48.3l0.3,0.3l38,30.8L383.4,545.5z M391.5,497.7l-7.4,47l44.4-17.1L391.5,497.7z"/>
<path class="st0" d="M73,561.5l-0.4-0.1l-46.6-14.7l36.4-33.3L73,561.5z M26.9,546.4l45.4,14.3L62,514.3L26.9,546.4z"/>
<path class="st0" d="M16.8,99.1l0-0.5c15-1.1,26.3-14.2,25.2-29.3l0.5,0C43.6,84.6,32.1,98,16.8,99.1z"/>
<path class="st0" d="M302.7,369l-0.3-0.3l-38-30.8l46-17.7l-0.1,0.4L302.7,369z M265.3,338.1l37,29.9l7.4-47L265.3,338.1z"/>
<g>
	<path class="st0" d="M194.6,282.2v-0.5c15.1,0,27.3-12.3,27.3-27.3h0.5C222.4,269.7,209.9,282.2,194.6,282.2z"/>
	<path class="st0" d="M510.2,299.3c-10.5,0-20.5-6-25.3-16.1l0.5-0.2c6.4,13.7,22.7,19.6,36.3,13.2l0.2,0.5
		C518.2,298.5,514.2,299.3,510.2,299.3z"/>
	<path class="st0" d="M126.9,426.5c-0.8-7.3-4.3-13.8-10-18.4c-5.7-4.6-12.8-6.7-20.1-5.9l-0.1-0.5c7.4-0.8,14.6,1.4,20.4,6
		c5.8,4.7,9.4,11.3,10.2,18.7L126.9,426.5z"/>
	<path class="st0" d="M334.9,467l-0.2-0.4c6.5-3.4,11.3-9.1,13.4-16c2.2-7,1.5-14.4-1.8-20.8l0.4-0.2c3.4,6.6,4.1,14.1,1.9,21.2
		C346.3,457.7,341.5,463.5,334.9,467z"/>
</g>
<path class="st0" d="M487.9,411.8l-0.3-0.3l-38-30.8l46-17.7l-0.1,0.4L487.9,411.8z M450.5,380.9l37,29.9l7.4-47L450.5,380.9z"/>
<path class="st0" d="M366.9,273.2l0-0.4l4.3-48.7l40.4,28.3L366.9,273.2z M371.7,225l-4.1,47.4l43.1-20.1L371.7,225z"/>
<path class="st0" d="M199.2,481.4l-38.3-31l46-17.7l-0.1,0.4L199.2,481.4z M161.9,450.6l37,29.9l7.4-47L161.9,450.6z"/>
<g>
	<path class="st0" d="M85.7,270.7l-11.1-48.1l47.2,14.4l-0.3,0.3L85.7,270.7z M75.3,223.4L86,269.8l34.8-32.5L75.3,223.4z"/>
</g>
<path class="st0" d="M528.1,464.9l-10.7-48.1l47,14.8L528.1,464.9z M518.1,417.5l10.3,46.5l35.1-32.1L518.1,417.5z"/>
<path class="st0" d="M376.2,130.6c-0.6-7.4,1.8-14.6,6.7-20.2c4.9-5.6,11.6-9,19-9.6l0,0.5c-7.3,0.5-13.9,3.9-18.7,9.4
	c-4.8,5.5-7.1,12.6-6.6,19.9L376.2,130.6z"/>
<polygon class="st0" points="595.3,236.8 556.8,225.1 591.6,192.6 595.3,208.6 595.3,206.4 592,192.1 591.9,191.6 555.8,225.3 
	595.3,237.3 "/>
<path class="st0" d="M595.3,541c-8.8,4.7-14.8,13.9-14.8,24.6h0.5c0-10.3,5.8-19.4,14.3-24V541z"/>
<path class="st0" d="M233.9,595.3c-2.1-11.5,3.3-23.6,14.2-29.2l-0.2-0.4c-11.1,5.8-16.7,18-14.5,29.7H233.9z"/>
<polygon class="st0" points="501.1,0 515.7,11.8 471.2,28.8 475.8,0 475.3,0 470.7,29.2 470.6,29.6 516.7,11.9 501.9,0 "/>
<path class="st0" d="M455.2,208h0.5c0-15.1,12.3-27.3,27.3-27.3v-0.5C467.6,180.2,455.2,192.7,455.2,208z"/>
<polygon class="st0" points="149.5,0 159.5,44.8 114.1,30.5 147.4,0 146.7,0 113.1,30.7 160.2,45.6 150.1,0 "/>
<polygon class="st0" points="0,185.8 0,186.4 23.6,205.6 0,214.7 0,215.2 24.6,205.7 "/>
</svg>
