<?xml version="1.0" encoding="utf-8"?>
<!-- Generator: Adobe Illustrator 25.3.1, SVG Export Plug-In . SVG Version: 6.00 Build 0)  -->
<svg version="1.1" id="Layer_2" xmlns="http://www.w3.org/2000/svg" xmlns:xlink="http://www.w3.org/1999/xlink" x="0px" y="0px"
	 viewBox="0 0 595.3 595.3" style="enable-background:new 0 0 595.3 595.3;" xml:space="preserve">
<style type="text/css">
	.st0{fill:#FFFFFF;}
</style>
<path class="st0" d="M490.8,93.1c-1.8,0-3.2-1.4-3.2-3.2s1.4-3.2,3.2-3.2c1.8,0,3.2,1.4,3.2,3.2S492.6,93.1,490.8,93.1z M490.8,87.1
	c-1.5,0-2.7,1.2-2.7,2.7s1.2,2.7,2.7,2.7c1.5,0,2.7-1.2,2.7-2.7S492.3,87.1,490.8,87.1z"/>
<path class="st0" d="M294.7,70.8c-1.8,0-3.2-1.4-3.2-3.2s1.4-3.2,3.2-3.2c1.8,0,3.2,1.4,3.2,3.2S296.4,70.8,294.7,70.8z M294.7,64.8
	c-1.5,0-2.7,1.2-2.7,2.7c0,1.5,1.2,2.7,2.7,2.7s2.7-1.2,2.7-2.7C297.4,66.1,296.2,64.8,294.7,64.8z"/>
<path class="st0" d="M561.6,113.6c-1.8,0-3.2-1.4-3.2-3.2s1.4-3.2,3.2-3.2c1.8,0,3.2,1.4,3.2,3.2S563.4,113.6,561.6,113.6z
	 M561.6,107.7c-1.5,0-2.7,1.2-2.7,2.7s1.2,2.7,2.7,2.7s2.7-1.2,2.7-2.7S563.1,107.7,561.6,107.7z"/>
<path class="st0" d="M109.7,27c-1.8,0-3.2-1.4-3.2-3.2s1.4-3.2,3.2-3.2c1.8,0,3.2,1.4,3.2,3.2S111.4,27,109.7,27z M109.7,21.1
	c-1.5,0-2.7,1.2-2.7,2.7c0,1.5,1.2,2.7,2.7,2.7c1.5,0,2.7-1.2,2.7-2.7C112.4,22.3,111.2,21.1,109.7,21.1z"/>
<path class="st0" d="M30.8,67.1c-1.8,0-3.2-1.4-3.2-3.2s1.4-3.2,3.2-3.2c1.8,0,3.2,1.4,3.2,3.2S32.6,67.1,30.8,67.1z M30.8,61.2
	c-1.5,0-2.7,1.2-2.7,2.7s1.2,2.7,2.7,2.7c1.5,0,2.7-1.2,2.7-2.7S32.3,61.2,30.8,61.2z"/>
<path class="st0" d="M143.4,127.6c-1.8,0-3.2-1.4-3.2-3.2s1.4-3.2,3.2-3.2c1.8,0,3.2,1.4,3.2,3.2S145.2,127.6,143.4,127.6z
	 M143.4,121.6c-1.5,0-2.7,1.2-2.7,2.7s1.2,2.7,2.7,2.7c1.5,0,2.7-1.2,2.7-2.7S144.9,121.6,143.4,121.6z"/>
<path class="st0" d="M374.8,189.1c-1.8,0-3.2-1.4-3.2-3.2c0-1.8,1.4-3.2,3.2-3.2c1.8,0,3.2,1.4,3.2,3.2
	C378,187.6,376.6,189.1,374.8,189.1z M374.8,183.2c-1.5,0-2.7,1.2-2.7,2.7c0,1.5,1.2,2.7,2.7,2.7c1.5,0,2.7-1.2,2.7-2.7
	C377.5,184.4,376.3,183.2,374.8,183.2z"/>
<polygon class="st0" points="180.2,45.6 173.6,41.1 175.5,33.2 169.1,29.3 169.4,28.9 176.1,32.9 174.2,40.9 180.5,45.2 "/>
<polygon class="st0" points="182.5,175.5 182,175.5 182.3,167.5 190,164.9 189.9,157.5 190.4,157.4 190.5,165.3 182.8,167.9 "/>
<polygon class="st0" points="202.7,87.2 202.3,87 206.6,80.2 214.6,81.8 218.2,75.3 218.7,75.5 214.9,82.4 206.9,80.7 "/>
<polygon class="st0" points="527.3,166.9 519.7,165 519.6,164.8 519.2,156.9 511.8,154.6 512,154.1 519.6,156.5 520.1,164.6 
	527.4,166.4 "/>
<polygon class="st0" points="523.1,67.8 519.3,60.6 511.7,61.5 511.6,61 519.6,60 523.4,67.3 530.7,66 530.8,66.5 "/>
<polygon class="st0" points="550.9,16 550.5,15.7 554.8,8.9 562.8,10.6 566.4,4 566.9,4.3 563,11.1 555,9.5 "/>
<polygon class="st0" points="419,27 413,21.3 406.1,24.6 405.9,24.2 413.1,20.7 419,26.3 425.6,22.7 425.8,23.2 "/>
<path class="st0" d="M92.4,290.3c-1.8,0-3.2-1.4-3.2-3.2s1.4-3.2,3.2-3.2c1.8,0,3.2,1.4,3.2,3.2S94.2,290.3,92.4,290.3z M92.4,284.4
	c-1.5,0-2.7,1.2-2.7,2.7c0,1.5,1.2,2.7,2.7,2.7c1.5,0,2.7-1.2,2.7-2.7C95.1,285.6,93.9,284.4,92.4,284.4z"/>
<path class="st0" d="M288.6,312.6c-1.8,0-3.2-1.4-3.2-3.2c0-1.8,1.4-3.2,3.2-3.2c1.8,0,3.2,1.4,3.2,3.2
	C291.8,311.2,290.4,312.6,288.6,312.6z M288.6,306.7c-1.5,0-2.7,1.2-2.7,2.7c0,1.5,1.2,2.7,2.7,2.7c1.5,0,2.7-1.2,2.7-2.7
	C291.3,307.9,290.1,306.7,288.6,306.7z"/>
<path class="st0" d="M21.7,269.8c-1.8,0-3.2-1.4-3.2-3.2s1.4-3.2,3.2-3.2c1.8,0,3.2,1.4,3.2,3.2S23.4,269.8,21.7,269.8z M21.7,263.9
	c-1.5,0-2.7,1.2-2.7,2.7c0,1.5,1.2,2.7,2.7,2.7s2.7-1.2,2.7-2.7C24.4,265.1,23.1,263.9,21.7,263.9z"/>
<path class="st0" d="M473.6,356.3c-1.8,0-3.2-1.4-3.2-3.2s1.4-3.2,3.2-3.2c1.8,0,3.2,1.4,3.2,3.2S475.4,356.3,473.6,356.3z
	 M473.6,350.4c-1.5,0-2.7,1.2-2.7,2.7s1.2,2.7,2.7,2.7s2.7-1.2,2.7-2.7S475.1,350.4,473.6,350.4z"/>
<path class="st0" d="M552.5,316.2c-1.8,0-3.2-1.4-3.2-3.2s1.4-3.2,3.2-3.2c1.8,0,3.2,1.4,3.2,3.2S554.3,316.2,552.5,316.2z
	 M552.5,310.3c-1.5,0-2.7,1.2-2.7,2.7c0,1.5,1.2,2.7,2.7,2.7s2.7-1.2,2.7-2.7C555.2,311.5,554,310.3,552.5,310.3z"/>
<path class="st0" d="M439.8,255.8c-1.8,0-3.2-1.4-3.2-3.2s1.4-3.2,3.2-3.2c1.8,0,3.2,1.4,3.2,3.2S441.6,255.8,439.8,255.8z
	 M439.8,249.9c-1.5,0-2.7,1.2-2.7,2.7s1.2,2.7,2.7,2.7s2.7-1.2,2.7-2.7S441.3,249.9,439.8,249.9z"/>
<path class="st0" d="M208.4,194.3c-1.8,0-3.2-1.4-3.2-3.2s1.4-3.2,3.2-3.2c1.8,0,3.2,1.4,3.2,3.2S210.2,194.3,208.4,194.3z
	 M208.4,188.4c-1.5,0-2.7,1.2-2.7,2.7s1.2,2.7,2.7,2.7c1.5,0,2.7-1.2,2.7-2.7S209.9,188.4,208.4,188.4z"/>
<polygon class="st0" points="413.9,348.1 407.2,344 409.1,336.1 402.8,331.7 403.1,331.3 409.7,335.8 407.8,343.8 414.2,347.6 "/>
<polygon class="st0" points="392.9,219.5 392.7,211.7 400.5,209.1 400.8,201.4 401.3,201.4 401,209.4 393.2,212 393.4,219.5 "/>
<polygon class="st0" points="365,301.7 364.6,301.4 368.4,294.6 376.4,296.2 380.5,289.7 381,290 376.7,296.8 368.7,295.1 "/>
<polygon class="st0" points="547.8,378.9 547.4,378.7 551.1,371.7 559.1,373.2 563.1,366.7 563.5,366.9 559.3,373.8 551.3,372.3 "/>
<polygon class="st0" points="71.3,222.9 63.6,220.5 63.2,212.3 55.9,210.5 56,210 63.6,211.9 64.1,220.1 71.5,222.4 "/>
<polygon class="st0" points="63.7,316.9 59.9,309.7 52.5,310.9 52.5,310.5 60.2,309.1 63.9,316.4 71.6,315.5 71.6,316 "/>
<polygon class="st0" points="16.9,372.9 16.4,372.7 20.2,365.8 28.3,367.5 32.4,361 32.8,361.2 28.5,368 20.5,366.4 "/>
<polygon class="st0" points="170.1,356.2 164.2,350.6 157.7,354.2 157.5,353.8 164.3,350 170.2,355.6 177.2,352.3 177.4,352.7 "/>
<path class="st0" d="M456.5,484.6c-1.8,0-3.2-1.4-3.2-3.2s1.4-3.2,3.2-3.2c1.8,0,3.2,1.4,3.2,3.2S458.3,484.6,456.5,484.6z
	 M456.5,478.7c-1.5,0-2.7,1.2-2.7,2.7c0,1.5,1.2,2.7,2.7,2.7s2.7-1.2,2.7-2.7C459.2,479.9,458,478.7,456.5,478.7z"/>
<path class="st0" d="M393,119.5c-1.8,0-3.2-1.4-3.2-3.2s1.4-3.2,3.2-3.2s3.2,1.4,3.2,3.2S394.8,119.5,393,119.5z M393,113.6
	c-1.5,0-2.7,1.2-2.7,2.7c0,1.5,1.2,2.7,2.7,2.7s2.7-1.2,2.7-2.7C395.7,114.8,394.5,113.6,393,113.6z"/>
<path class="st0" d="M202.5,258.8c-1.8,0-3.2-1.4-3.2-3.2s1.4-3.2,3.2-3.2c1.8,0,3.2,1.4,3.2,3.2S204.3,258.8,202.5,258.8z
	 M202.5,252.8c-1.5,0-2.7,1.2-2.7,2.7s1.2,2.7,2.7,2.7s2.7-1.2,2.7-2.7S204,252.8,202.5,252.8z"/>
<path class="st0" d="M177.3,547c-1.8,0-3.2-1.4-3.2-3.2s1.4-3.2,3.2-3.2c1.8,0,3.2,1.4,3.2,3.2S179.1,547,177.3,547z M177.3,541.1
	c-1.5,0-2.7,1.2-2.7,2.7s1.2,2.7,2.7,2.7c1.5,0,2.7-1.2,2.7-2.7S178.8,541.1,177.3,541.1z"/>
<path class="st0" d="M256.2,506.9c-1.8,0-3.2-1.4-3.2-3.2s1.4-3.2,3.2-3.2c1.8,0,3.2,1.4,3.2,3.2S258,506.9,256.2,506.9z M256.2,501
	c-1.5,0-2.7,1.2-2.7,2.7s1.2,2.7,2.7,2.7c1.5,0,2.7-1.2,2.7-2.7S257.7,501,256.2,501z"/>
<path class="st0" d="M143.6,446.5c-1.8,0-3.2-1.4-3.2-3.2s1.4-3.2,3.2-3.2c1.8,0,3.2,1.4,3.2,3.2S145.3,446.5,143.6,446.5z
	 M143.6,440.6c-1.5,0-2.7,1.2-2.7,2.7s1.2,2.7,2.7,2.7c1.5,0,2.7-1.2,2.7-2.7S145.1,440.6,143.6,440.6z"/>
<path class="st0" d="M572.5,388.6c-1.8,0-3.2-1.4-3.2-3.2c0-1.8,1.4-3.2,3.2-3.2c1.8,0,3.2,1.4,3.2,3.2
	C575.8,387.2,574.3,388.6,572.5,388.6z M572.5,382.7c-1.5,0-2.7,1.2-2.7,2.7c0,1.5,1.2,2.7,2.7,2.7s2.7-1.2,2.7-2.7
	C575.3,383.9,574,382.7,572.5,382.7z"/>
<polygon class="st0" points="117.6,538.7 110.9,534.7 112.9,526.7 106.5,522.4 106.8,522 113.4,526.5 111.5,534.4 117.9,538.3 "/>
<polygon class="st0" points="96.6,410.2 96.5,402.3 104.2,399.7 104.5,392.1 105,392.1 104.7,400.1 97,402.7 97.1,410.2 "/>
<polygon class="st0" points="290.1,390.1 282.3,389.2 280.9,381.1 273.3,379.7 273.4,379.2 281.3,380.7 282.8,388.7 290.2,389.6 "/>
<polygon class="st0" points="68.8,492.3 68.3,492.1 72.2,485.2 80.2,486.9 84.3,480.4 84.7,480.6 80.4,487.4 72.4,485.8 "/>
<polygon class="st0" points="251.5,569.6 251.1,569.3 254.8,562.4 262.8,563.9 266.8,557.3 267.2,557.6 263.1,564.5 255.1,563 "/>
<polygon class="st0" points="435.4,417.2 427.7,414.8 427.3,406.7 420,404.8 420.1,404.4 427.7,406.3 427.8,406.5 428.2,414.4 
	435.6,416.7 "/>
<polygon class="st0" points="427.8,511.3 424,504 416.7,505.3 416.6,504.8 424.3,503.5 428.1,510.7 435.7,509.8 435.8,510.3 "/>
<polygon class="st0" points="534.3,550.6 528.3,545 521.8,548.6 521.6,548.1 528.4,544.3 534.3,550 541.3,546.6 541.5,547.1 "/>
<polygon class="st0" points="34.4,0 32,4.6 23.9,3.1 19.8,10 20.2,10.3 24.2,3.7 32.2,5.2 35,0 "/>
<polygon class="st0" points="595.3,211.2 590.4,210.6 589,202.6 581.1,201.2 581,201.7 588.5,203 590,211.1 595.3,211.7 "/>
<polygon class="st0" points="358.9,595.3 360.7,592 368.7,593.6 373,586.8 372.6,586.6 368.5,593.1 360.5,591.4 358.3,595.3 "/>
<polygon class="st0" points="6.1,186.5 4.7,178.5 0,177.9 0,178.4 4.2,178.9 5.7,186.9 13.6,188.4 13.7,187.9 "/>
</svg>
