<?xml version="1.0" encoding="utf-8"?>
<!-- Generator: Adobe Illustrator 25.3.1, SVG Export Plug-In . SVG Version: 6.00 Build 0)  -->
<svg version="1.1" id="Layer_2" xmlns="http://www.w3.org/2000/svg" xmlns:xlink="http://www.w3.org/1999/xlink" x="0px" y="0px"
	 viewBox="0 0 595.3 595.3" style="enable-background:new 0 0 595.3 595.3;" xml:space="preserve">
<style type="text/css">
	.st0{fill:#FFFFFF;}
</style>
<polygon class="st0" points="594.9,590.2 297.4,289.8 0.4,590.2 0,589.8 297.4,289.1 297.6,289.3 595.3,589.9 "/>
<polygon class="st0" points="594.9,571.1 297.4,270.7 0.4,571.1 0,570.7 297.4,270 297.6,270.2 595.3,570.8 "/>
<polygon class="st0" points="594.9,532.9 297.4,232.5 0.4,532.8 0,532.5 297.4,231.8 297.6,232 595.3,532.6 "/>
<polygon class="st0" points="594.9,475.6 297.4,175.2 0.4,475.5 0,475.2 297.4,174.5 297.6,174.6 595.3,475.3 "/>
<polygon class="st0" points="594.9,437.4 297.4,137 0.4,437.3 0,437 297.4,136.3 297.6,136.4 595.3,437.1 "/>
<polygon class="st0" points="594.9,399.2 297.4,98.8 0.4,399.1 0,398.8 297.4,98.1 297.6,98.2 595.3,398.9 "/>
<polygon class="st0" points="594.9,361 297.4,60.5 0.4,360.9 0,360.6 297.4,59.8 297.6,60 595.3,360.6 "/>
<polygon class="st0" points="594.9,513.8 297.4,213.4 0.4,513.7 0,513.4 297.4,212.7 297.6,212.9 595.3,513.5 "/>
<polygon class="st0" points="594.9,552 297.4,251.6 0.4,552 0,551.6 297.4,250.9 297.6,251.1 595.3,551.7 "/>
<polygon class="st0" points="594.9,456.5 297.4,156.1 0.4,456.4 0,456.1 297.4,155.4 297.6,155.5 595.3,456.2 "/>
<polygon class="st0" points="594.9,494.7 297.4,194.3 0.4,494.6 0,494.3 297.4,193.6 297.6,193.8 595.3,494.4 "/>
<polygon class="st0" points="594.9,418.3 297.4,117.9 0.4,418.2 0,417.9 297.4,117.2 297.6,117.3 595.3,418 "/>
<polygon class="st0" points="594.9,380.1 297.4,79.7 0.4,380 0,379.7 297.4,78.9 297.6,79.1 595.3,379.7 "/>
<polygon class="st0" points="594.9,322.8 297.4,22.3 0.4,322.7 0,322.4 297.4,21.6 297.6,21.8 595.3,322.4 "/>
<polygon class="st0" points="594.9,303.7 297.4,3.2 0.4,303.6 0,303.2 297.4,2.5 297.6,2.7 595.3,303.3 "/>
<polygon class="st0" points="594.9,341.9 297.4,41.4 0.4,341.8 0,341.5 297.4,40.7 297.6,40.9 595.3,341.5 "/>
<g>
	<polygon class="st0" points="148.7,0 0,150.4 0.4,150.8 149.4,0 	"/>
	<polygon class="st0" points="446.2,0 445.5,0 594.9,150.8 595.3,150.5 	"/>
</g>
<g>
	<polygon class="st0" points="167.6,0 0,169.5 0.4,169.9 168.3,0 	"/>
	<polygon class="st0" points="427.3,0 426.6,0 594.9,169.9 595.3,169.6 	"/>
</g>
<g>
	<polygon class="st0" points="186.5,0 0,188.6 0.4,189 187.2,0 	"/>
	<polygon class="st0" points="408.4,0 407.7,0 594.9,189 595.3,188.7 	"/>
</g>
<g>
	<polygon class="st0" points="205.4,0 0,207.7 0.4,208.1 206.1,0 	"/>
	<polygon class="st0" points="389.5,0 388.8,0 594.9,208.2 595.3,207.8 	"/>
</g>
<g>
	<polygon class="st0" points="224.3,0 0,226.8 0.4,227.2 225,0 	"/>
	<polygon class="st0" points="370.6,0 369.9,0 594.9,227.3 595.3,226.9 	"/>
</g>
<g>
	<polygon class="st0" points="351.6,0 350.9,0 594.9,246.4 595.3,246 	"/>
	<polygon class="st0" points="243.2,0 0,245.9 0.4,246.3 243.9,0 	"/>
</g>
<g>
	<polygon class="st0" points="262.1,0 0,265 0.4,265.4 262.8,0 	"/>
	<polygon class="st0" points="332.7,0 332,0 594.9,265.5 595.3,265.1 	"/>
</g>
<g>
	<polygon class="st0" points="281,0 0,284.1 0.4,284.5 281.7,0 	"/>
	<polygon class="st0" points="313.8,0 313.1,0 594.9,284.6 595.3,284.2 	"/>
</g>
<polygon class="st0" points="109.1,594.8 297.4,404.4 485.9,594.8 486.6,594.8 297.6,403.9 297.4,403.7 108.5,594.8 "/>
<polygon class="st0" points="90.3,594.8 297.4,385.3 504.8,594.8 505.5,594.8 297.6,384.8 297.4,384.6 89.6,594.8 "/>
<polygon class="st0" points="71.4,594.8 297.4,366.2 523.7,594.8 524.4,594.8 297.6,365.7 297.4,365.5 70.7,594.8 "/>
<polygon class="st0" points="52.5,594.8 297.4,347.1 542.6,594.8 543.3,594.8 297.6,346.6 297.4,346.4 51.8,594.8 "/>
<polygon class="st0" points="33.6,594.8 297.4,328 561.6,594.8 562.3,594.8 297.6,327.5 297.4,327.3 32.9,594.8 "/>
<polygon class="st0" points="14.7,594.8 297.4,308.9 580.5,594.8 581.2,594.8 297.6,308.4 297.4,308.2 14,594.8 "/>
</svg>
