<?xml version="1.0" encoding="utf-8"?>
<!-- Generator: Adobe Illustrator 25.3.1, SVG Export Plug-In . SVG Version: 6.00 Build 0)  -->
<svg version="1.1" id="Layer_2" xmlns="http://www.w3.org/2000/svg" xmlns:xlink="http://www.w3.org/1999/xlink" x="0px" y="0px"
	 viewBox="0 0 595.3 595.3" style="enable-background:new 0 0 595.3 595.3;" xml:space="preserve">
<style type="text/css">
	.st0{fill:#FFFFFF;}
</style>
<path class="st0" d="M99.4,369.3l-8.1-6.4c-0.9-0.7-2.2-0.7-3.1,0l-6.4,5c-1.1,0.9-2.7,0.9-3.9,0l-6.4-5c-0.9-0.7-2.2-0.7-3.1,0
	l-6.4,5c-1.1,0.9-2.7,0.9-3.9,0l-6.4-5c-0.9-0.7-2.2-0.7-3.1,0l-6.4,5c-1.1,0.9-2.7,0.9-3.9,0l-6.4-5c-0.9-0.7-2.2-0.7-3.1,0l-6.4,5
	c-1.1,0.9-2.7,0.9-3.9,0l-8.1-6.4l0.4-0.5l8.1,6.4c0.9,0.7,2.2,0.7,3.1,0l6.4-5c1.1-0.9,2.7-0.9,3.9,0l6.4,5c0.9,0.7,2.2,0.7,3.1,0
	l6.4-5c1.1-0.9,2.7-0.9,3.9,0l6.4,5c0.9,0.7,2.2,0.7,3.1,0l6.4-5c1.1-0.9,2.7-0.9,3.9,0l6.4,5c0.9,0.7,2.2,0.7,3.1,0l6.4-5
	c1.1-0.9,2.7-0.9,3.9,0l8.1,6.4L99.4,369.3z"/>
<path class="st0" d="M119,354.9l-8.1-6.4c-0.9-0.7-2.2-0.7-3.1,0l-6.4,5c-1.1,0.9-2.7,0.9-3.9,0l-6.4-5c-0.9-0.7-2.2-0.7-3.1,0
	l-6.4,5c-1.1,0.9-2.7,0.9-3.9,0l-6.4-5c-0.9-0.7-2.2-0.7-3.1,0l-6.4,5c-1.1,0.9-2.7,0.9-3.9,0l-6.4-5c-0.9-0.7-2.2-0.7-3.1,0l-6.4,5
	c-1.1,0.9-2.7,0.9-3.9,0l-8.1-6.4l0.4-0.5l8.1,6.4c0.9,0.7,2.2,0.7,3.1,0l6.4-5c1.1-0.9,2.7-0.9,3.9,0l6.4,5c0.9,0.7,2.2,0.7,3.1,0
	l6.4-5c1.1-0.9,2.7-0.9,3.9,0l6.4,5c0.9,0.7,2.2,0.7,3.1,0l6.4-5c1.1-0.9,2.7-0.9,3.9,0l6.4,5c0.9,0.7,2.2,0.7,3.1,0l6.4-5
	c1.1-0.9,2.7-0.9,3.9,0l8.1,6.4L119,354.9z"/>
<path class="st0" d="M96.1,340.4L88,334c-0.9-0.7-2.2-0.7-3.1,0l-6.4,5c-1.1,0.9-2.7,0.9-3.9,0l-6.4-5c-0.9-0.7-2.2-0.7-3.1,0
	l-6.4,5c-1.1,0.9-2.7,0.9-3.9,0l-6.4-5c-0.9-0.7-2.2-0.7-3.1,0l-6.4,5c-1.1,0.9-2.7,0.9-3.9,0l-6.4-5c-0.9-0.7-2.2-0.7-3.1,0l-6.4,5
	c-1.1,0.9-2.7,0.9-3.9,0l-8.1-6.4l0.4-0.5l8.1,6.4c0.9,0.7,2.2,0.7,3.1,0l6.4-5c1.1-0.9,2.7-0.9,3.9,0l6.4,5c0.9,0.7,2.2,0.7,3.1,0
	l6.4-5c1.1-0.9,2.7-0.9,3.9,0l6.4,5c0.9,0.7,2.2,0.7,3.1,0l6.4-5c1.1-0.9,2.7-0.9,3.9,0l6.4,5c0.9,0.7,2.2,0.7,3.1,0l6.4-5
	c1.1-0.9,2.7-0.9,3.9,0l8.1,6.4L96.1,340.4z"/>
<path class="st0" d="M96.1,398.2l-8.1-6.4c-0.9-0.7-2.2-0.7-3.1,0l-6.4,5c-1.1,0.9-2.7,0.9-3.9,0l-6.4-5c-0.9-0.7-2.2-0.7-3.1,0
	l-6.4,5c-1.1,0.9-2.7,0.9-3.9,0l-6.4-5c-0.9-0.7-2.2-0.7-3.1,0l-6.4,5c-1.1,0.9-2.7,0.9-3.9,0l-6.4-5c-0.9-0.7-2.2-0.7-3.1,0l-6.4,5
	c-1.1,0.9-2.7,0.9-3.9,0l-8.1-6.4l0.4-0.5l8.1,6.4c0.9,0.7,2.2,0.7,3.1,0l6.4-5c1.1-0.9,2.7-0.9,3.9,0l6.4,5c0.9,0.7,2.2,0.7,3.1,0
	l6.4-5c1.1-0.9,2.7-0.9,3.9,0l6.4,5c0.9,0.7,2.2,0.7,3.1,0l6.4-5c1.1-0.9,2.7-0.9,3.9,0l6.4,5c0.9,0.7,2.2,0.7,3.1,0l6.4-5
	c1.1-0.9,2.7-0.9,3.9,0l8.1,6.4L96.1,398.2z"/>
<path class="st0" d="M119,383.7l-8.1-6.4c-0.9-0.7-2.2-0.7-3.1,0l-6.4,5c-1.1,0.9-2.7,0.9-3.9,0l-6.4-5c-0.9-0.7-2.2-0.7-3.1,0
	l-6.4,5c-1.1,0.9-2.7,0.9-3.9,0l-6.4-5c-0.9-0.7-2.2-0.7-3.1,0l-6.4,5c-1.1,0.9-2.7,0.9-3.9,0l-6.4-5c-0.9-0.7-2.2-0.7-3.1,0l-6.4,5
	c-1.1,0.9-2.7,0.9-3.9,0l-8.1-6.4l0.4-0.5l8.1,6.4c0.9,0.7,2.2,0.7,3.1,0l6.4-5c1.1-0.9,2.7-0.9,3.9,0l6.4,5c0.9,0.7,2.2,0.7,3.1,0
	l6.4-5c1.1-0.9,2.7-0.9,3.9,0l6.4,5c0.9,0.7,2.2,0.7,3.1,0l6.4-5c1.1-0.9,2.7-0.9,3.9,0l6.4,5c0.9,0.7,2.2,0.7,3.1,0l6.4-5
	c1.1-0.9,2.7-0.9,3.9,0l8.1,6.4L119,383.7z"/>
<path class="st0" d="M533.5,555.6l-8.1-6.4c-0.9-0.7-2.2-0.7-3.1,0l-6.4,5c-1.1,0.9-2.7,0.9-3.9,0l-6.4-5c-0.9-0.7-2.2-0.7-3.1,0
	l-6.4,5c-1.1,0.9-2.7,0.9-3.9,0l-6.4-5c-0.9-0.7-2.2-0.7-3.1,0l-6.4,5c-1.1,0.9-2.7,0.9-3.9,0l-6.4-5c-0.9-0.7-2.2-0.7-3.1,0l-6.4,5
	c-1.1,0.9-2.7,0.9-3.9,0l-8.1-6.4l0.4-0.5l8.1,6.4c0.9,0.7,2.2,0.7,3.1,0l6.4-5c1.1-0.9,2.7-0.9,3.9,0l6.4,5c0.9,0.7,2.2,0.7,3.1,0
	l6.4-5c1.1-0.9,2.7-0.9,3.9,0l6.4,5c0.9,0.7,2.2,0.7,3.1,0l6.4-5c1.1-0.9,2.7-0.9,3.9,0l6.4,5c0.9,0.7,2.2,0.7,3.1,0l6.4-5
	c1.1-0.9,2.7-0.9,3.9,0l8.1,6.4L533.5,555.6z"/>
<path class="st0" d="M511.8,541.2l-8.1-6.4c-0.9-0.7-2.2-0.7-3.1,0l-6.4,5c-1.1,0.9-2.7,0.9-3.9,0l-6.4-5c-0.9-0.7-2.2-0.7-3.1,0
	l-6.4,5c-1.1,0.9-2.7,0.9-3.9,0l-6.4-5c-0.9-0.7-2.2-0.7-3.1,0l-6.4,5c-1.1,0.9-2.7,0.9-3.9,0l-6.4-5c-0.9-0.7-2.2-0.7-3.1,0l-6.4,5
	c-1.1,0.9-2.7,0.9-3.9,0l-8.1-6.4l0.4-0.5l8.1,6.4c0.9,0.7,2.2,0.7,3.1,0l6.4-5c1.1-0.9,2.7-0.9,3.9,0l6.4,5c0.9,0.7,2.2,0.7,3.1,0
	l6.4-5c1.1-0.9,2.7-0.9,3.9,0l6.4,5c0.9,0.7,2.2,0.7,3.1,0l6.4-5c1.1-0.9,2.7-0.9,3.9,0l6.4,5c0.9,0.7,2.2,0.7,3.1,0l6.4-5
	c1.1-0.9,2.7-0.9,3.9,0l8.1,6.4L511.8,541.2z"/>
<path class="st0" d="M488.9,526.7l-8.1-6.4c-0.9-0.7-2.2-0.7-3.1,0l-6.4,5c-1.1,0.9-2.7,0.9-3.9,0l-6.4-5c-0.9-0.7-2.2-0.7-3.1,0
	l-6.4,5c-1.1,0.9-2.7,0.9-3.9,0l-6.4-5c-0.9-0.7-2.2-0.7-3.1,0l-6.4,5c-1.1,0.9-2.7,0.9-3.9,0l-6.4-5c-0.9-0.7-2.2-0.7-3.1,0l-6.4,5
	c-1.1,0.9-2.7,0.9-3.9,0l-8.1-6.4l0.4-0.5l8.1,6.4c0.9,0.7,2.2,0.7,3.1,0l6.4-5c1.1-0.9,2.7-0.9,3.9,0l6.4,5c0.9,0.7,2.2,0.7,3.1,0
	l6.4-5c1.1-0.9,2.7-0.9,3.9,0l6.4,5c0.9,0.7,2.2,0.7,3.1,0l6.4-5c1.1-0.9,2.7-0.9,3.9,0l6.4,5c0.9,0.7,2.2,0.7,3.1,0l6.4-5
	c1.1-0.9,2.7-0.9,3.9,0l8.1,6.4L488.9,526.7z"/>
<path class="st0" d="M488.9,584.5l-8.1-6.4c-0.9-0.7-2.2-0.7-3.1,0l-6.4,5c-1.1,0.9-2.7,0.9-3.9,0l-6.4-5c-0.9-0.7-2.2-0.7-3.1,0
	l-6.4,5c-1.1,0.9-2.7,0.9-3.9,0l-6.4-5c-0.9-0.7-2.2-0.7-3.1,0l-6.4,5c-1.1,0.9-2.7,0.9-3.9,0l-6.4-5c-0.9-0.7-2.2-0.7-3.1,0l-6.4,5
	c-1.1,0.9-2.7,0.9-3.9,0l-8.1-6.4l0.4-0.5l8.1,6.4c0.9,0.7,2.2,0.7,3.1,0l6.4-5c1.1-0.9,2.7-0.9,3.9,0l6.4,5c0.9,0.7,2.2,0.7,3.1,0
	l6.4-5c1.1-0.9,2.7-0.9,3.9,0l6.4,5c0.9,0.7,2.2,0.7,3.1,0l6.4-5c1.1-0.9,2.7-0.9,3.9,0l6.4,5c0.9,0.7,2.2,0.7,3.1,0l6.4-5
	c1.1-0.9,2.7-0.9,3.9,0l8.1,6.4L488.9,584.5z"/>
<path class="st0" d="M468.5,512.3l-8.1-6.4c-0.9-0.7-2.2-0.7-3.1,0l-6.4,5c-1.1,0.9-2.7,0.9-3.9,0l-6.4-5c-0.9-0.7-2.2-0.7-3.1,0
	l-6.4,5c-1.1,0.9-2.7,0.9-3.9,0l-6.4-5c-0.9-0.7-2.2-0.7-3.1,0l-6.4,5c-1.1,0.9-2.7,0.9-3.9,0l-6.4-5c-0.9-0.7-2.2-0.7-3.1,0l-6.4,5
	c-1.1,0.9-2.7,0.9-3.9,0l-8.1-6.4l0.4-0.5l8.1,6.4c0.9,0.7,2.2,0.7,3.1,0l6.4-5c1.1-0.9,2.7-0.9,3.9,0l6.4,5c0.9,0.7,2.2,0.7,3.1,0
	l6.4-5c1.1-0.9,2.7-0.9,3.9,0l6.4,5c0.9,0.7,2.2,0.7,3.1,0l6.4-5c1.1-0.9,2.7-0.9,3.9,0l6.4,5c0.9,0.7,2.2,0.7,3.1,0l6.4-5
	c1.1-0.9,2.7-0.9,3.9,0l8.1,6.4L468.5,512.3z"/>
<path class="st0" d="M511.8,570l-8.1-6.4c-0.9-0.7-2.2-0.7-3.1,0l-6.4,5c-1.1,0.9-2.7,0.9-3.9,0l-6.4-5c-0.9-0.7-2.2-0.7-3.1,0
	l-6.4,5c-1.1,0.9-2.7,0.9-3.9,0l-6.4-5c-0.9-0.7-2.2-0.7-3.1,0l-6.4,5c-1.1,0.9-2.7,0.9-3.9,0l-6.4-5c-0.9-0.7-2.2-0.7-3.1,0l-6.4,5
	c-1.1,0.9-2.7,0.9-3.9,0l-8.1-6.4l0.4-0.5l8.1,6.4c0.9,0.7,2.2,0.7,3.1,0l6.4-5c1.1-0.9,2.7-0.9,3.9,0l6.4,5c0.9,0.7,2.2,0.7,3.1,0
	l6.4-5c1.1-0.9,2.7-0.9,3.9,0l6.4,5c0.9,0.7,2.2,0.7,3.1,0l6.4-5c1.1-0.9,2.7-0.9,3.9,0l6.4,5c0.9,0.7,2.2,0.7,3.1,0l6.4-5
	c1.1-0.9,2.7-0.9,3.9,0l8.1,6.4L511.8,570z"/>
<path class="st0" d="M145.8,217.3l-8.1-6.4c-0.9-0.7-2.2-0.7-3.1,0l-6.4,5c-1.1,0.9-2.7,0.9-3.9,0l-6.4-5c-0.9-0.7-2.2-0.7-3.1,0
	l-6.4,5c-1.1,0.9-2.7,0.9-3.9,0l-8.1-6.4l0.4-0.5l8.1,6.4c0.9,0.7,2.2,0.7,3.1,0l6.4-5c1.1-0.9,2.7-0.9,3.9,0l6.4,5
	c0.9,0.7,2.2,0.7,3.1,0l6.4-5c1.1-0.9,2.7-0.9,3.9,0l8.1,6.4L145.8,217.3z"/>
<path class="st0" d="M332.7,205.3l-8.1-6.4c-0.9-0.7-2.2-0.7-3.1,0l-6.4,5c-1.1,0.9-2.7,0.9-3.9,0l-6.4-5c-0.9-0.7-2.2-0.7-3.1,0
	l-6.4,5c-1.1,0.9-2.7,0.9-3.9,0l-6.4-5c-0.9-0.7-2.2-0.7-3.1,0l-6.4,5c-1.1,0.9-2.7,0.9-3.9,0l-6.4-5c-0.9-0.7-2.2-0.7-3.1,0l-6.4,5
	c-1.1,0.9-2.7,0.9-3.9,0l-8.1-6.4l0.4-0.5l8.1,6.4c0.9,0.7,2.2,0.7,3.1,0l6.4-5c1.1-0.9,2.7-0.9,3.9,0l6.4,5c0.9,0.7,2.2,0.7,3.1,0
	l6.4-5c1.1-0.9,2.7-0.9,3.9,0l6.4,5c0.9,0.7,2.2,0.7,3.1,0l6.4-5c1.1-0.9,2.7-0.9,3.9,0l6.4,5c0.9,0.7,2.2,0.7,3.1,0l6.4-5
	c1.1-0.9,2.7-0.9,3.9,0l8.1,6.4L332.7,205.3z"/>
<path class="st0" d="M309.9,190.8l-8.1-6.4c-0.9-0.7-2.2-0.7-3.1,0l-6.4,5c-1.1,0.9-2.7,0.9-3.9,0l-6.4-5c-0.9-0.7-2.2-0.7-3.1,0
	l-6.4,5c-1.1,0.9-2.7,0.9-3.9,0l-6.4-5c-0.9-0.7-2.2-0.7-3.1,0l-6.4,5c-1.1,0.9-2.7,0.9-3.9,0l-6.4-5c-0.9-0.7-2.2-0.7-3.1,0l-6.4,5
	c-1.1,0.9-2.7,0.9-3.9,0l-8.1-6.4l0.4-0.5l8.1,6.4c0.9,0.7,2.2,0.7,3.1,0l6.4-5c1.1-0.9,2.7-0.9,3.9,0l6.4,5c0.9,0.7,2.2,0.7,3.1,0
	l6.4-5c1.1-0.9,2.7-0.9,3.9,0l6.4,5c0.9,0.7,2.2,0.7,3.1,0l6.4-5c1.1-0.9,2.7-0.9,3.9,0l6.4,5c0.9,0.7,2.2,0.7,3.1,0l6.4-5
	c1.1-0.9,2.7-0.9,3.9,0l8.1,6.4L309.9,190.8z"/>
<path class="st0" d="M332.7,176.4l-8.1-6.4c-0.9-0.7-2.2-0.7-3.1,0l-6.4,5c-1.1,0.9-2.7,0.9-3.9,0l-6.4-5c-0.9-0.7-2.2-0.7-3.1,0
	l-6.4,5c-1.1,0.9-2.7,0.9-3.9,0l-6.4-5c-0.9-0.7-2.2-0.7-3.1,0l-6.4,5c-1.1,0.9-2.7,0.9-3.9,0l-6.4-5c-0.9-0.7-2.2-0.7-3.1,0l-6.4,5
	c-1.1,0.9-2.7,0.9-3.9,0l-8.1-6.4l0.4-0.5l8.1,6.4c0.9,0.7,2.2,0.7,3.1,0l6.4-5c1.1-0.9,2.7-0.9,3.9,0l6.4,5c0.9,0.7,2.2,0.7,3.1,0
	l6.4-5c1.1-0.9,2.7-0.9,3.9,0l6.4,5c0.9,0.7,2.2,0.7,3.1,0l6.4-5c1.1-0.9,2.7-0.9,3.9,0l6.4,5c0.9,0.7,2.2,0.7,3.1,0l6.4-5
	c1.1-0.9,2.7-0.9,3.9,0l8.1,6.4L332.7,176.4z"/>
<path class="st0" d="M504.9,358.2l-8.1-6.4c-0.9-0.7-2.2-0.7-3.1,0l-6.4,5c-1.1,0.9-2.7,0.9-3.9,0l-6.4-5c-0.9-0.7-2.2-0.7-3.1,0
	l-6.4,5c-1.1,0.9-2.7,0.9-3.9,0l-6.4-5c-0.9-0.7-2.2-0.7-3.1,0l-6.4,5c-1.1,0.9-2.7,0.9-3.9,0l-6.4-5c-0.9-0.7-2.2-0.7-3.1,0l-6.4,5
	c-1.1,0.9-2.7,0.9-3.9,0l-8.1-6.4l0.4-0.5l8.1,6.4c0.9,0.7,2.2,0.7,3.1,0l6.4-5c1.1-0.9,2.7-0.9,3.9,0l6.4,5c0.9,0.7,2.2,0.7,3.1,0
	l6.4-5c1.1-0.9,2.7-0.9,3.9,0l6.4,5c0.9,0.7,2.2,0.7,3.1,0l6.4-5c1.1-0.9,2.7-0.9,3.9,0l6.4,5c0.9,0.7,2.2,0.7,3.1,0l6.4-5
	c1.1-0.9,2.7-0.9,3.9,0l8.1,6.4L504.9,358.2z"/>
<path class="st0" d="M482,343.8l-8.1-6.4c-0.9-0.7-2.2-0.7-3.1,0l-6.4,5c-1.1,0.9-2.7,0.9-3.9,0l-6.4-5c-0.9-0.7-2.2-0.7-3.1,0
	l-6.4,5c-1.1,0.9-2.7,0.9-3.9,0l-6.4-5c-0.9-0.7-2.2-0.7-3.1,0l-6.4,5c-1.1,0.9-2.7,0.9-3.9,0l-6.4-5c-0.9-0.7-2.2-0.7-3.1,0l-6.4,5
	c-1.1,0.9-2.7,0.9-3.9,0L393,336l0.4-0.5l8.1,6.4c0.9,0.7,2.2,0.7,3.1,0l6.4-5c1.1-0.9,2.7-0.9,3.9,0l6.4,5c0.9,0.7,2.2,0.7,3.1,0
	l6.4-5c1.1-0.9,2.7-0.9,3.9,0l6.4,5c0.9,0.7,2.2,0.7,3.1,0l6.4-5c1.1-0.9,2.7-0.9,3.9,0l6.4,5c0.9,0.7,2.2,0.7,3.1,0l6.4-5
	c1.1-0.9,2.7-0.9,3.9,0l8.1,6.4L482,343.8z"/>
<path class="st0" d="M504.9,329.4l-8.1-6.4c-0.9-0.7-2.2-0.7-3.1,0l-6.4,5c-1.1,0.9-2.7,0.9-3.9,0l-6.4-5c-0.9-0.7-2.2-0.7-3.1,0
	l-6.4,5c-1.1,0.9-2.7,0.9-3.9,0l-6.4-5c-0.9-0.7-2.2-0.7-3.1,0l-6.4,5c-1.1,0.9-2.7,0.9-3.9,0l-6.4-5c-0.9-0.7-2.2-0.7-3.1,0l-6.4,5
	c-1.1,0.9-2.7,0.9-3.9,0l-8.1-6.4l0.4-0.5l8.1,6.4c0.9,0.7,2.2,0.7,3.1,0l6.4-5c1.1-0.9,2.7-0.9,3.9,0l6.4,5c0.9,0.7,2.2,0.7,3.1,0
	l6.4-5c1.1-0.9,2.7-0.9,3.9,0l6.4,5c0.9,0.7,2.2,0.7,3.1,0l6.4-5c1.1-0.9,2.7-0.9,3.9,0l6.4,5c0.9,0.7,2.2,0.7,3.1,0l6.4-5
	c1.1-0.9,2.7-0.9,3.9,0l8.1,6.4L504.9,329.4z"/>
<path class="st0" d="M581.7,388l-8.1-6.4c-0.9-0.7-2.2-0.7-3.1,0l-6.4,5c-1.1,0.9-2.7,0.9-3.9,0l-6.4-5c-0.9-0.7-2.2-0.7-3.1,0
	l-6.4,5c-1.1,0.9-2.7,0.9-3.9,0l-6.4-5c-0.9-0.7-2.2-0.7-3.1,0l-6.4,5c-1.1,0.9-2.7,0.9-3.9,0l-6.4-5c-0.9-0.7-2.2-0.7-3.1,0l-6.4,5
	c-1.1,0.9-2.7,0.9-3.9,0l-8.1-6.4l0.4-0.5l8.1,6.4c0.9,0.7,2.2,0.7,3.1,0l6.4-5c1.1-0.9,2.7-0.9,3.9,0l6.4,5c0.9,0.7,2.2,0.7,3.1,0
	l6.4-5c1.1-0.9,2.7-0.9,3.9,0l6.4,5c0.9,0.7,2.2,0.7,3.1,0l6.4-5c1.1-0.9,2.7-0.9,3.9,0l6.4,5c0.9,0.7,2.2,0.7,3.1,0l6.4-5
	c1.1-0.9,2.7-0.9,3.9,0l8.1,6.4L581.7,388z"/>
<path class="st0" d="M95.8,162.2l-8.1-6.4c-0.9-0.7-2.2-0.7-3.1,0l-6.4,5c-1.1,0.9-2.7,0.9-3.9,0l-6.4-5c-0.9-0.7-2.2-0.7-3.1,0
	l-6.4,5c-1.1,0.9-2.7,0.9-3.9,0l-6.4-5c-0.9-0.7-2.2-0.7-3.1,0l-6.4,5c-1.1,0.9-2.7,0.9-3.9,0l-6.4-5c-0.9-0.7-2.2-0.7-3.1,0l-6.4,5
	c-1.1,0.9-2.7,0.9-3.9,0l-8.1-6.4l0.4-0.5l8.1,6.4c0.9,0.7,2.2,0.7,3.1,0l6.4-5c1.1-0.9,2.7-0.9,3.9,0l6.4,5c0.9,0.7,2.2,0.7,3.1,0
	l6.4-5c1.1-0.9,2.7-0.9,3.9,0l6.4,5c0.9,0.7,2.2,0.7,3.1,0l6.4-5c1.1-0.9,2.7-0.9,3.9,0l6.4,5c0.9,0.7,2.2,0.7,3.1,0l6.4-5
	c1.1-0.9,2.7-0.9,3.9,0l8.1,6.4L95.8,162.2z"/>
<path class="st0" d="M95.8,133.3l-8.1-6.4c-0.9-0.7-2.2-0.7-3.1,0l-6.4,5c-1.1,0.9-2.7,0.9-3.9,0l-6.4-5c-0.9-0.7-2.2-0.7-3.1,0
	l-6.4,5c-1.1,0.9-2.7,0.9-3.9,0l-6.4-5c-0.9-0.7-2.2-0.7-3.1,0l-6.4,5c-1.1,0.9-2.7,0.9-3.9,0l-6.4-5c-0.9-0.7-2.2-0.7-3.1,0l-6.4,5
	c-1.1,0.9-2.7,0.9-3.9,0l-8.1-6.4l0.4-0.5l8.1,6.4c0.9,0.7,2.2,0.7,3.1,0l6.4-5c1.1-0.9,2.7-0.9,3.9,0l6.4,5c0.9,0.7,2.2,0.7,3.1,0
	l6.4-5c1.1-0.9,2.7-0.9,3.9,0l6.4,5c0.9,0.7,2.2,0.7,3.1,0l6.4-5c1.1-0.9,2.7-0.9,3.9,0l6.4,5c0.9,0.7,2.2,0.7,3.1,0l6.4-5
	c1.1-0.9,2.7-0.9,3.9,0l8.1,6.4L95.8,133.3z"/>
<path class="st0" d="M484.8,51.8l-8.1-6.4c-0.9-0.7-2.2-0.7-3.1,0l-6.4,5c-1.1,0.9-2.7,0.9-3.9,0l-6.4-5c-0.9-0.7-2.2-0.7-3.1,0
	l-6.4,5c-1.1,0.9-2.7,0.9-3.9,0l-6.4-5c-0.9-0.7-2.2-0.7-3.1,0l-6.4,5c-1.1,0.9-2.7,0.9-3.9,0l-6.4-5c-0.9-0.7-2.2-0.7-3.1,0l-6.4,5
	c-1.1,0.9-2.7,0.9-3.9,0l-8.1-6.4l0.4-0.5l8.1,6.4c0.9,0.7,2.2,0.7,3.1,0l6.4-5c1.1-0.9,2.7-0.9,3.9,0l6.4,5c0.9,0.7,2.2,0.7,3.1,0
	l6.4-5c1.1-0.9,2.7-0.9,3.9,0l6.4,5c0.9,0.7,2.2,0.7,3.1,0l6.4-5c1.1-0.9,2.7-0.9,3.9,0l6.4,5c0.9,0.7,2.2,0.7,3.1,0l6.4-5
	c1.1-0.9,2.7-0.9,3.9,0l8.1,6.4L484.8,51.8z"/>
<path class="st0" d="M462,37.4l-8.1-6.4c-0.9-0.7-2.2-0.7-3.1,0l-6.4,5c-1.1,0.9-2.7,0.9-3.9,0l-6.4-5c-0.9-0.7-2.2-0.7-3.1,0
	l-6.4,5c-1.1,0.9-2.7,0.9-3.9,0l-6.4-5c-0.9-0.7-2.2-0.7-3.1,0l-6.4,5c-1.1,0.9-2.7,0.9-3.9,0l-6.4-5c-0.9-0.7-2.2-0.7-3.1,0l-6.4,5
	c-1.1,0.9-2.7,0.9-3.9,0l-8.1-6.4l0.4-0.5l8.1,6.4c0.9,0.7,2.2,0.7,3.1,0l6.4-5c1.1-0.9,2.7-0.9,3.9,0l6.4,5c0.9,0.7,2.2,0.7,3.1,0
	l6.4-5c1.1-0.9,2.7-0.9,3.9,0l6.4,5c0.9,0.7,2.2,0.7,3.1,0l6.4-5c1.1-0.9,2.7-0.9,3.9,0l6.4,5c0.9,0.7,2.2,0.7,3.1,0l6.4-5
	c1.1-0.9,2.7-0.9,3.9,0l8.1,6.4L462,37.4z"/>
<path class="st0" d="M484.8,23l-8.1-6.4c-0.9-0.7-2.2-0.7-3.1,0l-6.4,5c-1.1,0.9-2.7,0.9-3.9,0l-6.4-5c-0.9-0.7-2.2-0.7-3.1,0
	l-6.4,5c-1.1,0.9-2.7,0.9-3.9,0l-6.4-5c-0.9-0.7-2.2-0.7-3.1,0l-6.4,5c-1.1,0.9-2.7,0.9-3.9,0l-6.4-5c-0.9-0.7-2.2-0.7-3.1,0l-6.4,5
	c-1.1,0.9-2.7,0.9-3.9,0l-8.1-6.4l0.4-0.5l8.1,6.4c0.9,0.7,2.2,0.7,3.1,0l6.4-5c1.1-0.9,2.7-0.9,3.9,0l6.4,5c0.9,0.7,2.2,0.7,3.1,0
	l6.4-5c1.1-0.9,2.7-0.9,3.9,0l6.4,5c0.9,0.7,2.2,0.7,3.1,0l6.4-5c1.1-0.9,2.7-0.9,3.9,0l6.4,5c0.9,0.7,2.2,0.7,3.1,0l6.4-5
	c1.1-0.9,2.7-0.9,3.9,0l8.1,6.4L484.8,23z"/>
<path class="st0" d="M186.3,530.6l-8.1-6.4c-0.9-0.7-2.2-0.7-3.1,0l-6.4,5c-1.1,0.9-2.7,0.9-3.9,0l-6.4-5c-0.9-0.7-2.2-0.7-3.1,0
	l-6.4,5c-1.1,0.9-2.7,0.9-3.9,0l-6.4-5c-0.9-0.7-2.2-0.7-3.1,0l-6.4,5c-1.1,0.9-2.7,0.9-3.9,0l-6.4-5c-0.9-0.7-2.2-0.7-3.1,0l-6.4,5
	c-1.1,0.9-2.7,0.9-3.9,0l-8.1-6.4l0.4-0.5l8.1,6.4c0.9,0.7,2.2,0.7,3.1,0l6.4-5c1.1-0.9,2.7-0.9,3.9,0l6.4,5c0.9,0.7,2.2,0.7,3.1,0
	l6.4-5c1.1-0.9,2.7-0.9,3.9,0l6.4,5c0.9,0.7,2.2,0.7,3.1,0l6.4-5c1.1-0.9,2.7-0.9,3.9,0l6.4,5c0.9,0.7,2.2,0.7,3.1,0l6.4-5
	c1.1-0.9,2.7-0.9,3.9,0l8.1,6.4L186.3,530.6z"/>
<path class="st0" d="M163.4,516.2l-8.1-6.4c-0.9-0.7-2.2-0.7-3.1,0l-6.4,5c-1.1,0.9-2.7,0.9-3.9,0l-6.4-5c-0.9-0.7-2.2-0.7-3.1,0
	l-6.4,5c-1.1,0.9-2.7,0.9-3.9,0l-6.4-5c-0.9-0.7-2.2-0.7-3.1,0l-6.4,5c-1.1,0.9-2.7,0.9-3.9,0l-6.4-5c-0.9-0.7-2.2-0.7-3.1,0l-6.4,5
	c-1.1,0.9-2.7,0.9-3.9,0l-8.1-6.4l0.4-0.5l8.1,6.4c0.9,0.7,2.2,0.7,3.1,0l6.4-5c1.1-0.9,2.7-0.9,3.9,0l6.4,5c0.9,0.7,2.2,0.7,3.1,0
	l6.4-5c1.1-0.9,2.7-0.9,3.9,0l6.4,5c0.9,0.7,2.2,0.7,3.1,0l6.4-5c1.1-0.9,2.7-0.9,3.9,0l6.4,5c0.9,0.7,2.2,0.7,3.1,0l6.4-5
	c1.1-0.9,2.7-0.9,3.9,0l8.1,6.4L163.4,516.2z"/>
<g>
	<path class="st0" d="M186.3,501.8l-8.1-6.4c-0.9-0.7-2.2-0.7-3.1,0l-6.4,5c-1.1,0.9-2.7,0.9-3.9,0l-6.4-5c-0.9-0.7-2.2-0.7-3.1,0
		l-6.4,5c-1.1,0.9-2.7,0.9-3.9,0l-6.4-5c-0.9-0.7-2.2-0.7-3.1,0l-6.4,5c-1.1,0.9-2.7,0.9-3.9,0l-6.4-5c-0.9-0.7-2.2-0.7-3.1,0
		l-6.4,5c-1.1,0.9-2.7,0.9-3.9,0l-8.1-6.4l0.4-0.5l8.1,6.4c0.9,0.7,2.2,0.7,3.1,0l6.4-5c1.1-0.9,2.7-0.9,3.9,0l6.4,5
		c0.9,0.7,2.2,0.7,3.1,0l6.4-5c1.1-0.9,2.7-0.9,3.9,0l6.4,5c0.9,0.7,2.2,0.7,3.1,0l6.4-5c1.1-0.9,2.7-0.9,3.9,0l6.4,5
		c0.9,0.7,2.2,0.7,3.1,0l6.4-5c1.1-0.9,2.7-0.9,3.9,0l8.1,6.4L186.3,501.8z"/>
</g>
<path class="st0" d="M507,98.5l-8.1-6.4c-0.9-0.7-2.2-0.7-3.1,0l-6.4,5c-1.1,0.9-2.7,0.9-3.9,0l-6.4-5c-0.9-0.7-2.2-0.7-3.1,0
	l-6.4,5c-1.1,0.9-2.7,0.9-3.9,0l-6.4-5c-0.9-0.7-2.2-0.7-3.1,0l-6.4,5c-1.1,0.9-2.7,0.9-3.9,0l-6.4-5c-0.9-0.7-2.2-0.7-3.1,0l-6.4,5
	c-1.1,0.9-2.7,0.9-3.9,0l-8.1-6.4l0.4-0.5l8.1,6.4c0.9,0.7,2.2,0.7,3.1,0l6.4-5c1.1-0.9,2.7-0.9,3.9,0l6.4,5c0.9,0.7,2.2,0.7,3.1,0
	l6.4-5c1.1-0.9,2.7-0.9,3.9,0l6.4,5c0.9,0.7,2.2,0.7,3.1,0l6.4-5c1.1-0.9,2.7-0.9,3.9,0l6.4,5c0.9,0.7,2.2,0.7,3.1,0l6.4-5
	c1.1-0.9,2.7-0.9,3.9,0l8.1,6.4L507,98.5z"/>
<path class="st0" d="M484.1,84.1l-8.1-6.4c-0.9-0.7-2.2-0.7-3.1,0l-6.4,5c-1.1,0.9-2.7,0.9-3.9,0l-6.4-5c-0.9-0.7-2.2-0.7-3.1,0
	l-6.4,5c-1.1,0.9-2.7,0.9-3.9,0l-6.4-5c-0.9-0.7-2.2-0.7-3.1,0l-6.4,5c-1.1,0.9-2.7,0.9-3.9,0l-6.4-5c-0.9-0.7-2.2-0.7-3.1,0l-6.4,5
	c-1.1,0.9-2.7,0.9-3.9,0l-8.1-6.4l0.4-0.5l8.1,6.4c0.9,0.7,2.2,0.7,3.1,0l6.4-5c1.1-0.9,2.7-0.9,3.9,0l6.4,5c0.9,0.7,2.2,0.7,3.1,0
	l6.4-5c1.1-0.9,2.7-0.9,3.9,0l6.4,5c0.9,0.7,2.2,0.7,3.1,0l6.4-5c1.1-0.9,2.7-0.9,3.9,0l6.4,5c0.9,0.7,2.2,0.7,3.1,0l6.4-5
	c1.1-0.9,2.7-0.9,3.9,0l8.1,6.4L484.1,84.1z"/>
<path class="st0" d="M507,69.6l-8.1-6.4c-0.9-0.7-2.2-0.7-3.1,0l-6.4,5c-1.1,0.9-2.7,0.9-3.9,0l-6.4-5c-0.9-0.7-2.2-0.7-3.1,0
	l-6.4,5c-1.1,0.9-2.7,0.9-3.9,0l-6.4-5c-0.9-0.7-2.2-0.7-3.1,0l-6.4,5c-1.1,0.9-2.7,0.9-3.9,0l-6.4-5c-0.9-0.7-2.2-0.7-3.1,0l-6.4,5
	c-1.1,0.9-2.7,0.9-3.9,0l-8.1-6.4l0.4-0.5l8.1,6.4c0.9,0.7,2.2,0.7,3.1,0l6.4-5c1.1-0.9,2.7-0.9,3.9,0l6.4,5c0.9,0.7,2.2,0.7,3.1,0
	l6.4-5c1.1-0.9,2.7-0.9,3.9,0l6.4,5c0.9,0.7,2.2,0.7,3.1,0l6.4-5c1.1-0.9,2.7-0.9,3.9,0l6.4,5c0.9,0.7,2.2,0.7,3.1,0l6.4-5
	c1.1-0.9,2.7-0.9,3.9,0l8.1,6.4L507,69.6z"/>
<path class="st0" d="M166,51.1l-8.1-6.4c-0.9-0.7-2.2-0.7-3.1,0l-6.4,5c-1.1,0.9-2.7,0.9-3.9,0l-6.4-5c-0.9-0.7-2.2-0.7-3.1,0
	l-6.4,5c-1.1,0.9-2.7,0.9-3.9,0l-6.4-5c-0.9-0.7-2.2-0.7-3.1,0l-6.4,5c-1.1,0.9-2.7,0.9-3.9,0l-6.4-5c-0.9-0.7-2.2-0.7-3.1,0l-6.4,5
	c-1.1,0.9-2.7,0.9-3.9,0L77,43.3l0.4-0.5l8.1,6.4c0.9,0.7,2.2,0.7,3.1,0l6.4-5c1.1-0.9,2.7-0.9,3.9,0l6.4,5c0.9,0.7,2.2,0.7,3.1,0
	l6.4-5c1.1-0.9,2.7-0.9,3.9,0l6.4,5c0.9,0.7,2.2,0.7,3.1,0l6.4-5c1.1-0.9,2.7-0.9,3.9,0l6.4,5c0.9,0.7,2.2,0.7,3.1,0l6.4-5
	c1.1-0.9,2.7-0.9,3.9,0l8.1,6.4L166,51.1z"/>
<path class="st0" d="M143.2,36.7l-8.1-6.4c-0.9-0.7-2.2-0.7-3.1,0l-6.4,5c-1.1,0.9-2.7,0.9-3.9,0l-6.4-5c-0.9-0.7-2.2-0.7-3.1,0
	l-6.4,5c-1.1,0.9-2.7,0.9-3.9,0l-6.4-5c-0.9-0.7-2.2-0.7-3.1,0l-6.4,5c-1.1,0.9-2.7,0.9-3.9,0l-6.4-5c-0.9-0.7-2.2-0.7-3.1,0l-6.4,5
	c-1.1,0.9-2.7,0.9-3.9,0l-8.1-6.4l0.4-0.5l8.1,6.4c0.9,0.7,2.2,0.7,3.1,0l6.4-5c1.1-0.9,2.7-0.9,3.9,0l6.4,5c0.9,0.7,2.2,0.7,3.1,0
	l6.4-5c1.1-0.9,2.7-0.9,3.9,0l6.4,5c0.9,0.7,2.2,0.7,3.1,0l6.4-5c1.1-0.9,2.7-0.9,3.9,0l6.4,5c0.9,0.7,2.2,0.7,3.1,0l6.4-5
	c1.1-0.9,2.7-0.9,3.9,0l8.1,6.4L143.2,36.7z"/>
<path class="st0" d="M166,22.3l-8.1-6.4c-0.9-0.7-2.2-0.7-3.1,0l-6.4,5c-1.1,0.9-2.7,0.9-3.9,0l-6.4-5c-0.9-0.7-2.2-0.7-3.1,0
	l-6.4,5c-1.1,0.9-2.7,0.9-3.9,0l-6.4-5c-0.9-0.7-2.2-0.7-3.1,0l-6.4,5c-1.1,0.9-2.7,0.9-3.9,0l-6.4-5c-0.9-0.7-2.2-0.7-3.1,0l-6.4,5
	c-1.1,0.9-2.7,0.9-3.9,0L77,14.4l0.4-0.5l8.1,6.4c0.9,0.7,2.2,0.7,3.1,0l6.4-5c1.1-0.9,2.7-0.9,3.9,0l6.4,5c0.9,0.7,2.2,0.7,3.1,0
	l6.4-5c1.1-0.9,2.7-0.9,3.9,0l6.4,5c0.9,0.7,2.2,0.7,3.1,0l6.4-5c1.1-0.9,2.7-0.9,3.9,0l6.4,5c0.9,0.7,2.2,0.7,3.1,0l6.4-5
	c1.1-0.9,2.7-0.9,3.9,0l8.1,6.4L166,22.3z"/>
<path class="st0" d="M229.2,444.8l-8.1-6.4c-0.9-0.7-2.2-0.7-3.1,0l-6.4,5c-1.1,0.9-2.7,0.9-3.9,0l-6.4-5c-0.9-0.7-2.2-0.7-3.1,0
	l-6.4,5c-1.1,0.9-2.7,0.9-3.9,0l-8.1-6.4l0.4-0.5l8.1,6.4c0.9,0.7,2.2,0.7,3.1,0l6.4-5c1.1-0.9,2.7-0.9,3.9,0l6.4,5
	c0.9,0.7,2.2,0.7,3.1,0l6.4-5c1.1-0.9,2.7-0.9,3.9,0l8.1,6.4L229.2,444.8z"/>
<path class="st0" d="M249.6,431.6l-8.1-6.4c-0.9-0.7-2.2-0.7-3.1,0l-6.4,5c-1.1,0.9-2.7,0.9-3.9,0l-6.4-5c-0.9-0.7-2.2-0.7-3.1,0
	l-6.4,5c-1.1,0.9-2.7,0.9-3.9,0l-8.1-6.4l0.4-0.5l8.1,6.4c0.9,0.7,2.2,0.7,3.1,0l6.4-5c1.1-0.9,2.7-0.9,3.9,0l6.4,5
	c0.9,0.7,2.2,0.7,3.1,0l6.4-5c1.1-0.9,2.7-0.9,3.9,0l8.1,6.4L249.6,431.6z"/>
<path class="st0" d="M205.9,360.8l-8.1-6.4c-0.9-0.7-2.2-0.7-3.1,0l-6.4,5c-1.1,0.9-2.7,0.9-3.9,0l-6.4-5c-0.9-0.7-2.2-0.7-3.1,0
	l-6.4,5c-1.1,0.9-2.7,0.9-3.9,0l-8.1-6.4l0.4-0.5l8.1,6.4c0.9,0.7,2.2,0.7,3.1,0l6.4-5c1.1-0.9,2.7-0.9,3.9,0l6.4,5
	c0.9,0.7,2.2,0.7,3.1,0l6.4-5c1.1-0.9,2.7-0.9,3.9,0l8.1,6.4L205.9,360.8z"/>
<path class="st0" d="M226.3,347.5l-8.1-6.4c-0.9-0.7-2.2-0.7-3.1,0l-6.4,5c-1.1,0.9-2.7,0.9-3.9,0l-6.4-5c-0.9-0.7-2.2-0.7-3.1,0
	l-6.4,5c-1.1,0.9-2.7,0.9-3.9,0l-8.1-6.4l0.4-0.5l8.1,6.4c0.9,0.7,2.2,0.7,3.1,0l6.4-5c1.1-0.9,2.7-0.9,3.9,0l6.4,5
	c0.9,0.7,2.2,0.7,3.1,0l6.4-5c1.1-0.9,2.7-0.9,3.9,0l8.1,6.4L226.3,347.5z"/>
<path class="st0" d="M527.8,212l-8.1-6.4c-0.9-0.7-2.2-0.7-3.1,0l-6.4,5c-1.1,0.9-2.7,0.9-3.9,0l-6.4-5c-0.9-0.7-2.2-0.7-3.1,0
	l-6.4,5c-1.1,0.9-2.7,0.9-3.9,0l-8.1-6.4l0.4-0.5l8.1,6.4c0.9,0.7,2.2,0.7,3.1,0l6.4-5c1.1-0.9,2.7-0.9,3.9,0l6.4,5
	c0.9,0.7,2.2,0.7,3.1,0l6.4-5c1.1-0.9,2.7-0.9,3.9,0l8.1,6.4L527.8,212z"/>
<path class="st0" d="M548.2,201.1l-8.1-6.4c-0.9-0.7-2.2-0.7-3.1,0l-6.4,5c-1.1,0.9-2.7,0.9-3.9,0l-6.4-5c-0.9-0.7-2.2-0.7-3.1,0
	l-6.4,5c-1.1,0.9-2.7,0.9-3.9,0l-8.1-6.4l0.4-0.5l8.1,6.4c0.9,0.7,2.2,0.7,3.1,0l6.4-5c1.1-0.9,2.7-0.9,3.9,0l6.4,5
	c0.9,0.7,2.2,0.7,3.1,0l6.4-5c1.1-0.9,2.7-0.9,3.9,0l8.1,6.4L548.2,201.1z"/>
<path class="st0" d="M505.3,188.1l-8.1-6.4c-0.9-0.7-2.2-0.7-3.1,0l-6.4,5c-1.1,0.9-2.7,0.9-3.9,0l-6.4-5c-0.9-0.7-2.2-0.7-3.1,0
	l-6.4,5c-1.1,0.9-2.7,0.9-3.9,0l-8.1-6.4l0.4-0.5l8.1,6.4c0.9,0.7,2.2,0.7,3.1,0l6.4-5c1.1-0.9,2.7-0.9,3.9,0l6.4,5
	c0.9,0.7,2.2,0.7,3.1,0l6.4-5c1.1-0.9,2.7-0.9,3.9,0l8.1,6.4L505.3,188.1z"/>
<path class="st0" d="M525.6,174.9l-8.1-6.4c-0.9-0.7-2.2-0.7-3.1,0l-6.4,5c-1.1,0.9-2.7,0.9-3.9,0l-6.4-5c-0.9-0.7-2.2-0.7-3.1,0
	l-6.4,5c-1.1,0.9-2.7,0.9-3.9,0l-8.1-6.4l0.4-0.5l8.1,6.4c0.9,0.7,2.2,0.7,3.1,0l6.4-5c1.1-0.9,2.7-0.9,3.9,0l6.4,5
	c0.9,0.7,2.2,0.7,3.1,0l6.4-5c1.1-0.9,2.7-0.9,3.9,0l8.1,6.4L525.6,174.9z"/>
<path class="st0" d="M595.3,366c-0.8-0.1-1.7,0.1-2.3,0.6l-6.4,5c-0.9,0.7-2.2,0.7-3.1,0l-6.4-5c-1.1-0.9-2.7-0.9-3.9,0l-6.4,5
	c-0.9,0.7-2.2,0.7-3.1,0l-6.4-5c-1.1-0.9-2.7-0.9-3.9,0l-6.4,5c-0.9,0.7-2.2,0.7-3.1,0l-6.4-5c-1.1-0.9-2.7-0.9-3.9,0l-6.4,5
	c-0.9,0.7-2.2,0.7-3.1,0l-8.1-6.4l-0.4,0.5l8.1,6.4c1.1,0.9,2.7,0.9,3.9,0l6.4-5c0.9-0.7,2.2-0.7,3.1,0l6.4,5c1.1,0.9,2.7,0.9,3.9,0
	l6.4-5c0.9-0.7,2.2-0.7,3.1,0l6.4,5c1.1,0.9,2.7,0.9,3.9,0l6.4-5c0.9-0.7,2.2-0.7,3.1,0l6.4,5c1.1,0.9,2.7,0.9,3.9,0l6.4-5
	c0.6-0.5,1.3-0.6,2-0.5V366z"/>
<path class="st0" d="M595.3,394.9c-0.8-0.1-1.7,0.1-2.3,0.6l-6.4,5c-0.9,0.7-2.2,0.7-3.1,0l-6.4-5c-1.1-0.9-2.7-0.9-3.9,0l-6.4,5
	c-0.9,0.7-2.2,0.7-3.1,0l-6.4-5c-1.1-0.9-2.7-0.9-3.9,0l-6.4,5c-0.9,0.7-2.2,0.7-3.1,0l-6.4-5c-1.1-0.9-2.7-0.9-3.9,0l-6.4,5
	c-0.9,0.7-2.2,0.7-3.1,0l-8.1-6.4l-0.4,0.5l8.1,6.4c1.1,0.9,2.7,0.9,3.9,0l6.4-5c0.9-0.7,2.2-0.7,3.1,0l6.4,5c1.1,0.9,2.7,0.9,3.9,0
	l6.4-5c0.9-0.7,2.2-0.7,3.1,0l6.4,5c1.1,0.9,2.7,0.9,3.9,0l6.4-5c0.9-0.7,2.2-0.7,3.1,0l6.4,5c1.1,0.9,2.7,0.9,3.9,0l6.4-5
	c0.6-0.5,1.3-0.6,2-0.5V394.9z"/>
<g>
	<path class="st0" d="M432.6,595.3l3.5-2.8c0.9-0.7,2.2-0.7,3.1,0l3.5,2.8h1l-4.1-3.3c-1.1-0.9-2.7-0.9-3.9,0l-4.1,3.3H432.6z"/>
	<path class="st0" d="M452.4,595.3l3.5-2.8c0.9-0.7,2.2-0.7,3.1,0l3.5,2.8h1l-4.1-3.3c-1.1-0.9-2.7-0.9-3.9,0l-4.1,3.3H452.4z"/>
	<path class="st0" d="M412.8,595.3l3.5-2.8c0.9-0.7,2.2-0.7,3.1,0l3.5,2.8h1l-4.1-3.3c-1.1-0.9-2.7-0.9-3.9,0l-4.1,3.3H412.8z"/>
	<path class="st0" d="M393,595.3l3.5-2.8c0.9-0.7,2.2-0.7,3.1,0l3.5,2.8h1L400,592c-1.1-0.9-2.7-0.9-3.9,0l-4.1,3.3H393z"/>
	<polygon class="st0" points="384.4,595.3 378.5,590.6 378.1,591.1 383.4,595.3 	"/>
</g>
<g>
	<path class="st0" d="M109.4,0l-3.3,2.6c-0.9,0.7-2.2,0.7-3.1,0L99.7,0h-1l3.9,3.1c1.1,0.9,2.7,0.9,3.9,0l3.9-3.1H109.4z"/>
	<path class="st0" d="M69.8,0l-3.3,2.6c-0.9,0.7-2.2,0.7-3.1,0L60.1,0h-1L63,3.1c1.1,0.9,2.7,0.9,3.9,0L70.7,0H69.8z"/>
	<path class="st0" d="M89.6,0l-3.3,2.6c-0.9,0.7-2.2,0.7-3.1,0L79.9,0h-1l3.9,3.1c1.1,0.9,2.7,0.9,3.9,0L90.5,0H89.6z"/>
	<path class="st0" d="M129.1,0l-3.3,2.6c-0.9,0.7-2.2,0.7-3.1,0L119.4,0h-1l3.9,3.1c1.1,0.9,2.7,0.9,3.9,0l3.9-3.1H129.1z"/>
	<polygon class="st0" points="138.3,0 143.9,4.5 144.3,4 139.2,0 	"/>
</g>
<path class="st0" d="M65.1,140.8c-1.1-0.9-2.7-0.9-3.9,0l-6.4,5c-0.9,0.7-2.2,0.7-3.1,0l-6.4-5c-1.1-0.9-2.7-0.9-3.9,0l-6.4,5
	c-0.9,0.7-2.2,0.7-3.1,0l-6.4-5c-1.1-0.9-2.7-0.9-3.9,0l-6.4,5c-0.9,0.7-2.2,0.7-3.1,0l-6.4-5c-1.1-0.9-2.7-0.9-3.9,0L0,142.3v0.8
	l2.3-1.8c0.9-0.7,2.2-0.7,3.1,0l6.4,5c1.1,0.9,2.7,0.9,3.9,0l6.4-5c0.9-0.7,2.2-0.7,3.1,0l6.4,5c1.1,0.9,2.7,0.9,3.9,0l6.4-5
	c0.9-0.7,2.2-0.7,3.1,0l6.4,5c1.1,0.9,2.7,0.9,3.9,0l6.4-5c0.9-0.7,2.2-0.7,3.1,0l8.1,6.4l0.4-0.5L65.1,140.8z"/>
<path class="st0" d="M68,319.1c-1.1-0.9-2.7-0.9-3.9,0l-6.4,5c-0.9,0.7-2.2,0.7-3.1,0l-6.4-5c-1.1-0.9-2.7-0.9-3.9,0l-6.4,5
	c-0.9,0.7-2.2,0.7-3.1,0l-6.4-5c-1.1-0.9-2.7-0.9-3.9,0l-6.4,5c-0.9,0.7-2.2,0.7-3.1,0l-6.4-5c-1.1-0.9-2.7-0.9-3.9,0L0,322.8v0.8
	l5.1-4c0.9-0.7,2.2-0.7,3.1,0l6.4,5c1.1,0.9,2.7,0.9,3.9,0l6.4-5c0.9-0.7,2.2-0.7,3.1,0l6.4,5c1.1,0.9,2.7,0.9,3.9,0l6.4-5
	c0.9-0.7,2.2-0.7,3.1,0l6.4,5c1.1,0.9,2.7,0.9,3.9,0l6.4-5c0.9-0.7,2.2-0.7,3.1,0l8.1,6.4l0.4-0.5L68,319.1z"/>
<path class="st0" d="M66.6,405.7c-1.1-0.9-2.7-0.9-3.9,0l-6.4,5c-0.9,0.7-2.2,0.7-3.1,0l-6.4-5c-1.1-0.9-2.7-0.9-3.9,0l-6.4,5
	c-0.9,0.7-2.2,0.7-3.1,0l-6.4-5c-1.1-0.9-2.7-0.9-3.9,0l-6.4,5c-0.9,0.7-2.2,0.7-3.1,0l-6.4-5c-1.1-0.9-2.7-0.9-3.9,0L0,408.4v0.8
	l3.8-3c0.9-0.7,2.2-0.7,3.1,0l6.4,5c1.1,0.9,2.7,0.9,3.9,0l6.4-5c0.9-0.7,2.2-0.7,3.1,0l6.4,5c1.1,0.9,2.7,0.9,3.9,0l6.4-5
	c0.9-0.7,2.2-0.7,3.1,0l6.4,5c1.1,0.9,2.7,0.9,3.9,0l6.4-5c0.9-0.7,2.2-0.7,3.1,0l8.1,6.4l0.4-0.5L66.6,405.7z"/>
</svg>
