<?xml version="1.0" encoding="utf-8"?>
<!-- Generator: Adobe Illustrator 25.3.1, SVG Export Plug-In . SVG Version: 6.00 Build 0)  -->
<svg version="1.1" id="Layer_2" xmlns="http://www.w3.org/2000/svg" xmlns:xlink="http://www.w3.org/1999/xlink" x="0px" y="0px"
	 viewBox="0 0 595.3 595.3" style="enable-background:new 0 0 595.3 595.3;" xml:space="preserve">
<style type="text/css">
	.st0{fill:#FFFFFF;}
</style>
<rect x="396.4" y="87.4" transform="matrix(0.9585 -0.2852 0.2852 0.9585 -12.4143 117.3403)" class="st0" width="0.5" height="27.9"/>
<polygon class="st0" points="543,122.4 542.7,121.9 566.2,106.9 566.5,107.4 "/>
<rect x="219.9" y="287.3" transform="matrix(0.9362 -0.3514 0.3514 0.9362 -91.8141 96.5611)" class="st0" width="0.5" height="27.9"/>
<rect x="461.3" y="260.3" transform="matrix(0.8697 -0.4935 0.4935 0.8697 -75.2254 263.5443)" class="st0" width="0.5" height="27.9"/>
<rect x="37.7" y="231.2" transform="matrix(0.7478 -0.6639 0.6639 0.7478 -140.6093 92.6372)" class="st0" width="27.9" height="0.5"/>
<rect x="137.2" y="6.1" transform="matrix(0.7124 -0.7018 0.7018 0.7124 25.5024 102.2473)" class="st0" width="0.5" height="27.9"/>
<rect x="213.8" y="135.9" transform="matrix(0.4135 -0.9105 0.9105 0.4135 -10.8797 282.7805)" class="st0" width="0.5" height="27.9"/>
<rect x="275.7" y="188.9" transform="matrix(0.7478 -0.6639 0.6639 0.7478 -52.5475 239.9763)" class="st0" width="27.9" height="0.5"/>
<polygon class="st0" points="347.3,262.3 324.4,246.6 324.6,246.2 347.6,261.9 "/>
<rect x="494.6" y="167.1" transform="matrix(0.4135 -0.9105 0.9105 0.4135 125.422 556.6998)" class="st0" width="0.5" height="27.9"/>
<rect x="202" y="36.5" transform="matrix(0.5937 -0.8047 0.8047 0.5937 58.149 188.7116)" class="st0" width="27.9" height="0.5"/>
<rect x="153.6" y="68.2" transform="matrix(0.7123 -0.7018 0.7018 0.7123 -13.3608 131.588)" class="st0" width="0.5" height="27.9"/>
<rect x="556.2" y="273.2" transform="matrix(0.4135 -0.9105 0.9105 0.4135 64.9069 675.0208)" class="st0" width="0.5" height="27.9"/>
<path class="st0" d="M195.6,125.3c-0.3,0-0.7-0.1-1-0.2c-0.7-0.3-1.3-0.8-1.6-1.5c-0.3-0.7-0.3-1.5-0.1-2.2c0.6-1.5,2.2-2.2,3.7-1.7
	c1.5,0.6,2.2,2.2,1.7,3.7l0,0c-0.3,0.7-0.8,1.3-1.5,1.6C196.4,125.2,196,125.3,195.6,125.3z M195.6,120c-1,0-1.9,0.6-2.2,1.5
	c-0.2,0.6-0.2,1.2,0,1.8c0.3,0.6,0.7,1,1.3,1.3c0.6,0.2,1.2,0.2,1.8,0c0.6-0.3,1-0.7,1.3-1.3v0c0.5-1.2-0.1-2.6-1.4-3.1
	C196.2,120.1,195.9,120,195.6,120z"/>
<path class="st0" d="M163.8,192.8c-0.3,0-0.7-0.1-1-0.2c-0.7-0.3-1.3-0.8-1.6-1.5c-0.3-0.7-0.3-1.5-0.1-2.2c0.6-1.5,2.2-2.2,3.7-1.7
	c1.5,0.6,2.2,2.2,1.7,3.7l0,0c-0.3,0.7-0.8,1.3-1.5,1.6C164.6,192.7,164.2,192.8,163.8,192.8z M163.8,187.5c-1,0-1.9,0.6-2.2,1.5
	c-0.2,0.6-0.2,1.2,0,1.8c0.3,0.6,0.7,1,1.3,1.3c0.6,0.2,1.2,0.2,1.8,0c0.6-0.3,1-0.7,1.3-1.3v0c0.5-1.2-0.1-2.6-1.4-3.1
	C164.4,187.6,164.1,187.5,163.8,187.5z"/>
<path class="st0" d="M18.9,149.8c-0.3,0-0.7-0.1-1-0.2c-0.7-0.3-1.3-0.8-1.6-1.5c-0.3-0.7-0.3-1.5-0.1-2.2c0.6-1.5,2.2-2.2,3.7-1.7
	c1.5,0.6,2.2,2.2,1.7,3.7l0,0c-0.3,0.7-0.8,1.3-1.5,1.6C19.7,149.7,19.3,149.8,18.9,149.8z M18.9,144.5c-1,0-1.9,0.6-2.2,1.5
	c-0.2,0.6-0.2,1.2,0,1.8c0.3,0.6,0.7,1,1.3,1.3s1.2,0.2,1.8,0c0.6-0.3,1-0.7,1.3-1.3v0c0.5-1.2-0.1-2.6-1.4-3.1
	C19.5,144.6,19.2,144.5,18.9,144.5z"/>
<path class="st0" d="M327.1,186.8c-0.3,0-0.7-0.1-1-0.2c-0.7-0.3-1.3-0.8-1.6-1.5c-0.3-0.7-0.3-1.5-0.1-2.2c0.3-0.7,0.8-1.3,1.5-1.6
	c0.7-0.3,1.5-0.3,2.2-0.1c1.5,0.6,2.2,2.2,1.7,3.7c-0.3,0.7-0.8,1.3-1.5,1.6C327.9,186.7,327.5,186.8,327.1,186.8z M327.1,181.5
	c-0.3,0-0.7,0.1-1,0.2c-0.6,0.3-1,0.7-1.3,1.3c-0.2,0.6-0.2,1.2,0,1.8c0.3,0.6,0.7,1,1.3,1.3c0.6,0.2,1.2,0.2,1.8,0
	c0.6-0.3,1-0.7,1.3-1.3v0c0.5-1.2-0.1-2.6-1.4-3.1C327.7,181.6,327.4,181.5,327.1,181.5z"/>
<path class="st0" d="M470.7,201.5c-0.3,0-0.7-0.1-1-0.2c-0.7-0.3-1.3-0.8-1.6-1.5c-0.3-0.7-0.3-1.5-0.1-2.2c0.3-0.7,0.8-1.3,1.5-1.6
	c0.7-0.3,1.5-0.3,2.2-0.1c1.5,0.6,2.2,2.2,1.7,3.7l0,0c-0.3,0.7-0.8,1.3-1.5,1.6C471.5,201.4,471.1,201.5,470.7,201.5z M470.7,196.2
	c-0.3,0-0.7,0.1-1,0.2c-0.6,0.3-1,0.7-1.3,1.3c-0.2,0.6-0.2,1.2,0,1.8c0.3,0.6,0.7,1,1.3,1.3c0.6,0.2,1.2,0.2,1.8,0
	c0.6-0.3,1-0.7,1.3-1.3v0c0.5-1.2-0.1-2.6-1.4-3.1C471.3,196.3,471,196.2,470.7,196.2z"/>
<path class="st0" d="M566.5,173.5c-0.3,0-0.7-0.1-1-0.2c-0.7-0.3-1.3-0.8-1.6-1.5c-0.3-0.7-0.3-1.5-0.1-2.2c0.6-1.5,2.2-2.2,3.7-1.7
	c1.5,0.6,2.2,2.2,1.7,3.7l0,0C568.8,172.8,567.7,173.5,566.5,173.5z M566.5,168.2c-0.3,0-0.7,0.1-1,0.2c-0.6,0.3-1,0.7-1.3,1.3
	c-0.2,0.6-0.2,1.2,0,1.8c0.3,0.6,0.7,1,1.3,1.3c1.2,0.5,2.6-0.1,3.1-1.4v0c0.5-1.2-0.1-2.6-1.4-3.1
	C567.1,168.3,566.8,168.2,566.5,168.2z"/>
<path class="st0" d="M470.7,32.3c-0.3,0-0.7-0.1-1-0.2c-0.7-0.3-1.3-0.8-1.6-1.5c-0.3-0.7-0.3-1.5-0.1-2.2c0.3-0.7,0.8-1.3,1.5-1.6
	c0.7-0.3,1.5-0.3,2.2-0.1c1.5,0.6,2.2,2.2,1.7,3.7c-0.3,0.7-0.8,1.3-1.5,1.6C471.5,32.2,471.1,32.3,470.7,32.3z M470.7,27
	c-0.3,0-0.7,0.1-1,0.2c-0.6,0.3-1,0.7-1.3,1.3c-0.2,0.6-0.2,1.2,0,1.8s0.7,1,1.3,1.3c0.6,0.2,1.2,0.2,1.8,0c0.6-0.3,1-0.7,1.3-1.3v0
	c0.5-1.2-0.1-2.6-1.4-3.1C471.3,27.1,471,27,470.7,27z"/>
<path class="st0" d="M468.1,439.3c-0.3,0-0.7-0.1-1-0.2c-0.7-0.3-1.3-0.8-1.6-1.5c-0.3-0.7-0.3-1.5-0.1-2.2c0.3-0.7,0.8-1.3,1.5-1.6
	c0.7-0.3,1.5-0.3,2.2-0.1c1.5,0.6,2.2,2.2,1.7,3.7C470.3,438.6,469.2,439.3,468.1,439.3z M468.1,434c-0.3,0-0.7,0.1-1,0.2
	c-0.6,0.3-1,0.7-1.3,1.3c-0.2,0.6-0.2,1.2,0,1.8s0.7,1,1.3,1.3c1.2,0.5,2.6-0.1,3.1-1.4l0,0c0.5-1.2-0.1-2.6-1.4-3.1
	C468.7,434.1,468.4,434,468.1,434z"/>
<path class="st0" d="M41.2,101.5c-0.3,0-0.7-0.1-1-0.2c-0.7-0.3-1.3-0.8-1.6-1.5c-0.3-0.7-0.3-1.5-0.1-2.2c0.6-1.5,2.2-2.2,3.7-1.7
	c1.5,0.6,2.2,2.2,1.7,3.7l0,0c-0.3,0.7-0.8,1.3-1.5,1.6C42,101.5,41.6,101.5,41.2,101.5z M41.2,96.3c-1,0-1.9,0.6-2.2,1.5
	c-0.2,0.6-0.2,1.2,0,1.8c0.3,0.6,0.7,1,1.3,1.3c0.6,0.2,1.2,0.2,1.8,0c0.6-0.3,1-0.7,1.3-1.3v0c0.5-1.2-0.1-2.6-1.4-3.1
	C41.8,96.3,41.5,96.3,41.2,96.3z"/>
<path class="st0" d="M204.2,30.2c-0.3,0-0.7-0.1-1-0.2c-0.7-0.3-1.3-0.8-1.6-1.5c-0.3-0.7-0.3-1.5-0.1-2.2c0.6-1.5,2.2-2.2,3.7-1.7
	c1.5,0.6,2.2,2.2,1.7,3.7l0,0c-0.3,0.7-0.8,1.3-1.5,1.6C205,30.1,204.6,30.2,204.2,30.2z M204.2,24.9c-1,0-1.9,0.6-2.2,1.5
	c-0.2,0.6-0.2,1.2,0,1.8c0.3,0.6,0.7,1,1.3,1.3s1.2,0.2,1.8,0c0.6-0.3,1-0.7,1.3-1.3v0c0.5-1.2-0.1-2.6-1.4-3.1
	C204.7,25,204.5,24.9,204.2,24.9z"/>
<path class="st0" d="M312.2,34.4c-0.3,0-0.7-0.1-1-0.2c-0.7-0.3-1.3-0.8-1.6-1.5c-0.3-0.7-0.3-1.5-0.1-2.2s0.8-1.3,1.5-1.6
	c0.7-0.3,1.5-0.3,2.2-0.1c1.5,0.6,2.2,2.2,1.7,3.7c-0.3,0.7-0.8,1.3-1.5,1.6C313,34.3,312.6,34.4,312.2,34.4z M312.2,29.1
	c-0.3,0-0.7,0.1-1,0.2c-0.6,0.3-1,0.7-1.3,1.3s-0.2,1.2,0,1.8c0.3,0.6,0.7,1,1.3,1.3c0.6,0.2,1.2,0.2,1.8,0c0.6-0.3,1-0.7,1.3-1.3v0
	c0.5-1.2-0.1-2.6-1.4-3.1C312.7,29.2,312.5,29.1,312.2,29.1z"/>
<polygon class="st0" points="548.9,64.8 538,51.9 547.6,37.5 536.5,25.8 536.9,25.4 548.3,37.5 548.2,37.6 538.6,51.8 549.3,64.5 
	"/>
<polygon class="st0" points="292,70.3 277.2,62 281.2,45.2 266.7,38.1 266.9,37.7 281.8,45 277.8,61.8 292.2,69.9 "/>
<polygon class="st0" points="31.5,50.4 16.7,42.1 20.7,25.3 6.1,18.2 6.4,17.8 21.3,25.1 17.3,41.9 31.7,50 "/>
<g>
	<polygon class="st0" points="175.2,235.8 174.7,235.8 175.4,218.9 192.2,214.8 191.9,198.6 192.4,198.6 192.7,215.2 175.9,219.3 	
		"/>
</g>
<rect x="201.5" y="491.9" transform="matrix(0.9585 -0.2852 0.2852 0.9585 -135.8991 78.5576)" class="st0" width="0.5" height="27.9"/>
<rect x="29.9" y="492.3" transform="matrix(0.8427 -0.5384 0.5384 0.8427 -258.2689 101.063)" class="st0" width="27.9" height="0.5"/>
<rect x="350.5" y="324.9" transform="matrix(0.9362 -0.3514 0.3514 0.9362 -96.7019 144.8435)" class="st0" width="0.5" height="27.9"/>
<g>
	
		<rect x="73.3" y="371.4" transform="matrix(0.8697 -0.4935 0.4935 0.8697 -180.5932 86.5251)" class="st0" width="0.5" height="27.9"/>
	
		<rect x="547.4" y="409.4" transform="matrix(0.7478 -0.6639 0.6639 0.7478 -130.4462 475.9477)" class="st0" width="27.9" height="0.5"/>
</g>
<rect x="517.1" y="347.9" transform="matrix(0.7123 -0.7018 0.7018 0.7123 -105.1232 467.1663)" class="st0" width="0.5" height="27.9"/>
<rect x="384.1" y="443.4" transform="matrix(0.4135 -0.9105 0.9105 0.4135 -190.9717 618.1667)" class="st0" width="0.5" height="27.9"/>
<rect x="274.2" y="367" transform="matrix(0.7478 -0.6639 0.6639 0.7478 -171.1345 283.8744)" class="st0" width="27.9" height="0.5"/>
<rect x="231.4" y="392.8" transform="matrix(0.5653 -0.8249 0.8249 0.5653 -234.8518 367.8455)" class="st0" width="0.5" height="27.9"/>
<g>
	
		<rect x="291.8" y="471.1" transform="matrix(0.9585 -0.2852 0.2852 0.9585 -126.2009 103.4587)" class="st0" width="0.5" height="27.9"/>
</g>
<rect x="103.3" y="412.2" transform="matrix(0.4135 -0.9105 0.9105 0.4135 -327.283 344.2349)" class="st0" width="0.5" height="27.9"/>
<rect x="368.5" y="570.1" transform="matrix(0.5937 -0.8047 0.8047 0.5937 -303.5852 539.4894)" class="st0" width="27.9" height="0.5"/>
<polygon class="st0" points="454.2,535.2 434.6,515.3 435,515 454.5,534.8 "/>
<rect x="41.7" y="306.1" transform="matrix(0.4135 -0.9105 0.9105 0.4135 -266.7657 225.9047)" class="st0" width="0.5" height="27.9"/>
<path class="st0" d="M402.8,487.6c-0.3,0-0.7-0.1-1-0.2c-1.5-0.6-2.2-2.2-1.7-3.7l0,0c0.3-0.7,0.8-1.3,1.5-1.6
	c0.7-0.3,1.5-0.3,2.2-0.1c0.7,0.3,1.3,0.8,1.6,1.5c0.3,0.7,0.3,1.5,0.1,2.2C405.1,486.9,404,487.6,402.8,487.6z M402.8,482.4
	c-0.3,0-0.7,0.1-1,0.2c-0.6,0.3-1,0.7-1.3,1.3l0,0c-0.5,1.2,0.1,2.6,1.4,3.1c1.2,0.5,2.6-0.1,3.1-1.4c0.2-0.6,0.2-1.2,0-1.8
	s-0.7-1-1.3-1.3C403.4,482.4,403.1,482.4,402.8,482.4z"/>
<path class="st0" d="M434.6,420.1c-0.3,0-0.7-0.1-1-0.2c-1.5-0.6-2.2-2.2-1.7-3.7l0,0c0.6-1.5,2.2-2.2,3.7-1.7
	c0.7,0.3,1.3,0.8,1.6,1.5c0.3,0.7,0.3,1.5,0.1,2.2C436.8,419.4,435.8,420.1,434.6,420.1z M434.6,414.9c-1,0-1.9,0.6-2.2,1.5v0
	c-0.5,1.2,0.1,2.6,1.4,3.1c1.2,0.5,2.6-0.1,3.1-1.4c0.2-0.6,0.2-1.2,0-1.8c-0.3-0.6-0.7-1-1.3-1.3
	C435.2,414.9,434.9,414.9,434.6,414.9z"/>
<path class="st0" d="M579.5,463.1c-0.3,0-0.7-0.1-1-0.2c-1.5-0.6-2.2-2.2-1.7-3.7l0,0c0.3-0.7,0.8-1.3,1.5-1.6
	c0.7-0.3,1.5-0.3,2.2-0.1c0.7,0.3,1.3,0.8,1.6,1.5c0.3,0.7,0.3,1.5,0.1,2.2C581.8,462.4,580.7,463.1,579.5,463.1z M579.5,457.9
	c-0.3,0-0.7,0.1-1,0.2c-0.6,0.3-1,0.7-1.3,1.3l0,0c-0.5,1.2,0.1,2.6,1.4,3.1c1.2,0.5,2.6-0.1,3.1-1.4c0.2-0.6,0.2-1.2,0-1.8
	c-0.3-0.6-0.7-1-1.3-1.3C580.1,457.9,579.8,457.9,579.5,457.9z"/>
<path class="st0" d="M271.3,426.1c-0.3,0-0.7-0.1-1-0.2c-1.5-0.6-2.2-2.2-1.7-3.7c0.3-0.7,0.8-1.3,1.5-1.6c0.7-0.3,1.5-0.3,2.2-0.1
	c0.7,0.3,1.3,0.8,1.6,1.5c0.3,0.7,0.3,1.5,0.1,2.2c-0.3,0.7-0.8,1.3-1.5,1.6C272.1,426.1,271.7,426.1,271.3,426.1z M271.3,420.9
	c-0.3,0-0.7,0.1-1,0.2c-0.6,0.3-1,0.7-1.3,1.3l0,0c-0.5,1.2,0.1,2.6,1.4,3.1c0.6,0.2,1.2,0.2,1.8,0c0.6-0.3,1-0.7,1.3-1.3
	c0.2-0.6,0.2-1.2,0-1.8c-0.3-0.6-0.7-1-1.3-1.3C271.9,420.9,271.6,420.9,271.3,420.9z"/>
<path class="st0" d="M127.7,411.4c-0.3,0-0.7-0.1-1-0.2c-1.5-0.6-2.2-2.2-1.7-3.7c0.3-0.7,0.8-1.3,1.5-1.6c0.7-0.3,1.5-0.3,2.2-0.1
	c0.7,0.3,1.3,0.8,1.6,1.5c0.3,0.7,0.3,1.5,0.1,2.2c-0.3,0.7-0.8,1.3-1.5,1.6C128.5,411.3,128.1,411.4,127.7,411.4z M127.7,406.2
	c-0.3,0-0.7,0.1-1,0.2c-0.6,0.3-1,0.7-1.3,1.3v0c-0.5,1.2,0.1,2.6,1.4,3.1c0.6,0.2,1.2,0.2,1.8,0c0.6-0.3,1-0.7,1.3-1.3
	c0.2-0.6,0.2-1.2,0-1.8c-0.3-0.6-0.7-1-1.3-1.3C128.3,406.2,128,406.2,127.7,406.2z"/>
<path class="st0" d="M31.9,439.4c-0.3,0-0.7-0.1-1-0.2c-1.5-0.6-2.2-2.2-1.7-3.7l0,0c0.6-1.5,2.2-2.2,3.7-1.7
	c0.7,0.3,1.3,0.8,1.6,1.5c0.3,0.7,0.3,1.5,0.1,2.2c-0.3,0.7-0.8,1.3-1.5,1.6C32.7,439.3,32.3,439.4,31.9,439.4z M31.9,434.2
	c-1,0-1.9,0.6-2.2,1.5l0,0c-0.5,1.2,0.1,2.6,1.4,3.1c1.2,0.5,2.6-0.1,3.1-1.4c0.2-0.6,0.2-1.2,0-1.8c-0.3-0.6-0.7-1-1.3-1.3
	C32.5,434.2,32.2,434.2,31.9,434.2z"/>
<path class="st0" d="M127.7,580.6c-0.3,0-0.7-0.1-1-0.2c-0.7-0.3-1.3-0.8-1.6-1.5c-0.3-0.7-0.3-1.5-0.1-2.2l0,0
	c0.3-0.7,0.8-1.3,1.5-1.6c0.7-0.3,1.5-0.3,2.2-0.1c0.7,0.3,1.3,0.8,1.6,1.5c0.3,0.7,0.3,1.5,0.1,2.2c-0.3,0.7-0.8,1.3-1.5,1.6
	C128.5,580.5,128.1,580.6,127.7,580.6z M127.7,575.4c-0.3,0-0.7,0.1-1,0.2c-0.6,0.3-1,0.7-1.3,1.3l0,0c-0.2,0.6-0.2,1.2,0,1.8
	c0.3,0.6,0.7,1,1.3,1.3c0.6,0.2,1.2,0.2,1.8,0c0.6-0.3,1-0.7,1.3-1.3c0.2-0.6,0.2-1.2,0-1.8c-0.3-0.6-0.7-1-1.3-1.3
	C128.3,575.4,128,575.4,127.7,575.4z"/>
<path class="st0" d="M557.2,511.4c-0.3,0-0.7-0.1-1-0.2c-1.5-0.6-2.2-2.2-1.7-3.7l0,0c0.3-0.7,0.8-1.3,1.5-1.6
	c0.7-0.3,1.5-0.3,2.2-0.1c0.7,0.3,1.3,0.8,1.6,1.5c0.3,0.7,0.3,1.5,0.1,2.2C559.5,510.7,558.4,511.4,557.2,511.4z M557.2,506.1
	c-0.3,0-0.7,0.1-1,0.2c-0.6,0.3-1,0.7-1.3,1.3l0,0c-0.5,1.2,0.1,2.6,1.4,3.1c1.2,0.5,2.6-0.1,3.1-1.4c0.2-0.6,0.2-1.2,0-1.8
	c-0.3-0.6-0.7-1-1.3-1.3C557.8,506.2,557.5,506.1,557.2,506.1z"/>
<path class="st0" d="M394.2,582.7c-0.3,0-0.7-0.1-1-0.2c-1.5-0.6-2.2-2.2-1.7-3.7l0,0c0.3-0.7,0.8-1.3,1.5-1.6
	c0.7-0.3,1.5-0.3,2.2-0.1c0.7,0.3,1.3,0.8,1.6,1.5c0.3,0.7,0.3,1.5,0.1,2.2C396.5,582,395.4,582.7,394.2,582.7z M394.3,577.5
	c-0.3,0-0.7,0.1-1,0.2c-0.6,0.3-1,0.7-1.2,1.3v0c-0.5,1.2,0.1,2.6,1.4,3.1c1.2,0.5,2.6-0.1,3.1-1.4c0.2-0.6,0.2-1.2,0-1.8
	s-0.7-1-1.3-1.3C394.8,577.5,394.5,577.5,394.3,577.5z"/>
<polygon class="st0" points="61.5,581.7 50.1,569.7 59.8,555.3 49.1,542.7 49.5,542.3 60.4,555.3 50.8,569.6 61.9,581.4 "/>
<polygon class="st0" points="331.5,569.5 316.6,562.2 316.7,562 320.7,545.4 306.2,537.2 306.5,536.8 321.2,545.1 321.2,545.3 
	317.2,561.9 331.8,569 "/>
<polygon class="st0" points="549.3,575.5 534.4,568.2 534.4,568 538.4,551.4 523.9,543.3 524.2,542.8 538.9,551.1 538.9,551.3 
	534.9,567.9 549.5,575.1 "/>
<g>
	<polygon class="st0" points="406,408.5 405.8,391.9 422.6,387.9 423.3,371.3 423.8,371.3 423,388.3 406.3,392.3 406.5,408.5 	"/>
</g>
<polygon class="st0" points="372.7,0 379.4,22.5 379.9,22.4 373.2,0 "/>
<polygon class="st0" points="595.3,50.1 587,49.6 587,50.1 595.3,50.6 "/>
<polygon class="st0" points="0,556.4 0,556.9 11.4,557.6 11.5,557.1 "/>
<path class="st0" d="M281.3,596.4c0-0.3,0-0.6,0.2-0.9c0.2-0.6,0.7-1.1,1.3-1.3c0.3-0.1,0.6-0.2,1-0.2c0.3,0,0.6,0.1,0.9,0.2
	c0.6,0.2,1.1,0.7,1.3,1.3c0.1,0.3,0.2,0.6,0.2,1h0.5c0-0.4-0.1-0.8-0.2-1.2c-0.3-0.7-0.9-1.2-1.6-1.5c-0.7-0.3-1.5-0.3-2.2,0.1
	c-0.7,0.3-1.2,0.9-1.5,1.6c-0.1,0.3-0.2,0.7-0.2,1H281.3z"/>
</svg>
