<?xml version="1.0" encoding="utf-8"?>
<!-- Generator: Adobe Illustrator 25.3.1, SVG Export Plug-In . SVG Version: 6.00 Build 0)  -->
<svg version="1.1" id="Layer_2" xmlns="http://www.w3.org/2000/svg" xmlns:xlink="http://www.w3.org/1999/xlink" x="0px" y="0px"
	 viewBox="0 0 595.3 595.3" style="enable-background:new 0 0 595.3 595.3;" xml:space="preserve">
<style type="text/css">
	.st0{fill:#FFFFFF;}
	.st1{fill:none;stroke:#FFFFFF;stroke-width:0.75;}
</style>
<rect x="218.3" y="158" transform="matrix(0.5181 -0.8553 0.8553 0.5181 -49.4425 274.1514)" class="st0" width="0.5" height="46"/>
<rect x="225.6" y="144" transform="matrix(0.5181 -0.8553 0.8553 0.5181 -33.9823 273.5735)" class="st0" width="0.5" height="46"/>
<polygon class="st0" points="422.1,119 391.1,100.7 400.2,64.9 369.2,48.9 369.5,48.5 400.8,64.7 391.7,100.5 422.4,118.6 "/>
<polygon class="st0" points="72.8,299.2 69.1,263.4 69.2,263.4 103.2,249.4 97.7,215 98.2,215 103.8,249.7 69.6,263.8 73.3,299.2 
	"/>
<path class="st0" d="M517.4,323.1c-5.3,0-9.7-4.3-9.7-9.7s4.3-9.7,9.7-9.7c5.3,0,9.7,4.3,9.7,9.7S522.7,323.1,517.4,323.1z
	 M517.4,304.5c-4.9,0-9,4-9,9s4,9,9,9c4.9,0,9-4,9-9S522.3,304.5,517.4,304.5z"/>
<path class="st0" d="M175.3,213.5c-4.6,0-8.3-3.7-8.3-8.3s3.7-8.3,8.3-8.3s8.3,3.7,8.3,8.3S179.9,213.5,175.3,213.5z M175.3,197.4
	c-4.3,0-7.8,3.5-7.8,7.8s3.5,7.8,7.8,7.8s7.8-3.5,7.8-7.8S179.6,197.4,175.3,197.4z"/>
<path class="st0" d="M331.9,191.5c-4.6,0-8.3-3.7-8.3-8.3s3.7-8.3,8.3-8.3s8.3,3.7,8.3,8.3S336.5,191.5,331.9,191.5z M331.9,175.4
	c-4.3,0-7.8,3.5-7.8,7.8s3.5,7.8,7.8,7.8s7.8-3.5,7.8-7.8S336.2,175.4,331.9,175.4z"/>
<path class="st0" d="M268.5,52.6c-4.6,0-8.3-3.7-8.3-8.3s3.7-8.3,8.3-8.3s8.3,3.7,8.3,8.3S273.1,52.6,268.5,52.6z M268.5,36.5
	c-4.3,0-7.8,3.5-7.8,7.8s3.5,7.8,7.8,7.8s7.8-3.5,7.8-7.8S272.8,36.5,268.5,36.5z"/>
<path class="st0" d="M15.1,42.8c-4.6,0-8.3-3.7-8.3-8.3s3.7-8.3,8.3-8.3c4.6,0,8.3,3.7,8.3,8.3S19.6,42.8,15.1,42.8z M15.1,26.7
	c-4.3,0-7.8,3.5-7.8,7.8s3.5,7.8,7.8,7.8c4.3,0,7.8-3.5,7.8-7.8S19.4,26.7,15.1,26.7z"/>
<rect x="498" y="40.3" transform="matrix(0.9204 -0.3909 0.3909 0.9204 14.816 199.8559)" class="st0" width="0.5" height="46.5"/>
<rect x="511.8" y="32.7" transform="matrix(0.9204 -0.3909 0.3909 0.9204 18.8995 204.6368)" class="st0" width="0.5" height="46.5"/>
<g>
	<polygon class="st0" points="505.1,236.9 469.7,230.3 469.7,230.1 466,193.4 466.5,193.3 470.2,229.9 505.2,236.4 	"/>
</g>
<path class="st1" d="M137,38.1"/>
<rect x="315" y="392.6" transform="matrix(0.5181 -0.8553 0.8553 0.5181 -203.56 469.8369)" class="st0" width="0.5" height="46"/>
<rect x="307.7" y="406.6" transform="matrix(0.5181 -0.8553 0.8553 0.5181 -219.0197 470.4177)" class="st0" width="0.5" height="46"/>
<polygon class="st0" points="164.3,548.1 133,531.9 142.1,496.1 111.4,477.9 111.7,477.5 142.7,495.8 133.6,531.6 164.5,547.6 "/>
<polygon class="st0" points="309.5,338.7 277.9,323.3 277.9,323.1 286,287.3 254.9,269.9 255.1,269.5 286.5,287 286.5,287.2 
	278.4,323 309.8,338.2 "/>
<polygon class="st0" points="435.6,381.6 430,346.8 464.2,332.8 460.5,297.3 461,297.3 464.7,333.1 464.5,333.2 430.6,347.1 
	436.1,381.5 "/>
<path class="st0" d="M137,107.6c-5.3,0-9.7-4.3-9.7-9.7s4.3-9.7,9.7-9.7c5.3,0,9.7,4.3,9.7,9.7S142.3,107.6,137,107.6z M137,88.9
	c-4.9,0-9,4-9,9s4,9,9,9c4.9,0,9-4,9-9S141.9,88.9,137,88.9z"/>
<path class="st0" d="M16.4,292.8c-2.6,0-5-1-6.9-2.8s-2.8-4.3-2.8-6.9c0-5.3,4.3-9.7,9.7-9.7c5.3,0,9.7,4.3,9.7,9.7
	S21.8,292.8,16.4,292.8C16.4,292.8,16.4,292.8,16.4,292.8z M16.4,274.2c-4.9,0-9,4-9,9c0,2.4,0.9,4.6,2.6,6.3s3.9,2.6,6.3,2.6
	c0,0,0,0,0,0c4.9,0,9-4,9-9S21.4,274.2,16.4,274.2z"/>
<path class="st0" d="M358.5,399.6c-4.6,0-8.3-3.7-8.3-8.3s3.7-8.3,8.3-8.3s8.3,3.7,8.3,8.3S363.1,399.6,358.5,399.6z M358.5,383.5
	c-4.3,0-7.8,3.5-7.8,7.8s3.5,7.8,7.8,7.8s7.8-3.5,7.8-7.8S362.8,383.5,358.5,383.5z"/>
<path class="st0" d="M201.9,421.6c-4.6,0-8.3-3.7-8.3-8.3s3.7-8.3,8.3-8.3s8.3,3.7,8.3,8.3S206.5,421.6,201.9,421.6z M201.9,405.5
	c-4.3,0-7.8,3.5-7.8,7.8s3.5,7.8,7.8,7.8s7.8-3.5,7.8-7.8S206.2,405.5,201.9,405.5z"/>
<path class="st0" d="M265.3,560.5c-4.6,0-8.3-3.7-8.3-8.3s3.7-8.3,8.3-8.3s8.3,3.7,8.3,8.3S269.8,560.5,265.3,560.5z M265.3,544.4
	c-4.3,0-7.8,3.5-7.8,7.8s3.5,7.8,7.8,7.8s7.8-3.5,7.8-7.8S269.6,544.4,265.3,544.4z"/>
<path class="st0" d="M518.7,570.3c-4.6,0-8.3-3.7-8.3-8.3s3.7-8.3,8.3-8.3s8.3,3.7,8.3,8.3S523.3,570.3,518.7,570.3z M518.7,554.2
	c-4.3,0-7.8,3.5-7.8,7.8s3.5,7.8,7.8,7.8c4.3,0,7.8-3.5,7.8-7.8S523,554.2,518.7,554.2z"/>
<rect x="35.3" y="509.8" transform="matrix(0.9204 -0.3909 0.3909 0.9204 -205.5387 56.3001)" class="st0" width="0.5" height="46.5"/>
<rect x="21.5" y="517.4" transform="matrix(0.9204 -0.3909 0.3909 0.9204 -209.6261 51.5213)" class="st0" width="0.5" height="46.5"/>
<polygon class="st0" points="506.9,498.7 506.4,498.6 513.5,472.4 513.7,472.4 541.3,471.3 546.7,445.7 547.2,445.8 541.7,471.8 
	513.9,472.9 "/>
<g>
	<polygon class="st0" points="67.3,403.2 63.6,366.7 28.6,360.1 28.7,359.6 64.1,366.2 64.1,366.4 67.8,403.2 	"/>
</g>
<path class="st1" d="M396.8,558.4"/>
<g>
	<polygon class="st0" points="175.9,22.9 158.8,0 158.2,0 175.7,23.5 209.5,10.9 209.3,10.5 	"/>
	<polygon class="st0" points="138.5,0 121.5,7.4 121.7,7.9 139.7,0 	"/>
</g>
<path class="st0" d="M594.6,15.1c-4.9,0-9-4-9-9c0-2.4,0.9-4.5,2.5-6.1h-1c-1.4,1.7-2.2,3.8-2.2,6.1c0,5.3,4.3,9.7,9.7,9.7V15.1z"/>
<polygon class="st0" points="594.6,188 594.6,187.4 573.2,175.5 581.3,139.7 581.3,139.5 549.6,124.1 549.4,124.5 580.7,139.7 
	572.6,175.7 "/>
<g>
	<polygon class="st0" points="396.5,595.3 410.6,589.1 410.4,588.6 395.2,595.3 	"/>
	<polygon class="st0" points="356.2,573.6 372.4,595.3 373,595.3 356.5,573.2 356.3,573 322.6,585.6 322.8,586.1 	"/>
</g>
<polygon class="st0" points="26.9,97.8 19.9,123.6 0,124.4 0,124.9 20.1,124.1 20.3,124.1 27.4,98 "/>
</svg>
