<?xml version="1.0" encoding="utf-8"?>
<!-- Generator: Adobe Illustrator 25.3.1, SVG Export Plug-In . SVG Version: 6.00 Build 0)  -->
<svg version="1.1" id="Layer_2" xmlns="http://www.w3.org/2000/svg" xmlns:xlink="http://www.w3.org/1999/xlink" x="0px" y="0px"
	 viewBox="0 0 100 100" style="enable-background:new 0 0 100 100;" xml:space="preserve">
<path d="M35.3,49.7v8L13.8,77.4c-0.3,0.3-0.5,0.7-0.5,1.1v7.7c0,3.3,2.7,6,6,6h61.9c3.3,0,6-2.7,6-6v-7.7c0-0.4-0.2-0.8-0.5-1.1
	L65.3,57.7v-8c0-1.8-1.5-3.3-3.3-3.3H38.6C36.8,46.3,35.3,47.8,35.3,49.7z"/>
<g>
	<path d="M24.6,44.8l-0.2-3.6c-0.1-1.5,0.7-2.9,2-3.6c13-7.4,34.7-7.5,47.6-0.3c1.3,0.7,2.1,2.2,2.1,3.7l-0.1,3.5l22.2,3.6
		c-0.4-4.5-2.2-11.3-7.7-14.9c-8.2-5.2-39.5-15.9-76.5-2.5c0,0-9.9,3.4-11.4,16.9L24.6,44.8z"/>
	<path d="M4.6,58.8c0,0,3.8,0.7,9.9-0.1s8.7-2.4,8.7-2.4c1.1-0.3,1.8-1.5,1.5-2.6l-0.1-2.6L2.3,54.1c0,0.3,0,2.6,0.1,2.9
		C2.5,58,3.5,58.9,4.6,58.8z"/>
	<path d="M76.4,51l-0.2,3.3c-0.2,1.1,0.4,2.1,1.5,2.4c0,0,3.4,1.9,9.3,3c6,1.1,8.9,0.3,8.9,0.3c1.1,0,2-0.7,2.2-1.8
		c0.1-0.4,0.1-2.8,0.2-3.3L76.4,51z"/>
</g>
</svg>
