<?xml version="1.0" encoding="utf-8"?>
<!-- Generator: Adobe Illustrator 25.3.1, SVG Export Plug-In . SVG Version: 6.00 Build 0)  -->
<svg version="1.1" id="Layer_1" xmlns="http://www.w3.org/2000/svg" xmlns:xlink="http://www.w3.org/1999/xlink" x="0px" y="0px"
	 viewBox="0 0 143 103.9" style="enable-background:new 0 0 143 103.9;" xml:space="preserve">
<style type="text/css">
	.st0{fill:#010101;}
</style>
<g>
	<path class="st0" d="M16.8,39.8c0-12.5,10.2-22.7,22.7-22.7c6.5,0,12.5,2.7,16.8,7.4l51.7,0.1c8.3,0,15,6.7,15,15
		c0,8.3-6.7,15-15,15l-51.4,0c-4.3,4.9-10.5,7.8-17.1,7.8C27,62.5,16.8,52.3,16.8,39.8z M115.2,39.7c0-4-3.2-7.2-7.2-7.2l-55.5-0.1
		l-1.2-1.5c-2.8-3.7-7.2-5.9-11.8-5.9c-8.2,0-14.8,6.7-14.8,14.8c0,8.2,6.7,14.8,14.8,14.8c4.7,0,9.2-2.3,12-6.1l1.2-1.6l55.3,0
		C112,46.9,115.2,43.6,115.2,39.7z"/>
</g>
<path class="st0" d="M48.8,39.8c0,5.2-4.2,9.5-9.5,9.5c-5.2,0-9.5-4.2-9.5-9.5c0-5.2,4.2-9.5,9.5-9.5C44.5,30.3,48.8,34.6,48.8,39.8
	z"/>
<path class="st0" d="M107.3,42.5H42.4c-1.5,0-2.7-1.2-2.7-2.7c0-1.5,1.2-2.7,2.7-2.7h64.8c1.5,0,2.7,1.2,2.7,2.7
	C109.9,41.3,108.8,42.5,107.3,42.5z"/>
<g>
	<path d="M10.7,94.3l8-16.8h1.9v20.3h-1.4V79.7l-7.7,16.2H9.9L2.2,79.7v18.1H0.8V77.5h1.9L10.7,94.3z"/>
	<path d="M30,88.3c2.1,0,3.7,0.9,4.3,1.6v-2.3c0-2.5-1.7-3.9-4.1-3.9c-2,0-3.6,0.8-4.6,1.4L24.9,84c0.8-0.5,2.8-1.6,5.3-1.6
		c3.7,0,5.5,2.2,5.5,5.3v10.1h-1.2l-0.3-1.4c-0.8,0.9-2.1,1.8-4.3,1.8c-3.4,0-5.8-2.2-5.8-5C24.2,90.4,26.6,88.3,30,88.3z
		 M30.1,96.9c2.6,0,4.3-1.6,4.3-3.7c0-2.1-1.7-3.6-4.4-3.6c-2.7,0-4.4,1.6-4.4,3.6C25.7,95.2,27.4,96.9,30.1,96.9z"/>
	<path d="M44.7,91.1l-4.9,6.8H38l5.8-7.8l-5.3-7.2h1.8l4.4,6.2l4.4-6.2h1.8L45.7,90l5.8,7.8h-1.8L44.7,91.1z"/>
	<path d="M54.7,95.8c0.7,0,1.2,0.6,1.2,1.2c0,0.7-0.6,1.2-1.2,1.2s-1.2-0.6-1.2-1.2C53.5,96.3,54,95.8,54.7,95.8z"/>
	<path d="M71.6,78.9h-5.8v-1.4h13.1v1.4h-5.8v18.9h-1.5V78.9z"/>
	<path d="M87,82.4c4.3,0,7.1,3.2,7.1,7.5v0.6H81.3c0,4,2.6,6.3,6.1,6.3c2.8,0,4.3-1.4,5.2-2.6l1,0.7c-1,1.6-2.9,3.2-6.1,3.2
		c-4.4,0-7.7-3.2-7.7-7.9C79.8,85.4,83.2,82.4,87,82.4z M92.6,89.3c-0.2-3.8-2.8-5.5-5.6-5.5c-2.7,0-5.3,1.9-5.6,5.5H92.6z"/>
	<path d="M118.2,97.8h-1.5v-9.1c0-3.3-1.3-5-3.9-5c-2.4,0-4.3,1.7-4.3,5v9H107v-9.7c0-2.8-1.6-4.4-4-4.4c-2.3,0-4.3,2-4.3,4.9v9.2
		h-1.5V82.8h1.5c0,1.5,0,2.4,0,2.4c0.6-1.4,2.3-2.8,4.4-2.8c2.4,0,4.1,1.2,4.8,3c0.9-2,2.8-3,5-3c3.3,0,5.2,2.4,5.2,5.7V97.8z"/>
	<path d="M122.4,82.8h1.5v2.8c0.3-0.6,2-3.2,5.6-3.2c4.3,0,7.3,3.3,7.3,7.9c0,4.6-3,7.9-7.2,7.9c-3.4,0-5.2-2.3-5.7-3.2v8.3h-1.5
		V82.8z M129.5,96.9c3.3,0,5.7-2.7,5.7-6.6c0-3.9-2.6-6.5-5.8-6.5c-3.5,0-5.7,3-5.7,6.5C123.7,94.5,126.4,96.9,129.5,96.9z"/>
	<path d="M140.1,95.8c0.7,0,1.2,0.6,1.2,1.2c0,0.7-0.6,1.2-1.2,1.2s-1.2-0.6-1.2-1.2C138.9,96.3,139.4,95.8,140.1,95.8z"/>
</g>
</svg>
