<?xml version="1.0" encoding="utf-8"?>
<!-- Generator: Adobe Illustrator 25.3.1, SVG Export Plug-In . SVG Version: 6.00 Build 0)  -->
<svg version="1.1" id="Layer_1" xmlns="http://www.w3.org/2000/svg" xmlns:xlink="http://www.w3.org/1999/xlink" x="0px" y="0px"
	 viewBox="0 0 46.5 46.5" style="enable-background:new 0 0 46.5 46.5;" xml:space="preserve">
<path d="M23.2,43.1c-1.5,0-2.9-0.2-4.3-0.5c0-0.5-0.4-0.8-0.9-0.8c-0.3,0-0.6,0.2-0.7,0.4c-8.1-2.5-13.9-10.1-13.9-19
	c0-1.1,0.1-2.2,0.3-3.3c0.1,0.4,0.4,0.7,0.8,0.7c0.5,0,0.9-0.4,0.9-0.9c0-0.5-0.4-0.9-0.9-0.9c-0.3,0-0.6,0.2-0.7,0.4
	C5.2,11.8,10.9,5.9,18.1,4l0.4,0.1c0.3,0,0.5-0.1,0.7-0.3c1.3-0.3,2.6-0.4,4-0.4c2.5,0,4.9,0.5,7.1,1.3C30.4,4.9,30.7,5,30.9,5L31,5
	c7.1,3,12,10.1,12,18.3c0,0.6,0,1.2-0.1,1.7c-0.3,0.1-0.5,0.4-0.5,0.8c0,0.3,0.1,0.5,0.3,0.7c-0.2,1-0.4,2-0.7,2.9l-0.2,0
	c-0.5,0-0.9,0.4-0.9,0.9c0,0.3,0.2,0.6,0.5,0.8l-0.1,0.3c-0.1-0.4-0.4-0.7-0.9-0.7c-0.5,0-0.9,0.4-0.9,0.9s0.4,0.9,0.9,0.9l0.4-0.1
	C37.6,38.7,30.9,43.1,23.2,43.1 M23.2,0C10.3,0-0.1,10.4-0.1,23.2c0,12.8,10.4,23.3,23.3,23.3s23.3-10.4,23.3-23.3
	C46.4,10.4,36,0,23.2,0"/>
<path d="M21.3,3.9c-0.5,0-0.9,0.4-0.9,0.9c0,0.5,0.4,0.9,0.9,0.9c0.5,0,0.9-0.4,0.9-0.9C22.2,4.3,21.8,3.9,21.3,3.9"/>
<path d="M30.4,22.5c-0.5,0-0.9,0.4-0.9,0.9c0,0.5,0.4,0.9,0.9,0.9c0.5,0,0.9-0.4,0.9-0.9C31.2,22.9,30.8,22.5,30.4,22.5"/>
<path d="M36.8,20c-0.5,0-0.9,0.4-0.9,0.9c0,0.5,0.4,0.9,0.9,0.9c0.5,0,0.9-0.4,0.9-0.9C37.7,20.4,37.3,20,36.8,20"/>
<path d="M21.1,12.9c-0.5,0-0.9,0.4-0.9,0.9c0,0.5,0.4,0.9,0.9,0.9c0.5,0,0.9-0.4,0.9-0.9C21.9,13.3,21.5,12.9,21.1,12.9"/>
<path d="M14.1,26.9c-0.5,0-0.9,0.4-0.9,0.9c0,0.5,0.4,0.9,0.9,0.9c0.5,0,0.9-0.4,0.9-0.9C15,27.3,14.6,26.9,14.1,26.9"/>
<path d="M21.1,23.9c-0.5,0-0.9,0.4-0.9,0.9c0,0.5,0.4,0.9,0.9,0.9c0.5,0,0.9-0.4,0.9-0.9C21.9,24.3,21.5,23.9,21.1,23.9"/>
<path d="M28.9,35c-0.5,0-0.9,0.4-0.9,0.9c0,0.5,0.4,0.9,0.9,0.9c0.5,0,0.9-0.4,0.9-0.9C29.8,35.4,29.4,35,28.9,35"/>
<path d="M31.9,14c-0.5,0-0.9,0.4-0.9,0.9c0,0.5,0.4,0.9,0.9,0.9c0.5,0,0.9-0.4,0.9-0.9C32.8,14.4,32.4,14,31.9,14"/>
<path d="M33,8.8c-0.5,0-0.9,0.4-0.9,0.9c0,0.5,0.4,0.9,0.9,0.9s0.9-0.4,0.9-0.9C33.9,9.2,33.5,8.8,33,8.8"/>
<path d="M14.6,10.4c-0.5,0-0.9,0.4-0.9,0.9c0,0.5,0.4,0.9,0.9,0.9c0.5,0,0.9-0.4,0.9-0.9C15.5,10.8,15.1,10.4,14.6,10.4"/>
<path d="M6,24.3c-0.5,0-0.9,0.4-0.9,0.9c0,0.5,0.4,0.9,0.9,0.9c0.5,0,0.9-0.4,0.9-0.9C6.9,24.7,6.5,24.3,6,24.3"/>
<path d="M14.1,36.7c-0.5,0-0.9,0.4-0.9,0.9c0,0.5,0.4,0.9,0.9,0.9c0.5,0,0.9-0.4,0.9-0.9C15,37.1,14.6,36.7,14.1,36.7"/>
<path d="M18.4,18c-0.5,0-0.9,0.4-0.9,0.9c0,0.5,0.4,0.9,0.9,0.9c0.5,0,0.9-0.4,0.9-0.9C19.3,18.4,18.9,18,18.4,18"/>
<path d="M29.8,29.1c-0.5,0-0.9,0.4-0.9,0.9c0,0.5,0.4,0.9,0.9,0.9c0.5,0,0.9-0.4,0.9-0.9C30.7,29.5,30.3,29.1,29.8,29.1"/>
<path d="M24.6,39c-0.5,0-0.9,0.4-0.9,0.9c0,0.5,0.4,0.9,0.9,0.9c0.5,0,0.9-0.4,0.9-0.9C25.5,39.4,25.1,39,24.6,39"/>
</svg>
