<?xml version="1.0" encoding="utf-8"?>
<!-- Generator: Adobe Illustrator 25.3.1, SVG Export Plug-In . SVG Version: 6.00 Build 0)  -->
<svg version="1.1" id="Layer_1" xmlns="http://www.w3.org/2000/svg" xmlns:xlink="http://www.w3.org/1999/xlink" x="0px" y="0px"
	 viewBox="0 0 21.8 20.6" style="enable-background:new 0 0 21.8 20.6;" xml:space="preserve">
<style type="text/css">
	.st0{fill:#FFFFFF;}
</style>
<g>
	<path class="st0" d="M10.9,20.1c3.8,0,7.7-2.4,7.7-7.1c0-4.2-7.7-12.3-7.7-12.3S3.2,8.8,3.2,13C3.2,17.6,7.1,20.1,10.9,20.1"/>
	<path d="M10.9,20.6c-4,0-8.2-2.7-8.2-7.6c0-4.3,7.5-12.3,7.8-12.6L10.9,0l0.3,0.3C11.5,0.6,19,8.6,19,12.9
		C19.1,17.9,15,20.6,10.9,20.6z M10.9,1.3C9.4,2.9,3.6,9.5,3.6,13c0,4.3,3.7,6.7,7.3,6.7s7.3-2.3,7.3-6.7
		C18.2,9.5,12.3,2.9,10.9,1.3z"/>
</g>
<g>
	<path d="M9.1,9.6h1.6c1.3,0,2,0.6,2,1.7c0,0.7-0.4,1.4-1.1,1.7l1.6,2.9h-0.8l-1.4-2.7H9.8v2.7H9.1V9.6z M10.7,12.5
		c0.7,0,1.2-0.3,1.2-1.2c0-0.7-0.4-1.1-1.2-1.1H9.8v2.3H10.7z"/>
</g>
</svg>
