<?xml version="1.0" encoding="utf-8"?>
<!-- Generator: Adobe Illustrator 25.3.1, SVG Export Plug-In . SVG Version: 6.00 Build 0)  -->
<svg version="1.1" id="Layer_1" xmlns="http://www.w3.org/2000/svg" xmlns:xlink="http://www.w3.org/1999/xlink" x="0px" y="0px"
	 viewBox="0 0 46.5 46.5" style="enable-background:new 0 0 46.5 46.5;" xml:space="preserve">
<path d="M37.2,24.3c1,0,1.8,0.8,1.8,1.8c0,1-0.8,1.8-1.8,1.8c-1,0-1.8-0.8-1.8-1.8C35.4,25.1,36.2,24.3,37.2,24.3 M29.5,12.6
	c-1,0-1.8-0.8-1.8-1.8c0-1,0.8-1.8,1.8-1.8c1,0,1.8,0.8,1.8,1.8C31.3,11.8,30.5,12.6,29.5,12.6 M28.4,32.2c-1,0-1.8-0.8-1.8-1.8
	c0-1,0.8-1.8,1.8-1.8c1,0,1.8,0.8,1.8,1.8C30.2,31.4,29.4,32.2,28.4,32.2 M24.2,22.8c-1,0-1.8-0.8-1.8-1.8c0-1,0.8-1.8,1.8-1.8
	c1,0,1.8,0.8,1.8,1.8C25.9,22,25.1,22.8,24.2,22.8 M18.4,11.4c-1,0-1.8-0.8-1.8-1.8c0-1,0.8-1.8,1.8-1.8c1,0,1.8,0.8,1.8,1.8
	C20.2,10.6,19.4,11.4,18.4,11.4 M16.9,26.3c-1,0-1.8-0.8-1.8-1.8c0-1,0.8-1.8,1.8-1.8c1,0,1.8,0.8,1.8,1.8
	C18.7,25.5,17.9,26.3,16.9,26.3 M9.7,21.2c-1,0-1.8-0.8-1.8-1.8c0-1,0.8-1.8,1.8-1.8c1,0,1.8,0.8,1.8,1.8
	C11.5,20.4,10.7,21.2,9.7,21.2 M40.5,23.2c0-1.8-0.3-3.5-0.8-5.1c-0.2,0.1-0.5,0.2-0.7,0.2c-1,0-1.8-0.8-1.8-1.8
	c0-0.7,0.5-1.4,1.1-1.6C35.4,9.6,29.7,6,23.2,6c-4.5,0-8.7,1.8-11.7,4.6c0,0.9-0.7,1.6-1.6,1.7C7.5,15.3,6,19.1,6,23.2
	c0,1.8,0.3,3.5,0.8,5.1c0.2-0.1,0.5-0.2,0.7-0.2c1,0,1.8,0.8,1.8,1.8c0,0.7-0.5,1.4-1.1,1.6c2.8,5.1,8.1,8.6,14.2,8.9
	c-0.3-0.3-0.5-0.8-0.5-1.3c0-1,0.8-1.8,1.8-1.8c1,0,1.8,0.8,1.8,1.8c0,0.5-0.2,0.9-0.5,1.2c1.2-0.1,2.4-0.4,3.5-0.7
	c0-0.1-0.1-0.3-0.1-0.4c0-1,0.8-1.8,1.8-1.8c0.6,0,1.2,0.3,1.5,0.8C36.9,35.3,40.5,29.7,40.5,23.2"/>
<path d="M23.2,46.5c12.8,0,23.3-10.4,23.3-23.3S36.1,0,23.2,0C10.4,0,0,10.4,0,23.2S10.4,46.5,23.2,46.5 M23.2,43.1
	c-10.9,0-19.8-8.9-19.8-19.8S12.3,3.4,23.2,3.4c10.9,0,19.8,8.9,19.8,19.8S34.2,43.1,23.2,43.1"/>
</svg>
