<?xml version="1.0" encoding="utf-8"?>
<!-- Generator: Adobe Illustrator 25.3.1, SVG Export Plug-In . SVG Version: 6.00 Build 0)  -->
<svg version="1.1" id="Layer_1" xmlns="http://www.w3.org/2000/svg" xmlns:xlink="http://www.w3.org/1999/xlink" x="0px" y="0px"
	 viewBox="0 0 46.5 46.5" style="enable-background:new 0 0 46.5 46.5;" xml:space="preserve">
<path d="M16.7,27.4c0-3.6,2.9-6.5,6.5-6.5c3.6,0,6.5,2.9,6.5,6.5S26.9,34,23.2,34C19.6,34,16.7,31.1,16.7,27.4 M27.7,39.9
	c3.3-0.9,6.2-2.7,8.5-5.3c-1.3-1.2-2.2-2.9-2.2-4.9c0-3.6,2.9-6.5,6.5-6.5c0-3.1-0.8-6.1-2.3-8.6C37.3,17.2,34.9,19,32,19
	c-3.6,0-6.5-2.9-6.5-6.5c0-2.4,1.3-4.5,3.2-5.6C27,6.3,25.2,6,23.2,6c-2.3,0-4.5,0.5-6.6,1.3c1.6,1.2,2.6,3.1,2.6,5.2
	c0,3.6-2.9,6.5-6.5,6.5c-2.2,0-4.1-1.1-5.3-2.7c-0.9,2.1-1.5,4.5-1.5,7c0,0,0,0,0,0c0.1,0,0.2,0,0.3,0c3.6,0,6.5,2.9,6.5,6.5
	c0,2-0.9,3.8-2.3,5c2.2,2.4,5.1,4.2,8.3,5.1c1.2-1.1,2.7-1.8,4.5-1.8C25,38.1,26.6,38.8,27.7,39.9"/>
<path d="M23.3,0C10.4,0,0,10.4,0,23.2s10.4,23.2,23.3,23.2s23.2-10.4,23.2-23.2S36.1,0,23.3,0 M23.3,3.4c10.9,0,19.8,8.9,19.8,19.8
	s-8.9,19.8-19.8,19.8S3.4,34.2,3.4,23.2S12.3,3.4,23.3,3.4"/>
</svg>
