<?xml version="1.0" encoding="utf-8"?>
<!-- Generator: Adobe Illustrator 25.3.1, SVG Export Plug-In . SVG Version: 6.00 Build 0)  -->
<svg version="1.1" id="Layer_2_1_" xmlns="http://www.w3.org/2000/svg" xmlns:xlink="http://www.w3.org/1999/xlink" x="0px" y="0px"
	 viewBox="0 0 100 100" style="enable-background:new 0 0 100 100;" xml:space="preserve">
<path d="M50,16c-21.5,0-39,17.5-39,39s17.5,39,39,39s39-17.5,39-39S71.5,16,50,16z M17.8,58.1h12.1c0.2,3.5,0.6,6.6,1.2,9.4H20.2
	C18.9,64.5,18.1,61.4,17.8,58.1z M53.3,34.2v-8.4c2,1.5,4.5,4.1,6.5,8.4H53.3z M62.1,40.9c0.7,3,1.2,6.5,1.4,10.6H53.3V40.9H62.1z
	 M46.7,26.6v7.6h-5.9C42.7,30.7,44.8,28.3,46.7,26.6z M46.7,40.9v10.6H36.5c0.2-4.1,0.8-7.6,1.7-10.6H46.7z M29.9,51.4h-12
	c0.4-3.7,1.5-7.3,3.1-10.6h10.4C30.6,44,30.1,47.5,29.9,51.4z M36.5,58.1h10.2v9.4h-8.8C37.2,64.7,36.7,61.6,36.5,58.1z M46.7,74.1
	v8.7c-2.1-1.8-4.5-4.6-6.4-8.7H46.7z M53.3,83.8v-9.7h7.2C58.4,79.3,55.6,82.2,53.3,83.8z M53.3,67.5v-9.4h10.3
	c-0.1,3.6-0.5,6.7-1.1,9.4H53.3z M70.2,58.1h12c-0.3,3.3-1.1,6.5-2.4,9.4H69.3C69.8,64.7,70.1,61.6,70.2,58.1z M70.2,51.4
	c-0.2-4-0.6-7.5-1.3-10.6h10.2c1.6,3.3,2.6,6.8,3.1,10.6H70.2z M74.8,34.2H67c-1.5-3.9-3.3-7-5.2-9.3C66.9,26.9,71.3,30.1,74.8,34.2
	z M39.5,24.4c-2.2,2.4-4.3,5.7-6.1,9.8h-8.3C29,29.8,33.9,26.3,39.5,24.4z M23.9,74.1H33c2,5.2,4.6,9,7.2,11.7
	C33.6,83.7,27.9,79.6,23.9,74.1z M61.5,85.2c2.3-2.6,4.4-6.2,6-11.1h8.5C72.4,79.1,67.4,83,61.5,85.2z"/>
</svg>
