<?xml version="1.0" encoding="utf-8"?>
<!-- Generator: Adobe Illustrator 25.3.1, SVG Export Plug-In . SVG Version: 6.00 Build 0)  -->
<svg version="1.1" id="Layer_1" xmlns="http://www.w3.org/2000/svg" xmlns:xlink="http://www.w3.org/1999/xlink" x="0px" y="0px"
	 viewBox="0 0 21.8 20.6" style="enable-background:new 0 0 21.8 20.6;" xml:space="preserve">
<style type="text/css">
	.st0{fill:#003DFF;}
</style>
<g>
	<path class="st0" d="M10.9,20.1c3.8,0,7.7-2.4,7.7-7.1c0-4.2-7.7-12.3-7.7-12.3S3.2,8.8,3.2,13C3.2,17.6,7.1,20.1,10.9,20.1"/>
	<path d="M10.9,20.6c-4,0-8.2-2.7-8.2-7.6c0-4.3,7.5-12.3,7.8-12.6L10.9,0l0.3,0.3C11.5,0.6,19,8.6,19,12.9
		C19.1,17.9,15,20.6,10.9,20.6z M10.9,1.3C9.4,2.9,3.6,9.5,3.6,13c0,4.3,3.7,6.7,7.3,6.7s7.3-2.3,7.3-6.7
		C18.2,9.5,12.3,2.9,10.9,1.3z"/>
</g>
<g>
	<path d="M5.8,10.2h0.6v2.5h2.7v-2.5h0.6v5.6H9.1v-2.6H6.4v2.6H5.8V10.2z"/>
	<path d="M13.6,10.1c1.5,0,2.6,1.3,2.6,2.9c0,1.7-1.1,2.9-2.6,2.9c-1.5,0-2.6-1.3-2.6-2.9C11,11.4,12.2,10.1,13.6,10.1z M13.6,15.4
		c1.1,0,2-1,2-2.3c0-1.3-0.9-2.3-2-2.3s-2,1-2,2.3C11.6,14.4,12.5,15.4,13.6,15.4z"/>
</g>
<g>
	<path d="M10.1,9.6c0-0.9,1.5-1.4,1.5-2.3c0-0.3-0.2-0.6-0.6-0.6c-0.4,0-0.5,0.2-0.6,0.5l-0.3-0.1c0.1-0.3,0.3-0.8,0.9-0.8
		c0.6,0,1,0.4,1,0.9c0,1-1.4,1.5-1.5,2.1H12v0.3h-2V9.6z"/>
</g>
</svg>
