<?xml version="1.0" encoding="utf-8"?>
<!-- Generator: Adobe Illustrator 25.3.1, SVG Export Plug-In . SVG Version: 6.00 Build 0)  -->
<svg version="1.1" id="Layer_1" xmlns="http://www.w3.org/2000/svg" xmlns:xlink="http://www.w3.org/1999/xlink" x="0px" y="0px"
	 viewBox="0 0 100 100" style="enable-background:new 0 0 100 100;" xml:space="preserve">
<path d="M53.1,1.5C36.9,4.2,24,17.3,21.4,33.5c-1.7,10.9,1.2,21,7,28.9L2,88.8c-1.3,1.3-1.3,3.4,0,4.7l4.7,4.7
	c1.3,1.3,3.4,1.3,4.7,0l26.6-26.6c7.9,5.4,17.9,7.9,28.4,6.1C82.2,75,94.9,62.3,97.6,46.4C102.2,19.9,79.6-2.8,53.1,1.5z M59.6,65
	c-14,0-25.4-11.4-25.4-25.4s11.4-25.4,25.4-25.4S85,25.6,85,39.6S73.6,65,59.6,65z"/>
</svg>
