<?xml version="1.0" encoding="utf-8"?>
<!-- Generator: Adobe Illustrator 25.3.1, SVG Export Plug-In . SVG Version: 6.00 Build 0)  -->
<svg version="1.1" id="Layer_1" xmlns="http://www.w3.org/2000/svg" xmlns:xlink="http://www.w3.org/1999/xlink" x="0px" y="0px"
	 viewBox="0 0 46.5 46.5" style="enable-background:new 0 0 46.5 46.5;" xml:space="preserve">
<path d="M23.2,46.5C10.4,46.5,0,36.1,0,23.2S10.4,0,23.2,0s23.2,10.4,23.2,23.2S36.1,46.5,23.2,46.5z M23.2,3C12.1,3,3,12.1,3,23.2
	s9.1,20.2,20.2,20.2s20.2-9.1,20.2-20.2S34.4,3,23.2,3z"/>
<polygon points="2.8,24.6 16.8,17.6 30.8,29.6 43.8,23.6 43.2,32.7 39,38.7 31.5,43.6 24.4,45.1 15.6,43.6 8.8,39.6 3.8,31.6 "/>
</svg>
