<?xml version="1.0" encoding="utf-8"?>
<!-- Generator: Adobe Illustrator 25.3.1, SVG Export Plug-In . SVG Version: 6.00 Build 0)  -->
<svg version="1.1" id="Layer_1" xmlns="http://www.w3.org/2000/svg" xmlns:xlink="http://www.w3.org/1999/xlink" x="0px" y="0px"
	 viewBox="0 0 21.8 20.6" style="enable-background:new 0 0 21.8 20.6;" xml:space="preserve">
<style type="text/css">
	.st0{clip-path:url(#SVGID_2_);fill:none;stroke:#000000;stroke-width:0.9837;}
	.st1{fill:none;stroke:#000000;stroke-width:0.9837;}
</style>
<g>
	<defs>
		<rect id="SVGID_1_" x="0.6" width="20.6" height="20.6"/>
	</defs>
	<clipPath id="SVGID_2_">
		<use xlink:href="#SVGID_1_"  style="overflow:visible;"/>
	</clipPath>
	<path class="st0" d="M2.1,0.5c-0.5,0-1,0.4-1,1v17.6c0,0.5,0.4,1,1,1h17.6c0.5,0,1-0.4,1-1V1.5c0-0.5-0.4-1-1-1H2.1z"/>
	<path class="st0" d="M13.3,4v6.6c0,1.3-1.1,2.4-2.4,2.4S8.5,12,8.5,10.6V4H4.6v6.6c0,3.5,2.8,6.3,6.3,6.3s6.3-2.8,6.3-6.3V4H13.3z"
		/>
</g>
<line class="st1" x1="4.8" y1="7.5" x2="8.2" y2="7.5"/>
<line class="st1" x1="13.4" y1="7.5" x2="17.2" y2="7.5"/>
</svg>
