<?xml version="1.0" encoding="utf-8"?>
<!-- Generator: Adobe Illustrator 25.3.1, SVG Export Plug-In . SVG Version: 6.00 Build 0)  -->
<svg version="1.1" id="Layer_1" xmlns="http://www.w3.org/2000/svg" xmlns:xlink="http://www.w3.org/1999/xlink" x="0px" y="0px"
	 viewBox="0 0 21.8 20.6" style="enable-background:new 0 0 21.8 20.6;" xml:space="preserve">
<g>
	<path d="M10.9,20.6c-5.7,0-10.3-4.6-10.3-10.3S5.2,0,10.9,0c5.7,0,10.3,4.6,10.3,10.3S16.6,20.6,10.9,20.6z M10.9,1
		c-5.1,0-9.3,4.2-9.3,9.3s4.2,9.3,9.3,9.3s9.3-4.2,9.3-9.3S16,1,10.9,1z"/>
</g>
<rect x="1.4" y="9.8" transform="matrix(0.7071 -0.7071 0.7071 0.7071 -4.0748 10.7114)" width="19" height="1"/>
<rect x="13.4" y="8.6" transform="matrix(0.7071 -0.7071 0.7071 0.7071 -5.578 13.8138)" width="1" height="10"/>
<g>
	<rect x="11.5" y="10.4" transform="matrix(0.7071 -0.7071 0.7071 0.7071 -7.2896 12.977)" width="1" height="9.7"/>
	<rect x="9.3" y="12.4" transform="matrix(0.7071 -0.7071 0.7071 0.7071 -8.8793 11.8459)" width="1" height="8.6"/>
	<rect x="6.8" y="14.4" transform="matrix(0.707 -0.7072 0.7072 0.707 -10.3139 10.3401)" width="1" height="6.4"/>
</g>
<rect x="15" y="6.9" transform="matrix(0.7071 -0.7071 0.7071 0.7071 -3.7761 14.4324)" width="1" height="9.7"/>
<rect x="16.5" y="5.3" transform="matrix(0.7071 -0.7072 0.7072 0.7071 -1.9062 14.8896)" width="1" height="8.9"/>
<rect x="17.6" y="3.8" transform="matrix(0.7072 -0.707 0.707 0.7072 0.1092 14.9878)" width="1" height="7.2"/>
</svg>
