<?xml version="1.0" encoding="utf-8"?>
<!-- Generator: Adobe Illustrator 25.3.1, SVG Export Plug-In . SVG Version: 6.00 Build 0)  -->
<svg version="1.1" id="Layer_1" xmlns="http://www.w3.org/2000/svg" xmlns:xlink="http://www.w3.org/1999/xlink" x="0px" y="0px"
	 viewBox="0 0 46.5 46.5" style="enable-background:new 0 0 46.5 46.5;" xml:space="preserve">
<path d="M21.8,21.3c0-2.4,2-4.4,4.4-4.4c2.4,0,4.4,2,4.4,4.4c0,2.4-2,4.4-4.4,4.4C23.8,25.7,21.8,23.8,21.8,21.3 M20.2,40.2
	c1,0.2,2,0.3,3,0.3c3,0,5.8-0.8,8.3-2.1c-1.4-0.7-2.4-2.2-2.4-3.9c0-2.4,2-4.4,4.4-4.4c1.8,0,3.4,1.1,4.1,2.7c1.8-2.7,2.9-6,2.9-9.6
	c0-0.7-0.1-1.4-0.1-2.1c-0.4,0.1-0.7,0.2-1.1,0.2c-2.4,0-4.4-2-4.4-4.4c0-1.7,0.9-3.1,2.3-3.8c-1.1-1.5-2.4-2.8-4-3.9
	c-0.8,1.1-2.1,1.9-3.6,1.9c-2.4,0-4.4-2-4.4-4.4c0-0.2,0-0.4,0.1-0.5C24.6,6,23.9,6,23.3,6c-3.4,0-6.5,1-9.1,2.6
	c1.5,0.7,2.6,2.2,2.6,4c0,2.4-2,4.4-4.4,4.4c-1.8,0-3.3-1-4-2.5C6.9,17.1,6,20.1,6,23.3c0,0.6,0,1.2,0.1,1.8c0.8-1.2,2.1-2,3.7-2
	c2.4,0,4.4,2,4.4,4.4c0,2.4-2,4.4-4.4,4.4c-0.6,0-1.2-0.1-1.7-0.3c1.4,2.6,3.4,4.7,5.9,6.3c-0.2-0.4-0.3-0.9-0.3-1.4
	c0-2.4,2-4.4,4.4-4.4c2.4,0,4.4,2,4.4,4.4C22.5,38,21.6,39.5,20.2,40.2"/>
<path d="M23.3,46.5c12.8,0,23.2-10.4,23.2-23.2S36.1,0,23.3,0S0,10.4,0,23.2S10.4,46.5,23.3,46.5 M23.3,43.1
	c-10.9,0-19.8-8.9-19.8-19.8S12.3,3.4,23.3,3.4s19.8,8.9,19.8,19.8S34.2,43.1,23.3,43.1"/>
</svg>
