<?xml version="1.0" encoding="utf-8"?>
<!-- Generator: Adobe Illustrator 25.3.1, SVG Export Plug-In . SVG Version: 6.00 Build 0)  -->
<svg version="1.1" id="Layer_1" xmlns="http://www.w3.org/2000/svg" xmlns:xlink="http://www.w3.org/1999/xlink" x="0px" y="0px"
	 viewBox="0 0 21.8 20.6" style="enable-background:new 0 0 21.8 20.6;" xml:space="preserve">
<style type="text/css">
	.st0{opacity:0.4;}
</style>
<g>
	<g>
		<g class="st0">
			<g>
				<path d="M10.9,20.5v-1c3.4,0,6.3-2.8,6.3-6.2V6.7H14v6.6c0,1.7-1.4,3.1-3.1,3.1v-1c1.2,0,2.1-0.9,2.1-2.1V5.8h5.1v7.5
					C18.1,17.3,14.9,20.5,10.9,20.5z"/>
				<rect x="13.6" y="9.5" width="4" height="1"/>
				<path d="M15.4,2.8C14.2,1.6,12.6,1,10.9,1l0-1c2,0,3.8,0.8,5.2,2.2L15.4,2.8z"/>
			</g>
		</g>
		<path d="M10.9,20.5c-4,0-7.2-3.2-7.2-7.2V5.8h5.1v7.5c0,1.2,0.9,2.1,2.1,2.1v1c-1.7,0-3.1-1.4-3.1-3.1V6.7H4.6v6.6
			c0,3.4,2.8,6.2,6.3,6.2V20.5z"/>
		<rect x="4.2" y="9.5" width="4" height="1"/>
		<path d="M6.4,2.8L5.7,2.2C7.1,0.8,8.9,0,10.9,0l0,1C9.2,1,7.6,1.6,6.4,2.8z"/>
	</g>
</g>
</svg>
