<?xml version="1.0" encoding="utf-8"?>
<!-- Generator: Adobe Illustrator 25.3.1, SVG Export Plug-In . SVG Version: 6.00 Build 0)  -->
<svg version="1.1" id="Layer_1" xmlns="http://www.w3.org/2000/svg" xmlns:xlink="http://www.w3.org/1999/xlink" x="0px" y="0px"
	 viewBox="0 0 46.5 46.5" style="enable-background:new 0 0 46.5 46.5;" xml:space="preserve">
<g>
	<g>
		<path d="M23.2,0C10.4,0,0,10.4,0,23.3c0,12.8,10.4,23.2,23.2,23.2c12.8,0,23.3-10.4,23.3-23.2C46.5,10.4,36.1,0,23.2,0 M23.2,43.1
			c-11,0-19.9-8.9-19.9-19.9c0-11,8.9-19.9,19.9-19.9c3.4,0,6.6,0.9,9.4,2.4c-1.3,0.3-2.3,1.4-2.3,2.8c0,1.6,1.3,2.9,2.9,2.9
			c1.6,0,2.9-1.3,2.9-2.9c0-0.2,0-0.4-0.1-0.5c4.3,3.6,7.1,9.1,7.1,15.2c0,6.7-3.3,12.6-8.3,16.2c0.2-0.4,0.4-0.9,0.4-1.4
			c0-1.6-1.3-2.9-2.9-2.9c-1.6,0-2.9,1.3-2.9,2.9c0,1.6,1.3,2.9,2.9,2.9l0.1,0C29.6,42.3,26.5,43.1,23.2,43.1"/>
	</g>
</g>
<g>
	<g>
		<path d="M19.3,13.4c-1.6,0-2.9,1.3-2.9,2.9c0,1.6,1.3,2.9,2.9,2.9c1.6,0,2.9-1.3,2.9-2.9C22.2,14.7,20.9,13.4,19.3,13.4"/>
	</g>
</g>
<g>
	<g>
		<path d="M22.6,5.6c-1.6,0-2.9,1.3-2.9,2.9c0,1.6,1.3,2.9,2.9,2.9c1.6,0,2.9-1.3,2.9-2.9C25.4,6.9,24.2,5.6,22.6,5.6"/>
	</g>
</g>
<g>
	<g>
		<path d="M39.2,20.6c-1.6,0-2.9,1.3-2.9,2.9c0,1.6,1.3,2.9,2.9,2.9c1.6,0,2.9-1.3,2.9-2.9C42.1,21.9,40.8,20.6,39.2,20.6"/>
	</g>
</g>
<g>
	<g>
		<path d="M8.9,14.7C7.3,14.7,6,16,6,17.6c0,1.6,1.3,2.9,2.9,2.9c1.6,0,2.9-1.3,2.9-2.9C11.7,16,10.5,14.7,8.9,14.7"/>
	</g>
</g>
<g>
	<g>
		<path d="M25.4,19.9c-1.6,0-2.9,1.3-2.9,2.9c0,1.6,1.3,2.9,2.9,2.9c1.6,0,2.9-1.3,2.9-2.9C28.3,21.2,27,19.9,25.4,19.9"/>
	</g>
</g>
<g>
	<g>
		<path d="M11.2,26.9c-1.6,0-2.9,1.3-2.9,2.9c0,1.6,1.3,2.9,2.9,2.9c1.6,0,2.9-1.3,2.9-2.9C14.1,28.2,12.8,26.9,11.2,26.9"/>
	</g>
</g>
<g>
	<g>
		<path d="M22.1,31.9c-1.6,0-2.9,1.3-2.9,2.9c0,1.6,1.3,2.9,2.9,2.9c1.6,0,2.9-1.3,2.9-2.9C25,33.2,23.7,31.9,22.1,31.9"/>
	</g>
</g>
</svg>
