<?xml version="1.0" encoding="utf-8"?>
<!-- Generator: Adobe Illustrator 25.3.1, SVG Export Plug-In . SVG Version: 6.00 Build 0)  -->
<svg version="1.1" id="Layer_1" xmlns="http://www.w3.org/2000/svg" xmlns:xlink="http://www.w3.org/1999/xlink" x="0px" y="0px"
	 viewBox="0 0 206 86.5" style="enable-background:new 0 0 206 86.5;" xml:space="preserve">
<style type="text/css">
	.st0{fill:#010101;}
	.st1{fill:none;}
	.st2{enable-background:new    ;}
</style>
<path class="st0" d="M199.6,0H5.9C2.7,0,0,2.7,0,5.9V42c0,3.3,2.7,6,5.9,6h193.6c3.3,0,5.9-2.7,5.9-5.9V5.9
	C205.5,2.7,202.8,0,199.6,0z M102.8,40.8c-9.1,0-16.5-7.4-16.5-16.5s7.4-16.5,16.5-16.5s16.5,7.4,16.5,16.5
	C119.2,33.4,111.9,40.8,102.8,40.8z"/>
<circle class="st0" cx="102.8" cy="24.2" r="11"/>
<rect y="59.5" class="st1" width="206" height="27"/>
<g class="st2">
	<path class="st0" d="M16.5,60.2H18v18.9h8.1v1.4h-9.6V60.2z"/>
	<path class="st0" d="M33.9,70.9c2.1,0,3.7,0.9,4.3,1.6v-2.3c0-2.5-1.7-3.9-4.1-3.9c-2,0-3.6,0.8-4.6,1.4l-0.6-1.1
		c0.8-0.5,2.8-1.6,5.3-1.6c3.7,0,5.5,2.2,5.5,5.3v10.1h-1.2L38.2,79c-0.8,0.9-2.1,1.8-4.3,1.8c-3.4,0-5.8-2.2-5.8-5
		C28.1,73,30.5,70.9,33.9,70.9z M34,79.5c2.6,0,4.3-1.6,4.3-3.7c0-2.1-1.7-3.6-4.4-3.6c-2.7,0-4.4,1.6-4.4,3.6
		C29.6,77.9,31.3,79.5,34,79.5z M32.2,60.3c0.7,0,1.2,0.5,1.2,1.2s-0.5,1.2-1.2,1.2c-0.7,0-1.2-0.5-1.2-1.2S31.5,60.3,32.2,60.3z
		 M36.6,60.3c0.7,0,1.2,0.5,1.2,1.2s-0.5,1.2-1.2,1.2c-0.7,0-1.2-0.5-1.2-1.2S35.9,60.3,36.6,60.3z"/>
	<path class="st0" d="M55.2,70.7v9.8h-1.5v-9.7c0-2.8-1.7-4.4-4.1-4.4c-2.6,0-4.5,2-4.5,4.9v9.2h-1.5V65.4h1.5v2.4
		c0.8-1.5,2.6-2.8,4.7-2.8C53,65,55.2,67.2,55.2,70.7z"/>
	<path class="st0" d="M60.7,83.3c0.6,0.4,2.5,1.4,4.7,1.4c3.2,0,5.9-1.5,5.9-5.3v-1.6c-0.3,0.6-2,3.2-5.6,3.2
		c-4.3,0-7.3-3.3-7.3-7.9c0-4.6,3-7.9,7.2-7.9c3.4,0,5.2,2.3,5.7,3.2v-2.9h1.5v12.9c0,5.7-3,7.7-7.3,7.7c-1.9,0-4-0.7-5.3-1.6
		L60.7,83.3z M65.5,66.4c-3.3,0-5.7,2.7-5.7,6.6c0,3.9,2.6,6.5,5.8,6.5c3.5,0,5.7-3,5.7-6.5C71.3,68.8,68.7,66.4,65.5,66.4z"/>
	<path class="st0" d="M83.1,65c4.3,0,7.1,3.2,7.1,7.5v0.6H77.3c0,4,2.6,6.3,6.1,6.3c2.8,0,4.3-1.4,5.2-2.6l1,0.7
		c-1,1.6-2.9,3.2-6.1,3.2c-4.4,0-7.7-3.2-7.7-7.9C75.8,68.1,79.3,65,83.1,65z M88.6,71.9c-0.2-3.8-2.8-5.5-5.6-5.5
		c-2.7,0-5.3,1.9-5.6,5.5H88.6z"/>
	<path class="st0" d="M105.9,73.7l-4.9,6.8h-1.8l5.8-7.8l-5.3-7.2h1.8l4.4,6.2l4.4-6.2h1.8l-5.3,7.2l5.8,7.8h-1.8L105.9,73.7z"/>
	<path class="st0" d="M123.1,60.2h5.3c3.3,0,5.6,2.1,5.6,5.2c0,2.1-1.2,3.7-2.7,4.5c1.9,0.7,3.4,2.5,3.4,5c0,3.2-2.5,5.7-5.8,5.7
		h-5.8V60.2z M128.6,69.2c2.3,0,3.9-1.7,3.9-3.9c0-2.2-1.6-3.8-3.9-3.8h-4v7.7H128.6z M128.4,79.1c2.8,0,4.8-1.6,4.8-4.4
		c0-2.8-2.1-4.2-4.8-4.2h-3.8v8.6H128.4z"/>
	<path class="st0" d="M144.3,66.5c-3.6,0-4.6,2.9-4.6,6.1v7.9h-1.5V65.4h1.5v2.7c0.5-1.5,2.2-3.1,4.6-3.1V66.5z"/>
	<path class="st0" d="M153,65c4.3,0,7.1,3.2,7.1,7.5v0.6h-12.8c0,4,2.6,6.3,6.1,6.3c2.8,0,4.3-1.4,5.2-2.6l1,0.7
		c-1,1.6-2.9,3.2-6.1,3.2c-4.4,0-7.7-3.2-7.7-7.9C145.7,68.1,149.1,65,153,65z M158.5,71.9c-0.2-3.8-2.8-5.5-5.6-5.5
		c-2.7,0-5.3,1.9-5.6,5.5H158.5z"/>
	<path class="st0" d="M164,60.2c0.7,0,1.2,0.5,1.2,1.2s-0.5,1.2-1.2,1.2s-1.2-0.5-1.2-1.2S163.3,60.2,164,60.2z M163.3,65.4h1.5
		v15.1h-1.5V65.4z"/>
	<path class="st0" d="M169.1,62.3h1.5v3.1h3.5v1.3h-3.5v8.5c0,3.3,0.8,4.1,3,4.1c0.3,0,0.7,0,0.7,0v1.3c0,0-0.7,0.1-1.2,0.1
		c-2.4,0-3.9-1.5-3.9-4.5v-9.4h-1.9v-1.3h1.9V62.3z"/>
	<path class="st0" d="M183.3,65c4.3,0,7.1,3.2,7.1,7.5v0.6h-12.8c0,4,2.6,6.3,6.1,6.3c2.8,0,4.3-1.4,5.2-2.6l1,0.7
		c-1,1.6-2.9,3.2-6.1,3.2c-4.4,0-7.7-3.2-7.7-7.9C176,68.1,179.4,65,183.3,65z M188.8,71.9c-0.2-3.8-2.8-5.5-5.6-5.5
		c-2.7,0-5.3,1.9-5.6,5.5H188.8z"/>
</g>
</svg>
