<?xml version="1.0" encoding="utf-8"?>
<!-- Generator: Adobe Illustrator 25.3.1, SVG Export Plug-In . SVG Version: 6.00 Build 0)  -->
<svg version="1.1" id="Layer_1" xmlns="http://www.w3.org/2000/svg" xmlns:xlink="http://www.w3.org/1999/xlink" x="0px" y="0px"
	 viewBox="0 0 46.5 46.5" style="enable-background:new 0 0 46.5 46.5;" xml:space="preserve">
<g>
	<path d="M23.2,0C18.1,0,13,1.7,8.7,5.1c-10,8-11.6,22.7-3.6,32.7c4.6,5.7,11.3,8.7,18.2,8.7c5.1,0,10.2-1.7,14.5-5.1
		c10-8,11.6-22.7,3.6-32.7C36.8,3,30,0,23.2,0 M23.2,0v3.4c6.1,0,11.7,2.7,15.5,7.4c6.9,8.6,5.5,21.1-3.1,28
		c-3.6,2.9-7.9,4.4-12.4,4.4c-6.1,0-11.7-2.7-15.5-7.4c-3.3-4.1-4.8-9.3-4.3-14.6c0.6-5.3,3.2-10,7.3-13.3c3.6-2.9,7.9-4.4,12.4-4.4
		L23.2,0z"/>
	<path d="M25.6,43.8c-2.8,0-4.3-1.2-5.4-2.1c-1-0.8-1.6-1.3-3.2-1.3c-1.6,0-2.2,0.5-3.2,1.3c-0.4,0.3-0.8,0.7-1.3,1l-1.8-2.8
		c0.3-0.2,0.6-0.5,1-0.7c1.1-0.9,2.5-2.1,5.3-2.1c2.7,0,4.2,1.1,5.3,2c1,0.8,1.6,1.3,3.3,1.3c1.7,0,2.4-0.6,3.4-1.4
		c1.1-0.9,2.5-2,5-2c2.1,0,3.4,0.8,4.5,1.6l-2,2.7c-0.8-0.6-1.4-0.9-2.4-0.9c-1.4,0-2,0.5-2.9,1.3C29.9,42.6,28.4,43.8,25.6,43.8"/>
	<path d="M25.5,37.2c-2.8,0-4.3-1.2-5.4-2.1c-1-0.8-1.6-1.3-3.2-1.3c-1.6,0-2.2,0.5-3.2,1.3c-1.1,0.9-2.5,2.1-5.3,2.1
		c-2.2,0-3.6-0.8-4.5-1.4l2-2.7c0.6,0.5,1.3,0.8,2.5,0.8c1.6,0,2.2-0.5,3.2-1.3c1.1-0.9,2.5-2.1,5.3-2.1c2.7,0,4.2,1.1,5.3,2
		c1,0.8,1.6,1.3,3.3,1.3c1.7,0,2.4-0.6,3.4-1.4c1.1-0.9,2.5-2,5-2c2.5,0,3.9,1.1,5,2c0.8,0.6,1.4,1.1,2.4,1.3L40.6,37
		c-1.8-0.4-2.9-1.3-3.8-2c-0.9-0.7-1.5-1.2-2.9-1.2c-1.4,0-2,0.5-2.9,1.3C29.8,36,28.3,37.2,25.5,37.2"/>
	<path d="M42.5,30.6c-3,0-4.5-1.2-5.7-2.2c-0.9-0.7-1.5-1.2-2.9-1.2c-1.4,0-2,0.5-2.9,1.3c-1.2,0.9-2.7,2.1-5.5,2.1
		c-2.8,0-4.3-1.2-5.4-2.1c-1-0.8-1.6-1.3-3.2-1.3c-1.6,0-2.2,0.5-3.2,1.3c-1.1,0.9-2.5,2.1-5.3,2.1s-4.2-1.1-5.3-2.1
		c-0.6-0.5-1.2-1-1.9-1.2l0.9-3.2c1.4,0.4,2.4,1.2,3.1,1.8c1,0.8,1.6,1.3,3.2,1.3c1.6,0,2.2-0.5,3.2-1.3c1.1-0.9,2.5-2.1,5.3-2.1
		c2.7,0,4.2,1.1,5.3,2c1,0.8,1.6,1.3,3.3,1.3c1.7,0,2.4-0.6,3.4-1.4c1.1-0.9,2.5-2,5-2c2.5,0,3.9,1.1,5,2c1,0.8,1.8,1.4,3.6,1.4
		c0.4,0,0.8,0,1.2-0.1l0.6,3.3C43.7,30.6,43.1,30.6,42.5,30.6"/>
	<path d="M28,14.2l-4.8-8.1l-4.7,8.1c-0.3,0.7-0.5,1.5-0.5,2.3c0,2.9,2.4,5.3,5.3,5.3c2.9,0,5.3-2.4,5.3-5.3
		C28.5,15.7,28.4,14.9,28,14.2"/>
	<path d="M15.2,14.6l-2.4-4.1l-2.4,4.1c-0.2,0.4-0.3,0.7-0.3,1.2c0,1.5,1.2,2.7,2.7,2.7c1.5,0,2.7-1.2,2.7-2.7
		C15.5,15.4,15.4,15,15.2,14.6"/>
	<path d="M36.2,14.6l-2.4-4.1l-2.4,4.1c-0.2,0.4-0.3,0.7-0.3,1.2c0,1.5,1.2,2.7,2.7,2.7s2.7-1.2,2.7-2.7
		C36.5,15.4,36.4,15,36.2,14.6"/>
</g>
</svg>
