<?xml version="1.0" encoding="utf-8"?>
<!-- Generator: Adobe Illustrator 25.3.1, SVG Export Plug-In . SVG Version: 6.00 Build 0)  -->
<svg version="1.1" id="Layer_1" xmlns="http://www.w3.org/2000/svg" xmlns:xlink="http://www.w3.org/1999/xlink" x="0px" y="0px"
	 viewBox="0 0 210.5 72.2" style="enable-background:new 0 0 210.5 72.2;" xml:space="preserve">
<style type="text/css">
	.st0{fill:#010101;}
	.st1{fill:#FFFFFF;stroke:#010101;stroke-width:2.9368;stroke-miterlimit:10;}
	.st2{fill:#FFFFFF;stroke:#010101;stroke-width:3;stroke-miterlimit:10;}
</style>
<path class="st0" d="M204.6,0H30.9C27.7,0,25,2.7,25,5.9v36.1c0,3.3,2.7,5.9,5.9,5.9h173.6c3.3,0,5.9-2.7,5.9-5.9V5.9
	C210.5,2.7,207.8,0,204.6,0z M117.8,40.8c-9.1,0-16.5-7.4-16.5-16.5c0-9.1,7.4-16.5,16.5-16.5s16.5,7.4,16.5,16.5
	C134.2,33.4,126.9,40.8,117.8,40.8z"/>
<circle class="st0" cx="117.8" cy="24.2" r="11"/>
<line class="st1" x1="5.2" y1="1" x2="5.2" y2="47"/>
<line class="st2" x1="26.5" y1="72.2" x2="26.5" y2="61.8"/>
<line class="st2" x1="209" y1="72.2" x2="209" y2="61.8"/>
<line class="st2" x1="0" y1="46.3" x2="10.5" y2="46.3"/>
<line class="st2" x1="0" y1="1.5" x2="10.5" y2="1.5"/>
<line class="st2" x1="25.8" y1="67" x2="209.7" y2="67"/>
</svg>
