<?xml version="1.0" encoding="utf-8"?>
<!-- Generator: Adobe Illustrator 25.3.1, SVG Export Plug-In . SVG Version: 6.00 Build 0)  -->
<svg version="1.1" id="Layer_2" xmlns="http://www.w3.org/2000/svg" xmlns:xlink="http://www.w3.org/1999/xlink" x="0px" y="0px"
	 viewBox="0 0 100 100" style="enable-background:new 0 0 100 100;" xml:space="preserve">
<g>
	<path d="M6.1,37.1h62.1l3.4-14.3c1.3-5.8,5.5-8.5,7.7-9.3l15.2-4.1c2-0.5,4,0.6,4.6,2.6c0.5,2-0.6,4-2.6,4.6l-14.8,4
		c-0.4,0.2-2.2,1.2-2.8,3.9L67.8,71.9C66.5,77,62,76.3,62,76.3H13.1c-5.2,0-5.7-5.6-5.7-5.6L1,41.5C-0.1,36.8,6.1,37.1,6.1,37.1z"/>
	<path d="M50.3,86.6c0,3.6,2.9,6.4,6.5,6.4c3.6,0,6.4-2.9,6.4-6.4c0-3.6-2.9-6.5-6.4-6.5C53.2,80.1,50.3,83,50.3,86.6z"/>
	<path d="M13.1,86.6c0,3.6,2.9,6.4,6.5,6.4c3.6,0,6.4-2.9,6.4-6.4c0-3.6-2.9-6.5-6.4-6.5C16,80.1,13.1,83,13.1,86.6z"/>
</g>
</svg>
