<?xml version="1.0" encoding="utf-8"?>
<!-- Generator: Adobe Illustrator 25.3.1, SVG Export Plug-In . SVG Version: 6.00 Build 0)  -->
<svg version="1.1" id="Layer_2" xmlns="http://www.w3.org/2000/svg" xmlns:xlink="http://www.w3.org/1999/xlink" x="0px" y="0px"
	 viewBox="0 0 100 100" style="enable-background:new 0 0 100 100;" xml:space="preserve">
<g>
	<path d="M85.9,29.7l10.9,15c0.2,0.3,0.2,0.8-0.2,1L89,51.2c-0.3,0.2-0.8,0.2-1-0.2L77.2,36c-0.2-0.3-0.2-0.8,0.2-1l7.6-5.5
		C85.2,29.3,85.6,29.4,85.9,29.7z"/>
	<path d="M72.9,35.6l8.6,11.8c0.2,0.3,0.2,0.8-0.2,1l-6.1,4.4c-0.3,0.2-0.8,0.2-1-0.2l-8.6-11.8c-0.2-0.3-0.2-0.8,0.2-1l6.1-4.4
		C72.2,35.2,72.6,35.3,72.9,35.6z"/>
	<path d="M27.8,42C14.7,42,3.9,52.8,3.9,66s10.8,23.9,23.9,23.9S51.8,79.1,51.8,66S41,42,27.8,42z M19.3,78c-3.1,0-5.5-2.5-5.5-5.5
		c0-3.1,2.5-5.5,5.5-5.5s5.5,2.5,5.5,5.5C24.8,75.5,22.4,78,19.3,78z"/>
	<path d="M92.1,24.7l-5.9-8.2c-1.4-1.9-4-2.3-5.9-0.9L32.5,50.2c-1.9,1.4-2.3,4-0.9,5.9l5.9,8.2c1.4,1.9,4,2.3,5.9,0.9l47.8-34.6
		C93,29.2,93.5,26.6,92.1,24.7z M84,24.6L51.5,48.3l-5.1-2l34.9-25.4c0.9-0.6,2.1-0.4,2.7,0.4l0.4,0.6C85,22.8,84.8,24,84,24.6z"/>
</g>
</svg>
