<?xml version="1.0" encoding="utf-8"?>
<!-- Generator: Adobe Illustrator 25.3.1, SVG Export Plug-In . SVG Version: 6.00 Build 0)  -->
<svg version="1.1" id="Layer_1" xmlns="http://www.w3.org/2000/svg" xmlns:xlink="http://www.w3.org/1999/xlink" x="0px" y="0px"
	 viewBox="0 0 46.5 46.5" style="enable-background:new 0 0 46.5 46.5;" xml:space="preserve">
<path d="M35.1,36.7c0-1,0.8-1.8,1.8-1.8s1.8,0.8,1.8,1.8c0,1-0.8,1.8-1.8,1.8S35.1,37.6,35.1,36.7 M32.3,7c0-1,0.8-1.8,1.8-1.8
	c1,0,1.8,0.8,1.8,1.8c0,1-0.8,1.8-1.8,1.8C33.1,8.8,32.3,8,32.3,7 M23.2,3.4c-11,0-19.9,8.9-19.9,19.9c0,11,8.9,19.9,19.9,19.9
	s19.9-8.9,19.9-19.9C43.1,12.3,34.2,3.4,23.2,3.4 M23.2,46.5C10.4,46.5,0,36.1,0,23.2C0,10.4,10.4,0,23.2,0s23.2,10.4,23.2,23.2
	C46.5,36.1,36.1,46.5,23.2,46.5"/>
<path d="M22.5,9.1c1,0,1.8-0.8,1.8-1.8c0-1-0.8-1.8-1.8-1.8c-1,0-1.8,0.8-1.8,1.8C20.7,8.3,21.5,9.1,22.5,9.1"/>
<path d="M15.9,9c1,0,1.8-0.8,1.8-1.8c0-1-0.8-1.8-1.8-1.8c-1,0-1.8,0.8-1.8,1.8C14.1,8.2,14.9,9,15.9,9"/>
<path d="M29.1,23.8c1,0,1.8-0.8,1.8-1.8c0-1-0.8-1.8-1.8-1.8c-1,0-1.8,0.8-1.8,1.8C27.4,23,28.2,23.8,29.1,23.8"/>
<path d="M21.9,27.2c1,0,1.8-0.8,1.8-1.8c0-1-0.8-1.8-1.8-1.8c-1,0-1.8,0.8-1.8,1.8C20.1,26.5,20.9,27.2,21.9,27.2"/>
<path d="M7,31.7c1,0,1.8-0.8,1.8-1.8c0-1-0.8-1.8-1.8-1.8c-1,0-1.8,0.8-1.8,1.8C5.3,30.9,6.1,31.7,7,31.7"/>
<path d="M17.7,17.9c1,0,1.8-0.8,1.8-1.8c0-1-0.8-1.8-1.8-1.8c-1,0-1.8,0.8-1.8,1.8C15.9,17.1,16.7,17.9,17.7,17.9"/>
<path d="M36.3,28.8c1,0,1.8-0.8,1.8-1.8c0-1-0.8-1.8-1.8-1.8c-1,0-1.8,0.8-1.8,1.8C34.5,28,35.3,28.8,36.3,28.8"/>
<path d="M38.6,18.3c1,0,1.8-0.8,1.8-1.8c0-1-0.8-1.8-1.8-1.8c-1,0-1.8,0.8-1.8,1.8C36.8,17.6,37.6,18.3,38.6,18.3"/>
<path d="M8.9,22.2c1,0,1.8-0.8,1.8-1.8c0-1-0.8-1.8-1.8-1.8c-1,0-1.8,0.8-1.8,1.8C7.1,21.4,7.9,22.2,8.9,22.2"/>
<path d="M27.6,38.6c1,0,1.8-0.8,1.8-1.8c0-1-0.8-1.8-1.8-1.8c-1,0-1.8,0.8-1.8,1.8C25.9,37.8,26.7,38.6,27.6,38.6"/>
<path d="M16.5,37.4c1,0,1.8-0.8,1.8-1.8c0-1-0.8-1.8-1.8-1.8c-1,0-1.8,0.8-1.8,1.8C14.8,36.6,15.6,37.4,16.5,37.4"/>
</svg>
